<svg width="75" height="75" viewBox="0 0 75 75" fill="none" xmlns="http://www.w3.org/2000/svg">
<path d="M13.4055 42.5368C13.4055 42.5368 13.6202 42.4792 21.4929 40.3697C29.3657 38.2602 34.2178 44.631 34.2178 44.631L44.6959 49.9545C44.6959 49.9545 47.5282 51.6503 46.3232 53.7375C45.1181 55.8247 42.3293 54.5775 42.3293 54.5775L31.0677 48.6201" stroke="#F68B33" stroke-miterlimit="10"/>
<path d="M46.608 52.5109L58.5603 49.3083C58.5603 49.3083 62.2001 47.7193 63.1206 51.1547C64.0411 54.5901 60.152 55.2486 60.152 55.2486C60.152 55.2486 46.6252 58.8731 42.331 60.0237C38.0368 61.1743 24.1716 53.2298 20.5215 54.2078C16.8714 55.1858 14.5089 56.0635 14.5089 56.0635" stroke="#F68B33" stroke-miterlimit="10"/>
<path d="M44.0938 49.3167V25.4421" stroke="#F68B33" stroke-miterlimit="10"/>
<path d="M31.0596 15.8276C31.0596 15.8276 31.0596 20.9897 35.4473 24.0224C39.8351 27.0551 44.0293 26.3453 44.0293 26.3453C44.0293 26.3453 42.8033 15.0533 31.0596 15.8276Z" stroke="#F68B33" stroke-miterlimit="10"/>
<path d="M57.4511 15.8276C57.4511 15.8276 57.4511 20.9897 53.0634 24.0224C48.6756 27.0551 44.4814 26.3453 44.4814 26.3453C44.4814 26.3453 45.7074 15.0533 57.4511 15.8276Z" stroke="#F68B33" stroke-miterlimit="10"/>
<path d="M31.0596 28.9911C31.0596 28.9911 31.0596 34.1531 35.4473 37.1858C39.8351 40.2186 44.0293 39.5088 44.0293 39.5088C44.0293 39.5088 42.8033 28.1522 31.0596 28.9911Z" stroke="#F68B33" stroke-miterlimit="10"/>
<path d="M57.4511 28.9911C57.4511 28.9911 57.4511 34.1531 53.0634 37.1858C48.6756 40.2186 44.4814 39.5088 44.4814 39.5088C44.4814 39.5088 45.7074 28.1522 57.4511 28.9911Z" stroke="#F68B33" stroke-miterlimit="10"/>
</svg>
