<?xml version="1.0" encoding="utf-8"?>
<!-- Generator: Adobe Illustrator 25.2.3, SVG Export Plug-In . SVG Version: 6.00 Build 0)  -->
<svg version="1.1" id="Capa_1" xmlns="http://www.w3.org/2000/svg" xmlns:xlink="http://www.w3.org/1999/xlink" x="0px" y="0px"
	 viewBox="0 0 18 18" style="enable-background:new 0 0 18 18;" xml:space="preserve">
<style type="text/css">
	.st0{fill:#FFFFFF;}
</style>
<g>
	<path class="st0" d="M3.1,1.1C2,1.1,1,2,1,3.2C1,4.4,2,5.3,3.1,5.3s2.1-0.9,2.1-2.1S4.3,1.1,3.1,1.1z"/>
	<path class="st0" d="M4.7,6.2H1.6c-0.2,0-0.3,0.1-0.3,0.3v10.2c0,0.2,0.1,0.3,0.3,0.3h3.2c0.2,0,0.3-0.1,0.3-0.3V6.4
		C5,6.3,4.9,6.2,4.7,6.2z"/>
	<path class="st0" d="M12.8,6C11.7,6,10.7,6.4,10,7V6.4c0-0.2-0.1-0.3-0.3-0.3h-3c-0.2,0-0.3,0.1-0.3,0.3v10.2
		c0,0.2,0.1,0.3,0.3,0.3h3.2c0.2,0,0.3-0.1,0.3-0.3v-5.1c0-1.4,0.3-2.3,1.6-2.3c1.3,0,1.4,1,1.4,2.4v5c0,0.2,0.1,0.3,0.3,0.3h3.2
		c0.2,0,0.3-0.1,0.3-0.3V11C16.9,8.7,16.4,6,12.8,6z"/>
</g>
</svg>
