<svg width="45" height="45" viewBox="0 0 45 45" fill="none" xmlns="http://www.w3.org/2000/svg">
<path d="M20.3036 29.7322C15.1041 29.7322 10.875 25.5013 10.875 20.3036C10.875 15.1041 15.1041 10.875 20.3036 10.875C25.5013 10.875 29.7322 15.1041 29.7322 20.3036C29.7322 25.5013 25.5013 29.7322 20.3036 29.7322ZM20.3036 12.5893C16.0504 12.5893 12.5893 16.0504 12.5893 20.3036C12.5893 24.5567 16.0504 28.0179 20.3036 28.0179C24.5567 28.0179 28.0179 24.5567 28.0179 20.3036C28.0179 16.0504 24.5567 12.5893 20.3036 12.5893Z" fill="white"/>
<path d="M34.017 34.8748C33.7975 34.8748 33.5781 34.7908 33.4101 34.6245L25.7644 26.9788C25.4301 26.6445 25.4301 26.1011 25.7644 25.7668C26.0987 25.4325 26.6421 25.4325 26.9764 25.7668L34.6221 33.4125C34.9564 33.7468 34.9564 34.2903 34.6221 34.6245C34.4558 34.7908 34.2364 34.8748 34.017 34.8748Z" fill="white"/>
<path fill-rule="evenodd" clip-rule="evenodd" d="M11.25 20.3036C11.25 15.3113 15.3113 11.25 20.3036 11.25C25.2942 11.25 29.3572 15.3113 29.3572 20.3036C29.3572 22.3562 28.6698 24.252 27.5133 25.7726L27.2425 25.5018C27.0971 25.3564 26.9242 25.255 26.7405 25.1975C27.7769 23.8377 28.3929 22.1412 28.3929 20.3036C28.3929 15.8433 24.7638 12.2143 20.3036 12.2143C15.8433 12.2143 12.2143 15.8433 12.2143 20.3036C12.2143 24.7638 15.8433 28.3929 20.3036 28.3929C22.1404 28.3929 23.8363 27.7774 25.1958 26.7418C25.2532 26.9256 25.3547 27.0986 25.5002 27.2441L25.7708 27.5147C24.2504 28.6704 22.3554 29.3572 20.3036 29.3572C15.3113 29.3572 11.25 25.2942 11.25 20.3036ZM26.3056 28.0496C24.6458 29.3387 22.5626 30.1072 20.3036 30.1072C14.897 30.1072 10.5 25.7084 10.5 20.3036C10.5 14.897 14.897 10.5 20.3036 10.5C25.7084 10.5 30.1072 14.897 30.1072 20.3036C30.1072 22.5634 29.3382 24.6474 28.0482 26.3075L34.8882 33.1475C35.3689 33.6282 35.3689 34.4091 34.8882 34.8898C34.6487 35.1293 34.3327 35.25 34.0179 35.25C33.7028 35.25 33.3876 35.1291 33.1472 34.8912L33.1459 34.8898L26.3056 28.0496ZM27.5639 26.8839L34.3579 33.6778C34.5457 33.8657 34.5457 34.1717 34.3579 34.3595C34.2648 34.4526 34.142 34.5 34.0179 34.5C33.8944 34.5 33.771 34.453 33.6754 34.3587L33.6748 34.3582L26.8822 27.5655C27.1204 27.3495 27.3479 27.122 27.5639 26.8839ZM27.0329 26.3529C26.8178 26.5919 26.5902 26.8194 26.3512 27.0345L26.0305 26.7138C25.8426 26.5259 25.8426 26.22 26.0305 26.0321C26.2183 25.8443 26.5243 25.8443 26.7122 26.0321L27.0329 26.3529ZM12.9643 20.3036C12.9643 16.2575 16.2575 12.9643 20.3036 12.9643C24.3496 12.9643 27.6429 16.2575 27.6429 20.3036C27.6429 24.3496 24.3496 27.6429 20.3036 27.6429C16.2575 27.6429 12.9643 24.3496 12.9643 20.3036Z" fill="white"/>
</svg>
