<svg width="75" height="75" viewBox="0 0 75 75" fill="none" xmlns="http://www.w3.org/2000/svg">
<path d="M28.3703 34.0098C26.717 30.0082 25.0636 29.3528 22.9222 29.899C22.3943 30.038 22.1055 30.6834 22.1055 31.2295L22.4142 46.9681C22.4142 49.7682 24.1473 52.1513 26.3883 53.8295L27.9819 55.021C29.5954 56.2324 29.4261 60.0057 29.4261 62.369M32.693 47.1369C33.7089 48.6561 35.3723 49.8774 37.6631 51.8237C38.3204 52.3797 38.9977 52.9556 39.7149 53.5812C39.9041 53.7401 40.1332 53.8295 40.3722 53.8295C40.6113 53.8295 40.8403 53.75 41.0296 53.5812C41.7467 52.9556 42.424 52.3797 43.0813 51.8237C46.8463 48.6263 49.3363 46.5113 49.3363 43.2941C49.3363 40.3648 47.2546 37.9519 44.3562 37.9519C42.3742 37.9519 41.1192 39.074 40.3722 40.1662C39.6252 39.074 38.3702 37.9519 36.3882 37.9519C34.6253 37.9519 33.1512 38.8555 32.2747 40.2258C31.8663 40.8812 31.5078 41.5762 31.4679 42.4501C31.4281 43.1749 31.3683 43.6416 31.4679 44.287C31.7169 45.8857 32.4639 46.7992 32.693 47.1369Z" stroke="#EF4050" stroke-miterlimit="10"/>
<path d="M28.3711 42.2915V19.4831C28.3711 19.4831 28.4209 16.4942 31.4189 16.4942C34.4168 16.4942 34.2475 19.5327 34.2475 19.5327V34.7648V19.5228V15.1041C34.2475 15.1041 34.5364 12.6316 37.3949 12.6316C40.2534 12.6316 40.3829 15.4516 40.3829 15.4516V33.7719V19.3043C40.3829 19.3043 40.353 16.5737 43.2514 16.5737C46.1498 16.5737 46.2095 19.344 46.2095 19.344V33.9704V23.6932C46.2095 23.6932 46.3789 20.4363 49.347 20.4363C52.3151 20.4363 52.2155 23.6436 52.2155 23.6436V47.0975C52.2155 49.0933 51.7175 51.0495 50.7713 52.817C50.1139 54.0383 49.2175 55.9945 48.9486 56.9477C48.3808 58.9833 48.351 62.3693 48.351 62.3693" stroke="#EF4050" stroke-miterlimit="10"/>
</svg>
