<svg width="23" height="24" viewBox="0 0 23 24" fill="none" xmlns="http://www.w3.org/2000/svg">
<path d="M11.7812 23.4219L12.1367 23.0156C12.2383 22.9141 12.2891 22.7786 12.2891 22.6094C12.2891 22.4401 12.2383 22.2878 12.1367 22.1523L3.04688 13.1133H22.1406C22.3099 13.1133 22.4453 13.0625 22.5469 12.9609C22.6823 12.8255 22.75 12.6732 22.75 12.5039V11.9961C22.75 11.8268 22.6823 11.6914 22.5469 11.5898C22.4453 11.4544 22.3099 11.3867 22.1406 11.3867H3.04688L12.1367 2.34766C12.2383 2.21224 12.2891 2.0599 12.2891 1.89062C12.2891 1.72135 12.2383 1.58594 12.1367 1.48438L11.7812 1.07812C11.6458 0.976562 11.4935 0.925781 11.3242 0.925781C11.1549 0.925781 11.0195 0.976562 10.918 1.07812L0.203125 11.8438C0.0677083 11.9453 0 12.0807 0 12.25C0 12.4193 0.0677083 12.5547 0.203125 12.6562L10.918 23.4219C11.0195 23.5234 11.1549 23.5742 11.3242 23.5742C11.4935 23.5742 11.6458 23.5234 11.7812 23.4219Z" fill="black"/>
</svg>
