<svg width="75" height="75" viewBox="0 0 75 75" fill="none" xmlns="http://www.w3.org/2000/svg">
<path d="M18.1721 29.7803C20.301 29.7803 22.0376 31.517 22.0376 33.6458C22.0376 35.7746 20.301 37.5113 18.1721 37.5113C16.0433 37.5113 14.3066 35.7746 14.3066 33.6458C14.3627 31.4609 16.0993 29.7803 18.1721 29.7803Z" stroke="#EF4050" stroke-miterlimit="10" stroke-linecap="round" stroke-linejoin="round"/>
<path d="M11.8418 45.2983V41.7129C11.8418 40.5925 12.7381 39.6401 13.9146 39.6401H22.4859C23.6063 39.6401 24.5587 40.5365 24.5587 41.7129V45.2983" stroke="#EF4050" stroke-miterlimit="10" stroke-linecap="round" stroke-linejoin="round"/>
<path d="M50.4414 45.2983V41.7129C50.4414 40.5925 51.3378 39.6401 52.5142 39.6401H61.0855C62.206 39.6401 63.1583 40.5365 63.1583 41.7129V45.2983" stroke="#EF4050" stroke-miterlimit="10" stroke-linecap="round" stroke-linejoin="round"/>
<path d="M56.8284 29.7803C58.9572 29.7803 60.6939 31.517 60.6939 33.6458C60.6939 35.7746 58.9572 37.5113 56.8284 37.5113C54.6996 37.5113 52.9629 35.7746 52.9629 33.6458C52.9629 31.4609 54.6996 29.7803 56.8284 29.7803Z" stroke="#EF4050" stroke-miterlimit="10" stroke-linecap="round" stroke-linejoin="round"/>
<path d="M27.6953 45.2981V39.752C27.6953 38.0153 29.0959 36.6147 30.8325 36.6147H44.1097C45.8463 36.6147 47.2469 38.0153 47.2469 39.752V45.2981" stroke="#EF4050" stroke-miterlimit="10" stroke-linecap="round" stroke-linejoin="round"/>
<path d="M31.5039 28.0995C31.5039 24.7942 34.1929 22.1052 37.4982 22.1052C40.8035 22.1052 43.4925 24.7942 43.4925 28.0995C43.4925 31.4048 40.8035 34.0938 37.4982 34.0938C34.1929 34.0938 31.5039 31.4608 31.5039 28.0995Z" stroke="#EF4050" stroke-miterlimit="10" stroke-linecap="round" stroke-linejoin="round"/>
<path d="M37.4197 42.5552C37.5694 42.0945 38.2211 42.0945 38.3708 42.5552L40.0312 47.6654C40.232 48.2834 40.8079 48.7018 41.4578 48.7018H46.8309C47.3153 48.7018 47.5167 49.3216 47.1248 49.6063L42.7778 52.7646C42.2521 53.1466 42.0321 53.8236 42.2329 54.4417L43.8933 59.5518C44.043 60.0125 43.5158 60.3955 43.1239 60.1108L38.7769 56.9526C38.2512 56.5706 37.5393 56.5706 37.0136 56.9526L32.6666 60.1108C32.2747 60.3955 31.7475 60.0125 31.8972 59.5518L33.5576 54.4417C33.7584 53.8236 33.5384 53.1466 33.0127 52.7646L28.6657 49.6063C28.2738 49.3216 28.4752 48.7018 28.9596 48.7018H34.3327C34.9826 48.7018 35.5585 48.2834 35.7593 47.6654L37.4197 42.5552Z" stroke="#EF4050"/>
</svg>
