<svg width="18" height="18" viewBox="0 0 18 18" fill="none" xmlns="http://www.w3.org/2000/svg">
<path d="M16.875 4.32925C16.2953 4.5752 15.6733 4.742 15.0198 4.81647C15.6871 4.43386 16.1979 3.82697 16.44 3.10605C15.814 3.46037 15.1231 3.71766 14.3869 3.85713C13.7974 3.25496 12.9589 2.87988 12.0288 2.87988C10.2445 2.87988 8.79771 4.26518 8.79771 5.97277C8.79771 6.21495 8.82625 6.45149 8.88137 6.67768C6.19651 6.54856 3.81576 5.31688 2.22235 3.44529C1.94382 3.90142 1.78537 4.43289 1.78537 5.00023C1.78537 6.07361 2.3562 7.0207 3.2223 7.5748C2.6928 7.55784 2.19479 7.41837 1.75881 7.18654V7.22518C1.75881 8.72356 2.87292 9.97409 4.35018 10.2587C4.07952 10.3284 3.79411 10.3671 3.49885 10.3671C3.29022 10.3671 3.08845 10.3473 2.89062 10.3096C3.302 11.5394 4.49486 12.4337 5.90817 12.4582C4.80291 13.2875 3.40929 13.7804 1.89562 13.7804C1.63482 13.7804 1.37793 13.7653 1.125 13.738C2.55504 14.6172 4.25277 15.1299 6.07746 15.1299C12.021 15.1299 15.2698 10.4161 15.2698 6.32806L15.259 5.92755C15.8938 5.49403 16.4429 4.94934 16.875 4.32925Z" fill="white"/>
</svg>
