<svg width="16" height="16" viewBox="0 0 16 16" fill="none" xmlns="http://www.w3.org/2000/svg">
<path opacity="0.5" d="M8 0.25C6.60417 0.25 5.3125 0.604167 4.125 1.3125C2.9375 2 1.98958 2.9375 1.28125 4.125C0.59375 5.3125 0.25 6.60417 0.25 8C0.25 9.39583 0.59375 10.6875 1.28125 11.875C1.98958 13.0625 2.9375 14 4.125 14.6875C5.3125 15.3958 6.60417 15.75 8 15.75C9.39583 15.75 10.6875 15.3958 11.875 14.6875C13.0625 14 14 13.0625 14.6875 11.875C15.3958 10.6875 15.75 9.39583 15.75 8C15.75 6.60417 15.3958 5.3125 14.6875 4.125C14 2.9375 13.0625 2 11.875 1.3125C10.6875 0.604167 9.39583 0.25 8 0.25ZM14.75 8C14.75 9.20833 14.4479 10.3333 13.8438 11.375C13.2396 12.4167 12.4167 13.2396 11.375 13.8438C10.3542 14.4479 9.22917 14.75 8 14.75C6.79167 14.75 5.66667 14.4479 4.625 13.8438C3.58333 13.2396 2.76042 12.4271 2.15625 11.4062C1.55208 10.3646 1.25 9.23958 1.25 8.03125C1.25 6.80208 1.55208 5.66667 2.15625 4.625C2.76042 3.58333 3.57292 2.76042 4.59375 2.15625C5.63542 1.55208 6.76042 1.25 7.96875 1.25C9.19792 1.25 10.3333 1.55208 11.375 2.15625C12.4167 2.76042 13.2396 3.58333 13.8438 4.625C14.4479 5.64583 14.75 6.77083 14.75 8ZM10.0938 10.75L7.5625 8.90625C7.45833 8.84375 7.40625 8.75 7.40625 8.625V3.625C7.40625 3.52083 7.4375 3.4375 7.5 3.375C7.58333 3.29167 7.67708 3.25 7.78125 3.25H8.21875C8.32292 3.25 8.40625 3.29167 8.46875 3.375C8.55208 3.4375 8.59375 3.52083 8.59375 3.625V8.1875L10.8125 9.8125C10.8958 9.875 10.9375 9.95833 10.9375 10.0625C10.9583 10.1458 10.9375 10.2292 10.875 10.3125L10.625 10.6875C10.5625 10.7708 10.4792 10.8229 10.375 10.8438C10.2708 10.8438 10.1771 10.8125 10.0938 10.75Z" fill="black"/>
</svg>
