<svg width="75" height="75" viewBox="0 0 75 75" fill="none" xmlns="http://www.w3.org/2000/svg">
<path d="M32.0957 44.7663V41.2698C32.0957 40.3248 32.8577 39.5215 33.8578 39.5215H41.1445C42.097 39.5215 42.9066 40.2775 42.9066 41.2698V44.7663M37.4773 30.0242C39.5729 30.0242 41.2397 31.7252 41.2397 33.757C41.2397 35.7887 39.5252 37.4897 37.4773 37.4897C35.3818 37.4897 33.715 35.7887 33.715 33.757C33.715 31.7252 35.3818 30.0242 37.4773 30.0242Z" stroke="#EF4050" stroke-miterlimit="10" stroke-linecap="round" stroke-linejoin="round"/>
<circle cx="37.5019" cy="37.8865" r="12.2851" stroke="#E54360" stroke-miterlimit="10" stroke-linecap="round" stroke-linejoin="round"/>
<circle cx="17.1074" cy="26.3384" r="3.68554" stroke="#E54360" stroke-miterlimit="10" stroke-linecap="round" stroke-linejoin="round"/>
<circle cx="17.1082" cy="26.3384" r="0.737107" stroke="#E54360" stroke-miterlimit="10" stroke-linecap="round" stroke-linejoin="round"/>
<ellipse cx="57.8934" cy="26.3384" rx="0.737106" ry="0.737107" stroke="#E54360" stroke-miterlimit="10" stroke-linecap="round" stroke-linejoin="round"/>
<ellipse cx="17.1082" cy="48.4517" rx="0.737107" ry="0.737108" stroke="#E54360" stroke-miterlimit="10" stroke-linecap="round" stroke-linejoin="round"/>
<ellipse cx="57.8934" cy="48.4517" rx="0.737106" ry="0.737108" stroke="#E54360" stroke-miterlimit="10" stroke-linecap="round" stroke-linejoin="round"/>
<circle cx="37.2547" cy="60.2454" r="0.737108" stroke="#E54360" stroke-miterlimit="10" stroke-linecap="round" stroke-linejoin="round"/>
<ellipse cx="37.2547" cy="15.5276" rx="0.737108" ry="0.737108" stroke="#E54360" stroke-miterlimit="10" stroke-linecap="round" stroke-linejoin="round"/>
<ellipse cx="37.2559" cy="15.5276" rx="3.68554" ry="3.68554" stroke="#E54360" stroke-miterlimit="10" stroke-linecap="round" stroke-linejoin="round"/>
<circle cx="37.2559" cy="60.2454" r="3.68554" stroke="#E54360" stroke-miterlimit="10" stroke-linecap="round" stroke-linejoin="round"/>
<ellipse cx="57.8945" cy="26.3384" rx="3.68554" ry="3.68554" stroke="#E54360" stroke-miterlimit="10" stroke-linecap="round" stroke-linejoin="round"/>
<ellipse cx="57.8945" cy="48.4517" rx="3.68554" ry="3.68554" stroke="#E54360" stroke-miterlimit="10" stroke-linecap="round" stroke-linejoin="round"/>
<ellipse cx="17.1074" cy="48.4517" rx="3.68554" ry="3.68554" stroke="#E54360" stroke-miterlimit="10" stroke-linecap="round" stroke-linejoin="round"/>
<path d="M37.5 19.7043L37.5 25.1098" stroke="#E54360" stroke-miterlimit="10" stroke-linecap="round" stroke-linejoin="round"/>
<path d="M37.5 50.1716V56.5599" stroke="#E54360" stroke-miterlimit="10" stroke-linecap="round" stroke-linejoin="round"/>
<path d="M26.3262 43.7834L20.7938 46.9776" stroke="#E54360" stroke-miterlimit="10" stroke-linecap="round" stroke-linejoin="round"/>
<path d="M48.8027 43.7834L54.3351 46.9776" stroke="#E54360" stroke-miterlimit="10" stroke-linecap="round" stroke-linejoin="round"/>
<path d="M54.3359 28.55L48.8035 31.7442" stroke="#E54360" stroke-miterlimit="10" stroke-linecap="round" stroke-linejoin="round"/>
<path d="M20.793 28.55L26.3254 31.7442" stroke="#E54360" stroke-miterlimit="10" stroke-linecap="round" stroke-linejoin="round"/>
</svg>
