<svg width="11" height="13" viewBox="0 0 11 13" fill="none" xmlns="http://www.w3.org/2000/svg">
<path opacity="0.4" d="M10.5 10.25C10.5 10.875 10.2812 11.4062 9.84375 11.8438C9.40625 12.2812 8.875 12.5 8.25 12.5C7.625 12.5 7.09375 12.2812 6.65625 11.8438C6.21875 11.4062 6 10.875 6 10.25C6 9.95312 6.05469 9.66406 6.16406 9.38281L3.9375 8C3.71875 8.23438 3.46094 8.42188 3.16406 8.5625C2.88281 8.6875 2.57812 8.75 2.25 8.75C1.625 8.75 1.09375 8.53125 0.65625 8.09375C0.21875 7.65625 0 7.125 0 6.5C0 5.875 0.21875 5.34375 0.65625 4.90625C1.09375 4.46875 1.625 4.25 2.25 4.25C2.57812 4.25 2.88281 4.32031 3.16406 4.46094C3.46094 4.58594 3.71875 4.76562 3.9375 5L6.16406 3.61719C6.05469 3.33594 6 3.04688 6 2.75C6 2.125 6.21875 1.59375 6.65625 1.15625C7.09375 0.71875 7.625 0.5 8.25 0.5C8.875 0.5 9.40625 0.71875 9.84375 1.15625C10.2812 1.59375 10.5 2.125 10.5 2.75C10.5 3.375 10.2812 3.90625 9.84375 4.34375C9.40625 4.78125 8.875 5 8.25 5C7.92188 5 7.60938 4.9375 7.3125 4.8125C7.03125 4.67188 6.78125 4.48438 6.5625 4.25L4.33594 5.63281C4.44531 5.91406 4.5 6.20312 4.5 6.5C4.5 6.79688 4.44531 7.08594 4.33594 7.36719L6.5625 8.75C6.78125 8.51562 7.03125 8.33594 7.3125 8.21094C7.60938 8.07031 7.92188 8 8.25 8C8.875 8 9.40625 8.21875 9.84375 8.65625C10.2812 9.09375 10.5 9.625 10.5 10.25ZM8.25 1.25C7.84375 1.25 7.49219 1.39844 7.19531 1.69531C6.89844 1.99219 6.75 2.34375 6.75 2.75C6.75 3.15625 6.89844 3.50781 7.19531 3.80469C7.49219 4.10156 7.84375 4.25 8.25 4.25C8.65625 4.25 9.00781 4.10156 9.30469 3.80469C9.60156 3.50781 9.75 3.15625 9.75 2.75C9.75 2.34375 9.60156 1.99219 9.30469 1.69531C9.00781 1.39844 8.65625 1.25 8.25 1.25ZM2.25 5C1.84375 5 1.49219 5.14844 1.19531 5.44531C0.898438 5.74219 0.75 6.09375 0.75 6.5C0.75 6.90625 0.898438 7.25781 1.19531 7.55469C1.49219 7.85156 1.84375 8 2.25 8C2.65625 8 3.00781 7.85156 3.30469 7.55469C3.60156 7.25781 3.75 6.90625 3.75 6.5C3.75 6.09375 3.60156 5.74219 3.30469 5.44531C3.00781 5.14844 2.65625 5 2.25 5ZM8.25 8.75C7.84375 8.75 7.49219 8.89844 7.19531 9.19531C6.89844 9.49219 6.75 9.84375 6.75 10.25C6.75 10.6562 6.89844 11.0078 7.19531 11.3047C7.49219 11.6016 7.84375 11.75 8.25 11.75C8.65625 11.75 9.00781 11.6016 9.30469 11.3047C9.60156 11.0078 9.75 10.6562 9.75 10.25C9.75 9.84375 9.60156 9.49219 9.30469 9.19531C9.00781 8.89844 8.65625 8.75 8.25 8.75Z" fill="black"/>
</svg>
