<svg width="75" height="75" viewBox="0 0 75 75" fill="none" xmlns="http://www.w3.org/2000/svg">
<path d="M18.1721 29.7803C20.301 29.7803 22.0376 31.517 22.0376 33.6458C22.0376 35.7746 20.301 37.5113 18.1721 37.5113C16.0433 37.5113 14.3066 35.7746 14.3066 33.6458C14.3627 31.4609 16.0993 29.7803 18.1721 29.7803Z" stroke="#F68B33" stroke-miterlimit="10" stroke-linecap="round" stroke-linejoin="round"/>
<path d="M11.8418 45.2983V41.7129C11.8418 40.5925 12.7381 39.6401 13.9146 39.6401H22.4859C23.6063 39.6401 24.5587 40.5365 24.5587 41.7129V45.2983" stroke="#F68B33" stroke-miterlimit="10" stroke-linecap="round" stroke-linejoin="round"/>
<path d="M50.4404 45.2983V41.7129C50.4404 40.5925 51.3368 39.6401 52.5132 39.6401H61.0845C62.205 39.6401 63.1573 40.5365 63.1573 41.7129V45.2983" stroke="#F68B33" stroke-miterlimit="10" stroke-linecap="round" stroke-linejoin="round"/>
<path d="M56.8264 29.7803C58.9553 29.7803 60.6919 31.517 60.6919 33.6458C60.6919 35.7746 58.9553 37.5113 56.8264 37.5113C54.6976 37.5113 52.9609 35.7746 52.9609 33.6458C52.9609 31.4609 54.6976 29.7803 56.8264 29.7803Z" stroke="#F68B33" stroke-miterlimit="10" stroke-linecap="round" stroke-linejoin="round"/>
<path d="M27.6963 45.2981V39.752C27.6963 38.0153 29.0968 36.6147 30.8335 36.6147H44.1106C45.8473 36.6147 47.2478 38.0153 47.2478 39.752V45.2981" stroke="#F68B33" stroke-miterlimit="10" stroke-linecap="round" stroke-linejoin="round"/>
<path d="M31.5059 28.0995C31.5059 24.7942 34.1949 22.1052 37.5002 22.1052C40.8055 22.1052 43.4945 24.7942 43.4945 28.0995C43.4945 31.4048 40.8055 34.0938 37.5002 34.0938C34.1949 34.0938 31.5059 31.4608 31.5059 28.0995Z" stroke="#F68B33" stroke-miterlimit="10" stroke-linecap="round" stroke-linejoin="round"/>
<path d="M37.4187 42.5552C37.5684 42.0945 38.2201 42.0945 38.3698 42.5552L40.0302 47.6654C40.231 48.2834 40.8069 48.7018 41.4568 48.7018H46.8299C47.3143 48.7018 47.5157 49.3216 47.1238 49.6063L42.7769 52.7646C42.2511 53.1466 42.0311 53.8236 42.2319 54.4417L43.8923 59.5518C44.042 60.0125 43.5148 60.3955 43.1229 60.1108L38.776 56.9526C38.2502 56.5706 37.5383 56.5706 37.0126 56.9526L32.6656 60.1108C32.2738 60.3955 31.7465 60.0125 31.8962 59.5518L33.5566 54.4417C33.7574 53.8236 33.5374 53.1466 33.0117 52.7646L28.6647 49.6063C28.2729 49.3216 28.4743 48.7018 28.9586 48.7018H34.3318C34.9816 48.7018 35.5575 48.2834 35.7584 47.6654L37.4187 42.5552Z" stroke="#F68B33"/>
</svg>
