<svg width="75" height="75" viewBox="0 0 75 75" fill="none" xmlns="http://www.w3.org/2000/svg">
<path d="M49.6857 26.3352L48.2901 21.0319L53.0352 16.2869L54.4308 21.5902L60.0132 23.2649L55.2681 28.01L49.6857 26.3352ZM49.6857 26.3352L34.6132 41.4078" stroke="#F68B33" stroke-miterlimit="10" stroke-linecap="round" stroke-linejoin="round"/>
<path d="M51.7842 31.4934C56.2246 38.9216 55.2459 48.6867 48.8479 55.0847C41.2943 62.6383 29.0476 62.6383 21.494 55.0847C13.9404 47.5312 13.9404 35.2844 21.494 27.7309C27.892 21.3328 37.6571 20.3541 45.0853 24.7945" stroke="#F68B33" stroke-miterlimit="10" stroke-linecap="round" stroke-linejoin="round"/>
<path d="M45.5629 36.5987C47.521 40.8309 46.7553 46.0128 43.2658 49.5024C38.7953 53.9729 31.5473 53.9729 27.0768 49.5024C22.6063 45.0319 22.6063 37.7838 27.0768 33.3134C30.7727 29.6174 36.3671 28.9771 40.7209 31.3923" stroke="#F68B33" stroke-miterlimit="10" stroke-linecap="round" stroke-linejoin="round"/>
</svg>
