<svg width="75" height="75" viewBox="0 0 75 75" fill="none" xmlns="http://www.w3.org/2000/svg">
<path d="M36.709 52.1052L41.1181 55.0472C41.1181 55.0472 42.8693 55.9734 44.89 53.9887C46.9106 52.0039 44.89 49.4899 44.89 49.4899L40.8487 46.5789" stroke="#EF4050" stroke-miterlimit="10"/>
<path d="M8.68359 32.3684L14.9994 37.1053" stroke="#EF4050" stroke-miterlimit="10"/>
<path d="M44.9985 49.6182C44.9985 49.6182 47.305 52.0796 49.5341 49.6182C51.7632 47.1568 49.5341 44.9907 49.5341 44.9907L44.209 41.0525" stroke="#EF4050" stroke-miterlimit="10"/>
<path d="M49.7372 45C49.7372 45 53.8072 48.207 55.9085 45.541C58.0098 42.875 55.9085 40.4336 55.9085 40.4336L48.1582 34.7368" stroke="#EF4050" stroke-miterlimit="10"/>
<path d="M55.6568 40.2631C55.6568 40.2631 60.188 44.3232 62.9151 41.6577C65.6423 38.9921 60.7883 35.5262 60.7883 35.5262L48.4886 26.7306C45.7069 24.838 41.998 24.8913 39.2708 26.8905C36.9255 28.6231 34.4165 30.489 33.7347 30.9955C32.3712 32.0617 29.9167 31.7951 28.8259 29.9292C27.735 28.0633 29.0986 26.1974 29.9167 25.3978C30.3804 24.9446 34.0075 22.5456 37.1709 20.4932C40.0344 18.6273 43.6888 18.4407 46.7432 19.9867C48.3795 20.813 49.9885 21.5594 50.6703 21.666C50.6703 21.666 54.761 22.1991 56.67 20.8663C58.579 19.5336 59.1244 19.0004 59.1244 19.0004" stroke="#EF4050" stroke-miterlimit="10"/>
<path d="M61.5781 36.3157L66.315 31.5789" stroke="#EF4050" stroke-miterlimit="10"/>
<path d="M37.104 20.0636C37.104 20.0636 35.7366 18.7026 32.6407 18.9861C29.5447 19.2697 26.9647 22.1052 24.1267 22.1052C21.2888 22.1052 17.3672 18.9578 17.3672 18.9578" stroke="#EF4050" stroke-miterlimit="10"/>
<path d="M19.8947 40.1189L17.95 42.5367C16.8758 43.8661 15.0247 44.0141 13.827 42.8535C12.6293 41.693 12.5192 39.6643 13.5934 38.3349L15.5381 35.9171C16.6124 34.5876 18.4635 34.4396 19.6612 35.6002C20.8607 36.7354 20.9708 38.764 19.8947 40.1189Z" stroke="#EF4050" stroke-miterlimit="10"/>
<path d="M36.4257 52.0172L34.408 54.7155C33.293 56.1995 31.1957 56.4963 29.7355 55.3631C28.2753 54.2298 27.9833 52.0982 29.0983 50.6142L31.116 47.9159C32.2311 46.4319 34.3284 46.1351 35.7886 47.2683C37.2488 48.3746 37.5408 50.5062 36.4257 52.0172Z" stroke="#EF4050" stroke-miterlimit="10"/>
<path d="M26.9219 42.5372L23.6038 46.8224C22.4425 48.3047 20.2581 48.6011 18.7373 47.4692C17.2166 46.3373 16.9124 44.2082 18.0737 42.7259L21.4194 38.4407C22.5808 36.9584 24.7651 36.662 26.2859 37.7939C27.779 38.8989 28.0832 41.028 26.9219 42.5372Z" stroke="#EF4050" stroke-miterlimit="10"/>
<path d="M32.0344 46.9259L28.7224 51.0352C27.5731 52.4565 25.5404 52.6469 24.1947 51.4459C22.849 50.2448 22.6785 48.1086 23.8278 46.6873L27.1398 42.578C28.2891 41.1567 30.3218 40.9663 31.6675 42.1673C33.0147 43.3415 33.1852 45.4778 32.0344 46.9259Z" stroke="#EF4050" stroke-miterlimit="10"/>
</svg>
