<svg width="18" height="18" viewBox="0 0 18 18" fill="none" xmlns="http://www.w3.org/2000/svg">
<path fill-rule="evenodd" clip-rule="evenodd" d="M1.5 9C1.5 6.19615 1.5 4.79423 2.10289 3.75C2.49784 3.06591 3.06591 2.49784 3.75 2.10289C4.79423 1.5 6.19615 1.5 9 1.5C11.8038 1.5 13.2058 1.5 14.25 2.10289C14.9341 2.49784 15.5022 3.06591 15.8971 3.75C16.5 4.79423 16.5 6.19615 16.5 9C16.5 11.8038 16.5 13.2058 15.8971 14.25C15.5022 14.9341 14.9341 15.5022 14.25 15.8971C13.2058 16.5 11.8038 16.5 9 16.5C6.19615 16.5 4.79423 16.5 3.75 15.8971C3.06591 15.5022 2.49784 14.9341 2.10289 14.25C1.5 13.2058 1.5 11.8038 1.5 9ZM9 5.02941C6.80724 5.02941 5.02941 6.80725 5.02941 9C5.02941 11.1928 6.80724 12.9706 9 12.9706C11.1928 12.9706 12.9706 11.1928 12.9706 9C12.9706 6.80725 11.1928 5.02941 9 5.02941ZM9 11.4816C7.63213 11.4816 6.51838 10.3679 6.51838 9C6.51838 7.63114 7.63213 6.51839 9 6.51839C10.3679 6.51839 11.4816 7.63114 11.4816 9C11.4816 10.3679 10.3679 11.4816 9 11.4816ZM14.7993 5.23254C14.7993 5.80139 14.3382 6.26254 13.7693 6.26254C13.2005 6.26254 12.7393 5.80139 12.7393 5.23254C12.7393 4.66369 13.2005 4.20254 13.7693 4.20254C14.3382 4.20254 14.7993 4.66369 14.7993 5.23254Z" fill="white"/>
</svg>
