<svg width="75" height="75" viewBox="0 0 75 75" fill="none" xmlns="http://www.w3.org/2000/svg">
<path d="M32.8477 59.12C32.8477 59.12 32.8477 58.9363 32.8477 52.2002C32.8477 45.4642 26.724 42.9535 26.724 42.9535L20.2329 35.7275C20.2329 35.7275 18.2733 33.8292 16.8649 35.2376C15.4564 36.6461 17.0486 38.6057 17.0486 38.6057L24.1521 46.3215" stroke="#EF4050" stroke-miterlimit="10"/>
<path d="M17.7226 34.7478V24.5212C17.7226 24.5212 18.2125 21.2756 15.2731 21.2756C12.3338 21.2756 12.64 24.5212 12.64 24.5212C12.64 24.5212 12.64 36.095 12.64 39.7692C12.64 43.4434 21.948 52.8126 21.948 55.9357C21.948 59.0588 21.948 59.0588 21.948 59.0588" stroke="#EF4050" stroke-miterlimit="10"/>
<path d="M41.7891 59.1198C41.7891 59.1198 41.7891 58.9361 41.7891 52.2C41.7891 45.464 47.9128 42.9532 47.9128 42.9532L54.4039 35.7273C54.4039 35.7273 56.3634 33.8289 57.7719 35.2374C59.1803 36.6458 57.5882 38.6054 57.5882 38.6054L50.4235 46.3213" stroke="#EF4050" stroke-miterlimit="10"/>
<path d="M56.8523 34.7478V24.5212C56.8523 24.5212 56.3624 21.2756 59.3018 21.2756C62.2412 21.2756 61.935 24.5212 61.935 24.5212C61.935 24.5212 61.935 36.095 61.935 39.7692C61.935 43.4434 52.627 52.8126 52.627 55.9357C52.627 59.0588 52.627 59.0588 52.627 59.0588" stroke="#EF4050" stroke-miterlimit="10"/>
<path d="M43.564 14.2104C42.1533 14.2104 40.86 14.6575 39.72 15.5391C38.6271 16.3844 37.8994 17.461 37.471 18.2438C37.0426 17.4609 36.315 16.3844 35.2221 15.5391C34.0821 14.6575 32.7887 14.2104 31.378 14.2104C27.4414 14.2104 24.4727 17.4304 24.4727 21.7005C24.4727 26.3136 28.1763 29.4698 33.7832 34.2478C34.7353 35.0593 35.8145 35.979 36.9363 36.9599C37.0841 37.0894 37.274 37.1607 37.471 37.1607C37.668 37.1607 37.8579 37.0894 38.0058 36.96C39.1276 35.9789 40.2068 35.0592 41.1595 34.2473C46.7657 29.4698 50.4694 26.3136 50.4694 21.7005C50.4694 17.4304 47.5007 14.2104 43.564 14.2104Z" stroke="#EF4050" stroke-miterlimit="10"/>
</svg>
