<svg width="45" height="45" viewBox="0 0 45 45" fill="none" xmlns="http://www.w3.org/2000/svg">
<path d="M23.0016 23.6087C27.019 23.6087 30.306 20.3217 30.306 16.3043C30.306 12.287 27.019 9 23.0016 9C18.9842 9 15.6973 12.287 15.6973 16.3043C15.6973 20.3217 18.9842 23.6087 23.0016 23.6087ZM23.0016 11.4348C25.6799 11.4348 27.8712 13.6261 27.8712 16.3043C27.8712 18.9826 25.6799 21.1739 23.0016 21.1739C20.3234 21.1739 18.132 18.9826 18.132 16.3043C18.132 13.6261 20.3234 11.4348 23.0016 11.4348Z" fill="white"/>
<path d="M23 25.4351C15.3304 25.4351 9 28.7655 9 36.4351C9 37.1655 9.48696 37.6525 10.2174 37.6525C10.9478 37.6525 11.4348 37.1655 11.4348 36.4351C11.4348 30.1046 16.6696 27.8698 23 27.8698C29.3304 27.8698 34.5652 30.1046 34.5652 36.4351C34.5652 37.1655 35.0522 37.6525 35.7826 37.6525C36.513 37.6525 37 37.1655 37 36.4351C37 28.7655 30.6696 25.4351 23 25.4351Z" fill="white"/>
</svg>
