<svg width="18" height="18" viewBox="0 0 18 18" fill="none" xmlns="http://www.w3.org/2000/svg">
<path d="M13.1716 0.753433L11.0887 0.75C8.74858 0.75 7.23629 2.34382 7.23629 4.81067V6.68291H5.14198C4.961 6.68291 4.81445 6.83363 4.81445 7.01953V9.73219C4.81445 9.9181 4.96117 10.0686 5.14198 10.0686H7.23629V16.9136C7.23629 17.0995 7.38284 17.25 7.56381 17.25H10.2963C10.4773 17.25 10.6238 17.0993 10.6238 16.9136V10.0686H13.0725C13.2535 10.0686 13.4001 9.9181 13.4001 9.73219L13.4011 7.01953C13.4011 6.93027 13.3665 6.84478 13.3052 6.78162C13.2438 6.71845 13.1603 6.68291 13.0734 6.68291H10.6238V5.09579C10.6238 4.33296 10.8008 3.9457 11.7681 3.9457L13.1713 3.94519C13.3521 3.94519 13.4987 3.79447 13.4987 3.60874V1.08988C13.4987 0.904318 13.3523 0.753776 13.1716 0.753433Z" fill="white"/>
</svg>
