<svg width="75" height="75" viewBox="0 0 75 75" fill="none" xmlns="http://www.w3.org/2000/svg">
<path d="M51.2998 33.6V29.9C51.2998 28.9 52.0998 28.05 53.1498 28.05H60.7998C61.7998 28.05 62.6498 28.85 62.6498 29.9V33.6M56.9498 18C59.1498 18 60.8998 19.8 60.8998 21.95C60.8998 24.1 59.0998 25.9 56.9498 25.9C54.7498 25.9 52.9998 24.1 52.9998 21.95C52.9998 19.8 54.7498 18 56.9498 18Z" stroke="#F68B33" stroke-miterlimit="10" stroke-linecap="round" stroke-linejoin="round"/>
<path d="M12.9 19.25C12.65 19.25 12.5 19.45 12.5 19.65V30.5C12.5 30.75 12.7 30.95 12.95 30.95H37C37.25 30.95 37.45 31 37.65 31.15L40.25 33.05L40.45 31.8C40.55 31.3 41 30.9 41.5 30.9H44.05C44.3 30.9 44.5 30.7 44.5 30.45V19.65C44.5 19.4 44.3 19.2 44.05 19.2L12.9 19.25Z" stroke="#F68B33" stroke-miterlimit="10" stroke-linecap="round" stroke-linejoin="round"/>
<path d="M12.5 57.1V53.9C12.5 52.9 13.3 52.05 14.35 52.05H22C23 52.05 23.85 52.85 23.85 53.9V57.1M22.1 45.95C22.1 48.15 20.3 49.9 18.15 49.9C16 49.9 14.2 48.1 14.2 45.95C14.2 43.8 16 42 18.15 42C20.35 42 22.1 43.8 22.1 45.95Z" stroke="#F68B33" stroke-miterlimit="10" stroke-linecap="round" stroke-linejoin="round"/>
<path d="M62.2004 43.25H31.1004C30.8504 43.25 30.6504 43.45 30.6504 43.7V54.55C30.6504 54.8 30.8504 55 31.1004 55H33.6504C34.1504 55 34.6004 55.4 34.7004 55.9L34.9004 57.15L37.5004 55.25C37.7004 55.1 37.9004 55.05 38.1504 55.05H62.2004C62.4504 55.05 62.6504 54.85 62.6504 54.6V43.65C62.6504 43.45 62.4504 43.25 62.2004 43.25Z" stroke="#F68B33" stroke-miterlimit="10" stroke-linecap="round" stroke-linejoin="round"/>
<path d="M15.8496 23.3501H39.3496" stroke="#F68B33" stroke-miterlimit="10" stroke-linecap="round" stroke-linejoin="round"/>
<path d="M15.8496 27.3501H34.3496" stroke="#F68B33" stroke-miterlimit="10" stroke-linecap="round" stroke-linejoin="round"/>
<path d="M34.3496 45.8501H40.3496" stroke="#F68B33" stroke-miterlimit="10" stroke-linecap="round" stroke-linejoin="round"/>
<path d="M46.8496 45.8501H56.8496" stroke="#F68B33" stroke-miterlimit="10" stroke-linecap="round" stroke-linejoin="round"/>
<path d="M37.3496 48.8501H53.8496" stroke="#EF4050" stroke-miterlimit="10" stroke-linecap="round" stroke-linejoin="round"/>
<path d="M34.3496 51.8501H46.3496" stroke="#EF4050" stroke-miterlimit="10" stroke-linecap="round" stroke-linejoin="round"/>
<path d="M55.3496 51.8501H58.8496" stroke="#EF4050" stroke-miterlimit="10" stroke-linecap="round" stroke-linejoin="round"/>
</svg>
