<svg width="30" height="30" viewBox="0 0 30 30" fill="none" xmlns="http://www.w3.org/2000/svg">
<path d="M29.4 15.3332C29.4 14.0999 29.2999 13.1999 29.0833 12.2666H15V17.8332H23.2666C23.1 19.2166 22.2 21.2999 20.2 22.6998L20.1719 22.8862L24.6248 26.3358L24.9333 26.3666C27.7666 23.7499 29.4 19.8999 29.4 15.3332Z" fill="#4285F4"/>
<path d="M15.0016 30.0001C19.0515 30.0001 22.4515 28.6667 24.9349 26.3668L20.2016 22.7C18.9349 23.5834 17.2349 24.2 15.0016 24.2C11.035 24.2 7.66832 21.5835 6.4682 17.9668L6.29229 17.9817L1.66211 21.5651L1.60156 21.7334C4.0682 26.6334 9.13488 30.0001 15.0016 30.0001Z" fill="#34A853"/>
<path d="M6.4666 17.9666C6.14994 17.0333 5.96668 16.0332 5.96668 15C5.96668 13.9666 6.14994 12.9666 6.44994 12.0333L6.44156 11.8345L1.75335 8.1936L1.59996 8.26656C0.58334 10.2999 0 12.5833 0 15C0 17.4166 0.58334 19.6999 1.59996 21.7332L6.4666 17.9666Z" fill="#FBBC05"/>
<path d="M15.0016 5.79996C17.8182 5.79996 19.7182 7.01662 20.8016 8.03336L25.0349 3.9C22.435 1.48334 19.0515 0 15.0016 0C9.13488 0 4.0682 3.36664 1.60156 8.2666L6.45154 12.0333C7.66832 8.41666 11.035 5.79996 15.0016 5.79996Z" fill="#EB4335"/>
</svg>
