<svg width="89" height="45" viewBox="0 0 89 45" fill="none" xmlns="http://www.w3.org/2000/svg">
<g clip-path="url(#clip0_31:476)">
<path d="M22.3442 14.6643H7.44824V21.9965H22.3442V14.6643Z" fill="#EF4050"/>
<path d="M7.448 21.9966H0V44H7.448V21.9966Z" fill="#EF4050"/>
<path d="M87.9927 14.6643H73.0967V21.9965H87.9927V14.6643Z" fill="#EF4050"/>
<path d="M73.0974 21.9966H65.6494V44H73.0974V21.9966Z" fill="#EF4050"/>
<path d="M28.416 0V14.6644V21.9966L35.864 14.6644V0H28.416Z" fill="#EF4050"/>
<path d="M50.7534 14.6643H35.8643V21.9965H50.7534V14.6643Z" fill="#EF4050"/>
<path d="M58.2009 21.9966H50.7529V44H58.2009V21.9966Z" fill="#EF4050"/>
<path d="M35.864 21.9966H28.416V44H35.864V21.9966Z" fill="#EF4050"/>
<path d="M0 21.9965H7.448V14.6643L0 21.9965Z" fill="#A1284B"/>
<path d="M65.6494 21.9965H73.0974V14.6643L65.6494 21.9965Z" fill="#A1284B"/>
<path d="M35.864 14.6643V21.9965H28.416L35.864 14.6643Z" fill="#A1284B"/>
<path d="M58.2009 21.9965H50.7529V14.6643L58.2009 21.9965Z" fill="#A1284B"/>
</g>
<path d="M84.6664 41.055H84.9745C85.3373 41.055 85.659 40.9405 85.659 40.6507C85.659 40.3609 85.4673 40.2261 85.0566 40.2261C84.9347 40.2214 84.8127 40.2327 84.6938 40.2598L84.6664 41.055ZM84.6664 42.6387H83.9818V39.8487C84.3408 39.7839 84.7054 39.7545 85.0703 39.7611C85.4126 39.7334 85.7556 39.8061 86.0561 39.97C86.1466 40.0446 86.2184 40.1387 86.2659 40.2451C86.3134 40.3515 86.3353 40.4672 86.3299 40.5833C86.3234 40.741 86.2609 40.8914 86.1534 41.0084C86.0458 41.1254 85.8999 41.2016 85.7412 41.2235V41.2572C85.881 41.3138 86.0029 41.4061 86.0944 41.5245C86.1858 41.643 86.2435 41.7834 86.2614 41.9311C86.2915 42.1663 86.3633 42.3944 86.4736 42.605H85.7891C85.6798 42.3929 85.6036 42.1657 85.5632 41.9311C85.5153 41.6279 85.3373 41.4863 84.9813 41.4863H84.6664V42.6387ZM82.9208 41.1763C82.9115 41.4669 82.962 41.7562 83.0693 42.0271C83.1765 42.2979 83.3383 42.5446 83.5448 42.7523C83.7513 42.96 83.9984 43.1245 84.2711 43.2358C84.5439 43.3472 84.8366 43.4031 85.1319 43.4003C85.4224 43.3996 85.7099 43.3413 85.977 43.2288C86.2442 43.1164 86.4856 42.9521 86.6868 42.7458C86.8881 42.5395 87.0451 42.2954 87.1484 42.0281C87.2517 41.7607 87.2993 41.4756 87.2882 41.1898C87.2882 40.9075 87.2318 40.6279 87.122 40.3671C87.0123 40.1063 86.8514 39.8693 86.6486 39.6697C86.4459 39.47 86.2051 39.3117 85.9402 39.2037C85.6752 39.0956 85.3913 39.04 85.1045 39.04C84.8178 39.04 84.5338 39.0956 84.2688 39.2037C84.0039 39.3117 83.7632 39.47 83.5604 39.6697C83.3576 39.8693 83.1968 40.1063 83.087 40.3671C82.9773 40.6279 82.9208 40.9075 82.9208 41.1898V41.1763ZM88.0207 41.1898C88.0371 41.7614 87.8797 42.3247 87.5688 42.8076C87.2578 43.2906 86.8075 43.6711 86.2755 43.9004C85.7434 44.1298 85.1539 44.1976 84.5826 44.095C84.0112 43.9924 83.4839 43.7242 83.0684 43.3248C82.6528 42.9253 82.3678 42.4128 82.2501 41.8529C82.1323 41.293 82.187 40.7112 82.4072 40.1821C82.6274 39.6531 83.0031 39.2008 83.4861 38.8832C83.9691 38.5657 84.5374 38.3974 85.1182 38.3998C85.4954 38.3936 85.87 38.461 86.2206 38.5981C86.5711 38.7353 86.8906 38.9395 87.1605 39.1989C87.4304 39.4584 87.6454 39.7679 87.793 40.1096C87.9407 40.4513 88.0181 40.8185 88.0207 41.1898" fill="#EC4252"/>
<defs>
<clipPath id="clip0_31:476">
<rect width="88" height="44" fill="white"/>
</clipPath>
</defs>
</svg>
