<svg width="75" height="75" viewBox="0 0 75 75" fill="none" xmlns="http://www.w3.org/2000/svg">
<path d="M34.7548 22.9131C46.1008 22.9131 55.2986 20.2581 55.2986 16.9829C55.2986 13.7078 46.1008 11.0527 34.7548 11.0527C23.4087 11.0527 14.2109 13.7078 14.2109 16.9829C14.2109 20.2581 23.4087 22.9131 34.7548 22.9131Z" stroke="#EF4050" stroke-miterlimit="10"/>
<path d="M41.5313 48.7942C41.5313 51.5898 36.2365 53.8348 29.6709 53.8348C23.1054 53.8348 17.8105 51.5898 17.8105 48.7942" stroke="#EF4050" stroke-miterlimit="10"/>
<path d="M57.628 31.1731C57.628 34.6888 48.1397 37.4845 36.4488 37.4845C24.7578 37.4845 15.2695 34.6465 15.2695 31.1731" stroke="#EF4050" stroke-miterlimit="10"/>
<path d="M19.082 20.9646C19.082 20.9646 23.3179 23.3367 22.8943 30.114C22.4707 36.8914 19.3785 40.7036 21.5812 48.9635C23.7838 57.2234 34.7547 64.382 34.7547 64.382C34.7547 64.382 31.2813 51.7168 37.8892 45.3631C44.4971 39.0093 51.698 37.315 53.816 27.9961C55.9339 18.6772 55.2985 16.9829 55.2985 16.9829" stroke="#EF4050" stroke-miterlimit="10"/>
<path d="M23.5293 18.0419C26.8333 17.2371 30.942 16.7288 35.5167 16.5593" stroke="#EF4050" stroke-miterlimit="10"/>
<path d="M33.9918 28.801C31.1962 28.674 28.5699 28.3774 26.2402 27.9539" stroke="#EF4050" stroke-miterlimit="10"/>
<path d="M60.0004 22.7437C60.0004 26.1323 50.1309 28.928 37.9316 28.928" stroke="#EF4050" stroke-miterlimit="10"/>
<path d="M25.8594 43.2451C25.8594 43.2451 27.1301 44.3041 29.6716 44.3888C32.2131 44.5159 33.9922 44.3888 33.9922 44.3888" stroke="#EF4050" stroke-miterlimit="10"/>
</svg>
