<?xml version="1.0" encoding="utf-8"?>
<!-- Generator: Adobe Illustrator 25.2.1, SVG Export Plug-In . SVG Version: 6.00 Build 0)  -->
<svg version="1.1" id="Layer_1" xmlns="http://www.w3.org/2000/svg" xmlns:xlink="http://www.w3.org/1999/xlink" x="0px" y="0px"
	 viewBox="0 0 190 165" enable-background="new 0 0 190 165" xml:space="preserve">
<path fill="#FFFFFF" d="M70.5,51L51.2,66.1L49,89l16,18.8l70.7,6.6l5.3-56.7L70.5,51z M134.7,113.1l-69-6.6L50.2,88.6l2.1-21.9
	L71,52.3l68.8,6.6L134.7,113.1z"/>
<g>
	<path fill-rule="evenodd" clip-rule="evenodd" fill="#FFFFFF" d="M132,90.1l-0.3-0.7h-0.2l-0.1,0.7h-0.2c0.1,0.1,0.3,0.2,0.5,0.2
		c0.2,0,0.4-0.1,0.6-0.2H132z"/>
	<path fill-rule="evenodd" clip-rule="evenodd" fill="#FFFFFF" d="M74,68.3c0.2-1.6-3.3-1.3-3.3-1.3l-0.3,2.2
		C70.4,69.2,73.8,70,74,68.3z"/>
	<path fill-rule="evenodd" clip-rule="evenodd" fill="#FFFFFF" d="M75.6,87.3c0.2-1.6-3.3-1.3-3.3-1.3L72,88.2
		C72,88.2,75.4,89,75.6,87.3z"/>
	<path fill-rule="evenodd" clip-rule="evenodd" fill="#FFFFFF" d="M71.8,91.9l-0.2,2.7c0,0,4.3,0.9,4.5-1
		C76.2,91.7,71.8,91.9,71.8,91.9z"/>
	<path fill-rule="evenodd" clip-rule="evenodd" fill="#FFFFFF" d="M71,52.3L52.3,66.7l-2.1,21.9l15.5,17.9l69,6.6l5.1-54.2L71,52.3z
		 M100.8,71.4c0.2-2.5,4.2-5.2,9.6-4.9c5.4,0.3,8.3,2.4,8.3,2.4l-2.7,3.9c0,0-0.4-0.4-2-1.1c-1.6-0.6-4.2-0.8-4.6,0
		c-0.4,0.8,3.7,1.6,6.1,2.4c2.4,0.8,3.8,3.5,2.6,6c-1.2,2.5-5,4-10.1,3.5c-5.2-0.4-8.9-2.4-8.9-2.4l3-4.4c1.1,1.1,5,2.5,6.8,2.2
		c1.9-0.3,0.9-1.4-0.7-1.7c-1.5-0.3-3.6-1-3.6-1C102.1,75.4,100.5,73.9,100.8,71.4z M84.1,64.1l15.6,1.5l-0.4,4.7l-7-0.7l-0.1,1.5
		l6.4,0.6L98.1,76l-6.4-0.6l-0.2,1.7l7.2,0.7l-0.4,4.4l-15.7-1.5L84.1,64.1z M55.9,80.6c-1.1-0.1-1.9-1.1-1.8-2.2
		c0.1-1.1,1.1-1.9,2.2-1.8c1.1,0.1,1.9,1.1,1.8,2.2C58,79.9,57,80.7,55.9,80.6z M63.3,62l11.4,1.1c0,0,7,0.9,7.1,4.4
		c0.1,3.5-3.3,4.2-3.3,4.2s4.2,1.3,3.7,4.7c-0.5,3.5-5.9,3.7-8.6,3.5c-2.7-0.2-11.9-1.2-11.9-1.2L63.3,62z M83.9,95.6
		c-0.5,3.5-5.9,3.7-8.6,3.5s-11.9-1.2-11.9-1.2L65,81.2l11.4,1c0,0,7,0.9,7.1,4.4s-3.3,4.2-3.3,4.2S84.4,92.1,83.9,95.6z M94.3,101
		c-10-1-9.8-7.3-9.8-7.3l0.9-10.6l8.1,0.7l-0.9,9.4c0,0-0.8,2.3,1.9,2.5c2.7,0.3,2.6-2.2,2.6-2.2l0.9-9.3l8.2,0.8l-1,11
		C105.2,96,104.2,102,94.3,101z M120.9,103.2l-8.3-0.8l0.7-7l-7.1-10.3l9.4,0.9l2.3,4.6l3-4.1l9.5,0.9l-8.8,8.7L120.9,103.2z
		 M133.1,89.4c-0.1,0.7-0.7,1.3-1.5,1.2c-0.7-0.2-1.2-0.8-1.2-1.5c0.1-0.7,0.7-1.3,1.5-1.2C132.6,88,133.2,88.6,133.1,89.4z
		 M132,74.3l-1,11.1l-8.4-0.8l0.9-11.2l-4.6-0.4l0.5-5.4l17.7,1.7l-0.5,5.4L132,74.3z"/>
	<path fill-rule="evenodd" clip-rule="evenodd" fill="#FFFFFF" d="M131.9,88.1c-0.6-0.1-1.1,0.4-1.1,1c-0.1,0.4,0.1,0.7,0.3,0.9
		l0.2-1.6l0.6,0.1c0.4,0,0.6,0.2,0.5,0.5c0,0.3-0.2,0.4-0.4,0.4l0.3,0.7c0.2-0.2,0.4-0.4,0.5-0.8C132.9,88.7,132.5,88.2,131.9,88.1z
		"/>
	<path fill-rule="evenodd" clip-rule="evenodd" fill="#FFFFFF" d="M132.1,88.8c0-0.2-0.1-0.2-0.3-0.2h-0.3l0.1,0.4h0.2
		C132,89,132.1,89,132.1,88.8z"/>
	<path fill-rule="evenodd" clip-rule="evenodd" fill="#FFFFFF" d="M74.5,74.5c0.1-1.9-4.3-1.7-4.3-1.7L70,75.5
		C70,75.5,74.3,76.4,74.5,74.5z"/>
</g>
</svg>
