<?xml version="1.0" encoding="utf-8"?>
<!-- Generator: Adobe Illustrator 25.2.1, SVG Export Plug-In . SVG Version: 6.00 Build 0)  -->
<svg version="1.1" id="Layer_1" xmlns="http://www.w3.org/2000/svg" xmlns:xlink="http://www.w3.org/1999/xlink" x="0px" y="0px"
	 viewBox="0 0 190 165" enable-background="new 0 0 190 165" xml:space="preserve">
<path fill="#4987CE" d="M95,122c-0.4,0-0.8,0-1.2,0l8.2-22.5h11.2c2,0,4.1-1.5,4.8-3.4l8.9-24.4c1.5-4-0.8-7.3-5.1-7.3h-15.6
	l-13.1,36h0l-7.4,20.4C68.1,116.7,55,100.9,55,82c0-18.3,12.4-33.8,29.2-38.5l-7.7,21.1h0l-12.7,35l8.5,0l10.8-29.7h6.4L78.7,99.5
	l8.5,0l10.1-27.7c1.5-4-0.8-7.3-5.1-7.3H85L93.2,42c0.6,0,1.2,0,1.8,0c22.1,0,40,17.9,40,40C135,104.1,117.1,122,95,122z
	 M119.2,69.8h-6.4l-8.9,24.5h6.4L119.2,69.8z"/>
</svg>
