<?xml version="1.0" encoding="utf-8"?>
<!-- Generator: Adobe Illustrator 25.2.1, SVG Export Plug-In . SVG Version: 6.00 Build 0)  -->
<svg version="1.1" id="Layer_1" xmlns="http://www.w3.org/2000/svg" xmlns:xlink="http://www.w3.org/1999/xlink" x="0px" y="0px"
	 viewBox="0 0 190 165" enable-background="new 0 0 190 165" xml:space="preserve">
<path fill="#FF5100" d="M33.7,88.4c0.8-1.3,1.6-2.7,2.3-4c3.1-5.5,6.1-10.8,12.9-13.7V65c-10,3.3-14,10.4-17.6,16.8
	c-0.7,1.3-1.4,2.5-2.2,3.8c-2.1,3.5-3.6,5.7-5.8,7c-2.3,1.4-5.8,2-11.3,2v5.4c6.7,0,11-0.8,14.1-2.8C29.3,95.2,31.3,92.3,33.7,88.4"
	/>
<path fill="#FF5100" d="M41.9,99.3c0-2.4,0.7-4.8,1.9-6.8c1.2-2.1,3-3.8,5.1-4.9v-5.9c-3.6,1.3-6.8,3.7-9,6.8
	c-2.2,3.1-3.4,6.9-3.4,10.8c0,0.2,0,0.4,0,0.6h5.4C41.9,99.7,41.9,99.5,41.9,99.3z"/>
<path fill="#36454D" d="M79,88.9c-2.4,0-4,1.7-4,4.1c0,2.4,1.7,4.1,4,4.1c2.4,0,4-1.7,4-4.1C83,90.6,81.3,88.9,79,88.9z M79,86.2
	c4,0,7,2.9,7,6.9c0,4-3,6.9-7,6.9c-4,0-7-2.9-7-6.9C72,89,75,86.2,79,86.2"/>
<path fill="#36454D" d="M91.6,99.6h-2.8V88.9h-2.9v-2.4h2.9v-0.8c0-3.4,1.9-4.9,4.5-4.9c0.8,0,1.5,0.1,2.3,0.2v2.6
	c-0.6-0.1-1.2-0.2-1.8-0.2c-1.5,0-2.1,0.7-2.1,2.4v0.6h3.8v2.4h-3.8V99.6z"/>
<path fill="#36454D" d="M102,99.7c-2.4,0-3.7-1.1-3.7-4v-6.9h-3.4v-2.4h3.4v-5.5h2.8v5.5h3.5v2.4h-3.5v6.7c0,0.9,0.4,1.4,1.4,1.4
	c0.7,0,1.2-0.1,2-0.2v2.6C103.7,99.6,102.9,99.7,102,99.7"/>
<path fill="#36454D" d="M112.1,86.2c1.9,0,3.6,0.7,4.9,1.9l-1.7,2.2c-1-0.9-2-1.4-3.2-1.4c-2.4,0-4,1.7-4,4.1c0,2.4,1.6,4.1,3.9,4.1
	c1.2,0,2.4-0.5,3.4-1.4L117,98c-1.3,1.3-3,1.9-5,1.9c-4.1,0-6.8-2.8-6.8-6.8C105.1,89,108,86.2,112.1,86.2"/>
<path fill="#36454D" d="M121.3,88.5c1-1.6,2.4-2.3,4.2-2.3c3.1,0,4.8,2,4.8,5.5v7.9h-2.9v-7.6c0-2-1-3.2-2.7-3.2
	c-2.3,0-3.4,1.5-3.4,4.6v6.2h-2.8V80.9h2.8V88.5z"/>
<path fill="#36454D" d="M138.9,88.9c-2.4,0-4,1.7-4,4.1c0,2.4,1.7,4.1,4,4.1s4-1.7,4-4.1C143,90.6,141.3,88.9,138.9,88.9z
	 M138.9,86.2c4,0,6.9,2.9,6.9,6.9c0,4-3,6.9-6.9,6.9c-4,0-6.9-2.9-6.9-6.9C132,89,134.9,86.2,138.9,86.2z"/>
<path fill="#36454D" d="M151.1,81c0-0.4-0.1-0.7-0.3-1c-0.2-0.3-0.5-0.5-0.8-0.7c-0.3-0.1-0.7-0.2-1.1-0.1c-0.4,0.1-0.7,0.2-0.9,0.5
	c-0.3,0.3-0.4,0.6-0.5,0.9c-0.1,0.4,0,0.7,0.1,1.1c0.1,0.3,0.4,0.6,0.7,0.8c0.3,0.2,0.7,0.3,1,0.3c0.2,0,0.5,0,0.7-0.1
	c0.2-0.1,0.4-0.2,0.6-0.4c0.2-0.2,0.3-0.4,0.4-0.6C151.1,81.5,151.1,81.3,151.1,81z M150.7,99.6h-2.8V86.5h2.8L150.7,99.6z"/>
<path fill="#36454D" d="M159.7,86.2c1.9,0,3.6,0.7,4.9,1.9l-1.7,2.2c-1-0.9-2-1.4-3.2-1.4c-2.4,0-4,1.7-4,4.1c0,2.4,1.6,4.1,3.9,4.1
	c1.2,0,2.4-0.5,3.4-1.4l1.6,2.3c-1.3,1.3-3,1.9-5,1.9c-4.1,0-6.8-2.8-6.8-6.8C152.7,89,155.6,86.2,159.7,86.2"/>
<path fill="#36454D" d="M171.6,88.7c-2.1,0-3.3,1.2-3.6,3.1h7C174.7,90,173.6,88.7,171.6,88.7z M171.6,86.2c4.1,0,6.4,2.9,6.4,6.9
	v0.8h-10.1v0c0.3,2.2,2,3.3,3.9,3.3c1.7,0,3-0.8,3.9-1.7l1.3,2.3c-1.1,1-2.8,2.1-5.2,2.1c-4.2,0-6.8-2.8-6.8-6.8
	C165,89.2,167.6,86.2,171.6,86.2"/>
<path fill="#36454D" d="M64.8,99.9c-3.2,0-5.4-1.6-6.1-4.5l0-0.1l2.7-1.2l0,0.1c0.5,1.8,1.6,2.7,3.5,2.7c1.8,0,2.9-0.9,2.9-2.3
	c0-1.7-1.4-2.1-3.6-2.9c-2.7-0.9-5.3-2.1-5.3-5.6c0-3.2,2.3-5.3,5.8-5.3c3.1,0,5.4,1.6,6.2,4.5l0,0.1l-2.7,1.2l0-0.1
	c-0.5-1.8-1.6-2.7-3.5-2.7c-1.8,0-2.9,0.9-2.9,2.3c0,1.7,1.4,2.1,3.6,2.9c2.7,0.9,5.2,2.1,5.2,5.6C70.7,97.8,68.4,99.9,64.8,99.9"/>
</svg>
