<?xml version="1.0" encoding="utf-8"?>
<!-- Generator: Adobe Illustrator 25.2.1, SVG Export Plug-In . SVG Version: 6.00 Build 0)  -->
<svg version="1.1" id="Layer_1" xmlns="http://www.w3.org/2000/svg" xmlns:xlink="http://www.w3.org/1999/xlink" x="0px" y="0px"
	 viewBox="0 0 190 165" enable-background="new 0 0 190 165" xml:space="preserve">
<path fill="#FFFFFF" d="M75.3,102.8c-6.2-4-14.7-4.7-28.3-0.9c-14.5,3.4-19.4,5.6-25.7,1.2c-2.4-2.2-3.3-5.6-2.7-10.6
	c1.5-8.2,5.6-16,12.9-24.7c4.1-4.5,7.8-8.4,12.8-10c3.8-1,3.5,2,3,2.4c-0.5,0-1.3,0.1-1.9,0.5c-0.5,0.4-1.9,1.7-2,3.4
	c-0.1,2.6,2.6,2.1,3.8,0.6c1.3-1.6,3.2-4.8,1.7-7.7c-0.6-1-1.7-1.8-3-2c-4.6-0.3-8.8,1.9-12.7,4.3c-8.6,6-15.4,14.2-19.3,23.2
	c-2.2,5.5-4.3,13.3-1.2,19.6c2.3,4.4,7.2,6.8,13,6.3c4.1-0.4,9-1.7,12.3-2.5s20.3-6.6,25.9,3.5c0,0,1.9-3.6,6.5-3.7
	c3.8-0.4,9.3,1.1,13.3,4C82.2,107.8,78.4,104.8,75.3,102.8z"/>
<path fill="#FFFFFF" d="M48.7,68.7c-3.2-2.1-9.6,1.9-14.7,8.7c-4.7,6.1-6.7,13.2-4.5,16.5c3.3,3.9,9.3-1.8,11.9-4.8l0.3-0.4
	c1.8-1.9,3.1-4.1,4.4-6.3c0,0,1.2-2,1.3-2.1c0.7-0.1,1.6-0.4,2.7-0.6c0,0-3.9,6.5-3.5,9.7c0.1,1,0,4.6,3.5,5.7
	c4.7,0.8,8.4-2.8,11.7-6c0,0,0.6-0.5,0.9-0.8c-0.1,0.3-0.2,0.7-0.2,0.7c-1.4,4.7,0.5,5.7,1.6,6.1c3.5,1,7.6-4,7.6-4
	c-0.1,1.6-0.4,2.9,1.3,4c1.6,0.6,3.2-0.3,4.4-1.1c4.4-3.1,7.9-7.9,10.8-12.1h-1.8c0,0-4.5,6.5-7.4,7.9c0,0-0.5,0.3-0.8,0.1
	c-0.4-0.3-0.2-1,0-1.5l11.2-19.5h-5.3c0,0-0.6,0.9-0.6,1c0,0-0.1-0.2-0.2-0.3C80,65.1,72.6,72.1,67,80.2c-2.2,3.1-4.9,6.6-7.7,9.1
	c0,0-4.2,3.9-6,1.1c-0.7-1.2-0.5-2.9-0.1-4c2.1-6,5.7-11.4,9.8-14.6c1.2-0.9,2.4-1.2,3-0.8c0.6,0.4,0.7,1.2,0.3,1.8
	c-1,0-1.7,0.3-2.3,0.9c-1.2,1.3-1.7,2.5-1.3,3.7c1.9,2.7,5.7-2.6,5.5-5.9c-0.1-1.2-0.7-2.3-1.6-2.8c-1.4-0.8-3.5-0.6-4.9,0
	c-1.8,0.7-4.7,3.1-6.4,5c-2.1,2.3-5.8,4.9-6.9,4.7C48.9,77.4,51.9,71.1,48.7,68.7z M74.2,78c1-1.4,4-5.2,4.8-5.9
	c2.5-2.2,3.4-1.2,3.5-0.5c-2.3,4.1-5,8.8-7.5,13l-0.8,1.2c-1.1,1.7-2.3,3.2-4.1,4.2c-0.3,0.1-0.7,0.1-1-0.1s-0.5-0.6-0.4-1
	C68.7,87.6,70,83.6,74.2,78z M45.4,80.5c0,0,0,0.1-0.1,0.2L43,84.5c-1.4,1.9-3.1,4.2-5.3,5.3c-0.6,0.2-1.5,0.4-2-0.2
	c-1-1.1-0.5-2.7-0.1-4l0.1-0.5c1.2-3.1,3-5.9,4.8-8.4h0.1l0,0c1.1,2.1,3.2,3.1,4.8,3.6l0,0C45.5,80.3,45.5,80.4,45.4,80.5z
	 M47.6,76.1l-1,2.4c-0.1,0.1-0.4,0.1-0.6,0l-0.5-0.1C44,77.9,43,77,42.6,75.8c-0.5-2.2,1.4-3.9,2.3-4.6c0.8-0.6,2-0.8,2.8-0.3
	c0.4,0.5,0.6,1.2,0.6,1.9C48.3,73.9,47.9,75,47.6,76.1z M114.4,83.2c-0.5-1.1-1.7-1.8-3-1.7c-4.2,0.4-8.3,3.8-10.4,8.8
	c-1.1,2.5-1.7,4.6-2.1,8c1.3-1.5,4-4,7-5.3c0,0,0.4-3.2,2.5-6c0.8-1.2,2.4-3.1,4.2-2.6c1.6,0.5,1,4.8-1.1,9
	c-1.5,3.1-3.9,6.1-6.2,8.2c-2.1,1.8-5.2,3.9-7.9,2.3c-1.7-1-2.6-3.1-2.4-5.8c0.8-7.7,4.3-14.3,9.4-21.8c5.2-7,10.9-14.1,18.6-17.9
	c1.6-0.8,3-1,4.3-0.5c0,0-7.2,4-10.7,11.3c-0.9,1.9-2.1,4.4-0.9,6.6c0.6,1.2,1.8,1.3,2.7,1.2c4.2-1,7-4.9,9.2-8.5
	c1.3-2.7,2.4-5.5,2.4-8.5c0-0.4,0-0.9-0.1-1.2c2-1.1,6.2,0.8,6.2,0.8c3.2,1.1,10.1,6.4,12.5,7.4c1.1-1.3,3-3.3,4-4.3l-1.5-0.9
	c-2.4-1.5-5-2.9-7.5-4.3c-5.7-3.1-10.4-2-12.8-1.2c-0.9,0.3-1.8,0.6-1.8,0.6c-1.8-1.9-4.7-1.7-6.8-1.2c-7.7,2.2-14.8,7.6-22.5,16.9
	c-5.6,7.3-9.1,13.6-11,19.8c-1.4,4.2-1.9,10.4,1.6,14c3,3.1,6.9,2.4,9.7,1.3c6-3,11.5-9.4,14.2-16.7
	C114.8,88.6,115.6,85.6,114.4,83.2z M128.3,60.1c-0.8,9.2-7.9,14.5-9.7,15c-1.1,0.2-2.9-0.3-1.3-4.1c2.4-5.2,6.5-9.6,10.9-11.8
	C128.3,59.5,128.3,59.8,128.3,60.1z M170.5,61.3c-3.8,2.2-7.8,3.6-12.6,3.1c-1.3,1.5-2.6,3-3.8,4.6c6.7,1.7,13.9-2.1,17.9-5.7
	c4.2-3.7,6.4-8.3,6.4-8.3S175.2,58.6,170.5,61.3z M98.2,68.9h-5l-2.8,4.6h5L98.2,68.9z"/>
<path fill="#FFFFFF" d="M157.9,103.2c-0.5,0.4-1.3,0.1-1-0.8c0.7-2.1,3.5-6.5,3.5-6.5l7.8-13.9h-5.4c-0.3,0.4-0.8,1.4-0.8,1.4
	c-0.2-0.4-1-1.3-1.3-1.5c-1.3-0.8-3.2-0.4-4.6,0.3c-5.8,3.4-10,10-13.3,15.2c0,0-3.5,5.8-5.4,6.2c-1.5,0.1-1.4-1.9-1.3-2.4
	c0.6-3.4,1.9-6.7,3.3-9.6c2.8-1.9,6-4.5,8.8-7.2c6.3-6,11.5-12.8,12.3-14.3c0,0-0.8,0.2-1.8,0.2C153.9,77,144,86.8,141,88.2
	c1.3-3.2,9.9-18.4,17.2-25.7l1.1-1.1c1.8-1.7,3.6-3.5,5-3.8c0.2,0,0.3,0,0.5,0.4c0.1,1.3-0.4,2.3-1,3.5l-0.8,1.7
	c0,0,1.1-0.2,1.9-0.5c0.9-1.6,1.8-3.5,1.5-5.7c-0.1-0.7-0.6-1.2-1.3-1.4c-2.2-0.4-4.5,1.2-6.4,2.5h-0.1
	c-9.8,7.7-18.1,18.7-25.3,33.8c-0.5,0.4-2.5,0.9-2.9,0.6c0.7-1.5,1.6-3.4,2.1-5.6c0.1-0.6,0.2-1.2,0.2-1.9c0-1.3-0.3-2.6-1.5-3.4
	c-1.4-0.7-3.1-0.4-4.2,0.2c-5.2,2.1-9,7.4-11.8,11.8c-1.5,2.8-3,5.7-3.4,9.1c-0.3,2.7,0.3,4.4,1.8,5.2c1.6,0.8,3.5,0,4.3-0.4
	c5.2-2.8,8.9-8.3,11.8-13.3c0.1,0,1.7-0.1,2.9-0.4l0,0c-0.1,0.2-0.7,2.1-0.7,2.1c-1.8,5.4-2.7,9-0.9,11.2c2.5,3,6.6-0.1,9.9-4.3
	c-0.7,5,1.9,5.8,3.8,5.4c2.3-0.6,4.8-3,6-4.3c-0.4,1.5-0.3,4.1,1.8,4.3c1.4,0.3,2.5-0.5,3.7-1.2c4.4-2.4,9.6-10.3,11-12.6h-1.8
	C163.5,97.6,161,101.4,157.9,103.2z M118.5,102.7c-0.3-0.4-0.4-0.9-0.4-1.4c-0.1-3,3.2-8.4,5.5-11.3l0,0c1,2.1,3.1,3.4,4.4,4
	C126.4,97.7,120.9,105.4,118.5,102.7z M129,92.4c-0.2,0.1-2.9-0.8-3.4-3.3c-0.4-2.2,1.1-3.9,2.5-4.7c0.6-0.5,1.6-0.7,2.2-0.4
	c0.6,0.4,0.8,1.2,0.8,2c0,0.5-0.1,1-0.1,1.5v0.1C130.5,89.3,129.8,90.9,129,92.4z M150.8,101.7l-0.5,0.5c-0.7,0.7-1.5,1.4-2.4,1
	c-0.3-0.1-0.4-0.4-0.5-0.7c0-1.9,0.8-3.6,1.6-5.3l0.2-0.4c2.4-4,5.1-8.6,9.2-11.8c0.7-0.5,1.4-0.9,2.2-0.6c0.2,0.2,0.4,0.5,0.4,0.7
	c0,0.1-0.1,0.3-0.1,0.4c-1.1,1.8-2.2,3.7-3.2,5.6C155.6,94.7,153.5,98.4,150.8,101.7z"/>
</svg>
