<?xml version="1.0" encoding="utf-8"?>
<!-- Generator: Adobe Illustrator 25.2.1, SVG Export Plug-In . SVG Version: 6.00 Build 0)  -->
<svg version="1.1" id="Layer_1" xmlns="http://www.w3.org/2000/svg" xmlns:xlink="http://www.w3.org/1999/xlink" x="0px" y="0px"
	 viewBox="0 0 190 165" enable-background="new 0 0 190 165" xml:space="preserve">
<path fill-rule="evenodd" clip-rule="evenodd" fill="#C63842" d="M74.2,54l5.9-5.1l4.9,4.1l4.7-4.1l4.7,3.9l4.5-3.9L104,53v10.3
	l-6.5,5.3v-13c0,0-0.2-1.9-3-1.9v29.8H88v-28c0,0,0-1.9-2.8-1.9v29.8h-6.7V57.1C78.6,57.1,78.8,53.4,74.2,54z"/>
<path fill-rule="evenodd" clip-rule="evenodd" fill="#27569F" d="M107.9,61.4l-10.4,8.4v8.2l6.7,5.8l8.7-7l-0.4-0.4
	c0,0-2.4,2.5-4.3,2.1c-3.2-0.4-4.1-2.5-4.1-5.6v-7c0,0,2.4,2.7,4.1,2.7c1.6,0,3.1-1.4,4.7-3.1L107.9,61.4z"/>
<path fill-rule="evenodd" clip-rule="evenodd" fill="#27569F" d="M70.6,43.2l-0.5,0.1L70,43.8c0,0.2-3,18.7,0,45.4l0.1,0.5l0.5,0.1
	c23.1,4.9,45.3,0,45.6,0l0.5-0.1l0.1-0.5c0-0.2,3-18.8,0-45.5l-0.1-0.5l-0.5-0.1C93.1,38.3,70.8,43.2,70.6,43.2z M115.3,44.5
	c0.8,7.6,1.2,15.2,1.3,22.9c0,11.5-1,19.2-1.2,21.1c-3.3,0.7-23.2,4.3-43.9,0c-0.9-8.7-1.3-16.5-1.3-23c0-11.5,1-19.1,1.2-21
	C74.7,43.9,94.7,40.3,115.3,44.5z M47.1,118.6L47,98h-4.7l-3.3,8.4L35.8,98h-4.7L31,118.6l3.5,0v-12.4l3.8,9h1.6l3.8-9v12.4
	L47.1,118.6z M119.7,118.6L119.6,98h-4.7l-3.3,8.4l-3.2-8.4h-4.7l-0.1,20.7l3.5,0v-12.4l3.8,9h1.6l3.8-9v12.4L119.7,118.6z M126,98
	h-4.1l-0.1,20.7l4.1,0V98z M57.2,103.6v3.8c0,0-2-1.2-3.5-0.5c-1.3,0.5-2.2,2.4-2.2,4.5c0,2.1,1.3,4.2,2.8,4.2c1.5,0,3-0.9,3-0.9
	l1.3,1.6c0,0-1.9,2.5-4.8,2.5c-3.2,0-5.6-3.2-5.6-7.3C48.1,107.4,51,102.7,57.2,103.6z M71.6,97.8v4.7c0,0-2.5-2.6-5.3-1.6
	c-1.8,0.7-3.3,3.8-3,7.7c0.2,3,2.3,6.6,4.4,6.6c2.1,0,3.8-1.6,3.8-1.6l1.5,1.6c0,0-1.8,3.7-5.9,3.8c-4.4,0.1-8-4.4-8-10.1
	C59,103,62.9,95.5,71.6,97.8z M140,97.8v4.7c0,0-2.5-2.6-5.3-1.6c-1.8,0.7-3.3,3.8-3,7.7c0.2,3,2.3,6.6,4.4,6.6
	c2.1,0,3.8-1.6,3.8-1.6l1.5,1.6c0,0-1.8,3.7-5.9,3.8c-4.4,0.1-8-4.4-8-10.1C127.3,103,131.2,95.5,140,97.8z"/>
<path fill-rule="evenodd" clip-rule="evenodd" fill="#27569F" d="M83.2,108.3c0,4.2-1.6,7.6-3.5,7.6c-1.9,0-3.5-3.4-3.5-7.6
	c0-4.2,1.6-7.6,3.5-7.6C81.7,100.8,83.2,104.1,83.2,108.3z M79.8,97.7c-4.1,0-7.4,4.8-7.4,10.7c0,5.9,3.3,10.7,7.4,10.7
	s7.4-4.8,7.4-10.7C87.2,102.4,83.9,97.7,79.8,97.7z M95.3,97.8c7.5,0,6.7,10.1,2.7,11.4l3.4,9.3h-4.2l-3.3-8.4h-1.6v8.7h-4.1v-21
	H95.3z M92.5,101.6v4.5c0,0,4.3,1,4.3-2.2C96.8,100.8,93.2,101.5,92.5,101.6z M150.4,105.3c1.3-3.7,3.5-3.6,4-3.5l-0.2-3.7
	c0,0-2-0.7-3.6,1.2c-1.2,1.4-3.3,4.1-4.3,5.3V98h-4.1l-0.1,20.7l4.1,0v-6.4l1.6-2.2l3.9,8.5h4.5L150.4,105.3z M157.2,96.8l0.3,1.5
	l1.5-0.2l-1.3,0.8l0.6,1.4l-1.1-1l-1.1,1l0.6-1.4l-1.3-0.8l1.5,0.2L157.2,96.8z"/>
</svg>
