<?xml version="1.0" encoding="utf-8"?>
<!-- Generator: Adobe Illustrator 25.2.1, SVG Export Plug-In . SVG Version: 6.00 Build 0)  -->
<svg version="1.1" id="Layer_1" xmlns="http://www.w3.org/2000/svg" xmlns:xlink="http://www.w3.org/1999/xlink" x="0px" y="0px"
	 viewBox="0 0 190 165" enable-background="new 0 0 190 165" xml:space="preserve">
<path fill="#FF5A5F" d="M99.2,70.1c0,1.7-1.4,3.1-3.1,3.1s-3.1-1.4-3.1-3.1c0-1.7,1.3-3.1,3.1-3.1C97.8,67,99.2,68.4,99.2,70.1z
	 M86.3,76.4c0,0.3,0,0.8,0,0.8s-1.5-1.9-4.7-1.9c-5.2,0-9.3,4-9.3,9.5c0,5.5,4,9.5,9.3,9.5c3.2,0,4.7-2,4.7-2v0.8
	c0,0.4,0.3,0.7,0.7,0.7h3.9V75.7c0,0-3.6,0-3.9,0C86.6,75.7,86.3,76,86.3,76.4z M86.3,87.9c-0.7,1.1-2.2,2-3.9,2
	c-3.1,0-5.4-1.9-5.4-5.2c0-3.3,2.4-5.2,5.4-5.2c1.7,0,3.2,1,3.9,2V87.9z M93.7,75.7h4.6v18.1h-4.6V75.7z M162.7,75.2
	c-3.2,0-4.7,1.9-4.7,1.9V67h-4.6v26.8c0,0,3.6,0,3.9,0c0.4,0,0.7-0.3,0.7-0.7v-0.8c0,0,1.5,2,4.7,2c5.2,0,9.3-4,9.3-9.5
	S167.9,75.2,162.7,75.2z M161.9,89.9c-1.8,0-3.2-0.9-3.9-2v-6.4c0.7-1,2.3-2,3.9-2c3.1,0,5.4,1.9,5.4,5.2
	C167.4,87.9,165,89.9,161.9,89.9z M151,83v10.8h-4.6V83.6c0-3-1-4.2-3.6-4.2c-1.4,0-2.8,0.7-3.8,1.8v12.6h-4.6V75.7h3.7
	c0.4,0,0.7,0.3,0.7,0.7v0.8c1.3-1.4,3.1-1.9,4.9-1.9c2,0,3.7,0.6,5.1,1.7C150.4,78.3,151,80,151,83z M123.3,75.2
	c-3.2,0-4.7,1.9-4.7,1.9V67H114v26.8c0,0,3.6,0,3.9,0c0.4,0,0.7-0.3,0.7-0.7v-0.8c0,0,1.5,2,4.7,2c5.2,0,9.3-4,9.3-9.5
	C132.6,79.2,128.5,75.2,123.3,75.2z M122.5,89.9c-1.8,0-3.2-0.9-3.9-2v-6.4c0.7-1,2.3-2,3.9-2c3.1,0,5.4,1.9,5.4,5.2
	C127.9,87.9,125.6,89.9,122.5,89.9z M110,75.2c1.4,0,2.1,0.2,2.1,0.2v4.3c0,0-3.8-1.3-6.3,1.4v12.6h-4.6V75.7c0,0,3.6,0,3.9,0
	c0.4,0,0.7,0.3,0.7,0.7v0.8C106.7,76.1,108.5,75.2,110,75.2z M62,92.1c-0.2-0.6-0.5-1.2-0.7-1.7c-0.4-0.9-0.8-1.7-1.1-2.5l0,0
	c-3.3-7.2-6.9-14.5-10.6-21.7l-0.1-0.3c-0.4-0.7-0.8-1.5-1.2-2.3c-0.5-0.9-1-1.8-1.7-2.6c-1.5-1.9-3.8-3-6.1-3
	c-2.4,0-4.6,1.1-6.2,2.9c-0.7,0.9-1.3,1.8-1.7,2.6c-0.4,0.8-0.8,1.5-1.2,2.3l-0.1,0.3c-3.7,7.2-7.3,14.5-10.6,21.7l0,0.1
	c-0.3,0.8-0.7,1.6-1.1,2.5c-0.2,0.5-0.5,1.1-0.7,1.7c-0.6,1.8-0.8,3.5-0.6,5.2c0.5,3.6,2.9,6.6,6.3,8c1.3,0.5,2.5,0.8,3.9,0.8
	c0.4,0,0.9,0,1.3-0.1c1.6-0.2,3.2-0.7,4.8-1.6c2-1.1,3.8-2.7,6-5c2.1,2.3,4,3.9,6,5c1.6,0.9,3.2,1.4,4.8,1.6c0.4,0,0.9,0.1,1.3,0.1
	c1.3,0,2.7-0.2,3.9-0.8c3.4-1.3,5.7-4.4,6.3-8C62.8,95.6,62.6,93.9,62,92.1z M40.3,94.6c-2.6-3.3-4.3-6.3-4.9-8.9
	c-0.2-1.1-0.3-2.1-0.1-2.9c0.1-0.8,0.4-1.4,0.8-2c0.9-1.3,2.5-2.1,4.2-2.1c1.8,0,3.4,0.8,4.2,2.1c0.4,0.6,0.7,1.2,0.8,2
	c0.1,0.9,0.1,1.9-0.1,2.9C44.6,88.2,42.9,91.3,40.3,94.6z M59.5,96.9c-0.3,2.5-2,4.7-4.4,5.6c-1.2,0.5-2.4,0.6-3.7,0.5
	c-1.2-0.1-2.4-0.5-3.7-1.2c-1.7-1-3.5-2.5-5.5-4.7c3.2-3.9,5.1-7.4,5.8-10.6c0.3-1.5,0.4-2.8,0.2-4.1c-0.2-1.2-0.6-2.3-1.3-3.3
	c-1.5-2.2-4-3.4-6.8-3.4c-2.8,0-5.3,1.3-6.8,3.4c-0.7,1-1.1,2.1-1.3,3.3c-0.2,1.2-0.1,2.6,0.2,4.1c0.7,3.2,2.7,6.8,5.8,10.7
	c-2,2.2-3.8,3.7-5.5,4.7c-1.3,0.7-2.5,1.1-3.7,1.2c-1.3,0.1-2.5,0-3.7-0.5c-2.4-1-4-3.1-4.4-5.6c-0.1-1.2,0-2.4,0.4-3.7
	c0.1-0.5,0.4-1,0.6-1.5c0.3-0.8,0.7-1.6,1.1-2.4l0-0.1c3.3-7.2,6.9-14.5,10.6-21.6l0.1-0.3c0.4-0.7,0.8-1.5,1.2-2.2
	c0.4-0.8,0.8-1.5,1.3-2.1c1-1.2,2.4-1.8,3.8-1.8c1.5,0,2.8,0.6,3.8,1.8c0.5,0.6,1,1.3,1.3,2.1c0.4,0.7,0.8,1.5,1.2,2.2l0.1,0.3
	c3.7,7.2,7.2,14.5,10.5,21.6v0c0.4,0.8,0.7,1.6,1.1,2.4c0.2,0.6,0.5,1.1,0.6,1.5C59.6,94.4,59.7,95.6,59.5,96.9z"/>
</svg>
