<?xml version="1.0" encoding="utf-8"?>
<!-- Generator: Adobe Illustrator 25.2.1, SVG Export Plug-In . SVG Version: 6.00 Build 0)  -->
<svg version="1.1" id="Layer_1" xmlns="http://www.w3.org/2000/svg" xmlns:xlink="http://www.w3.org/1999/xlink" x="0px" y="0px"
	 viewBox="0 0 190 165" enable-background="new 0 0 190 165" xml:space="preserve">
<path fill="#007DC1" d="M53.8,73.3c-7.6,0-13.8,6.2-13.8,13.8S46.2,101,53.8,101s13.8-6.2,13.8-13.8S61.5,73.3,53.8,73.3z
	 M53.8,94.1c-3.8,0-6.9-3.1-6.9-6.9c0-3.8,3.1-6.9,6.9-6.9s6.9,3.1,6.9,6.9C60.8,90.9,57.7,94.1,53.8,94.1z"/>
<path fill="#007DC1" d="M78.1,91.8c0-1.1,1.3-1.6,2.1-0.9c3.5,3.5,9.2,9.6,9.2,9.6c0.1,0.1,0.2,0.2,0.5,0.3c0.1,0.1,0.4,0.1,0.6,0.1
	h6.2c1.1,0,1.5-1.3,0.9-2L87.4,88.4l-0.6-0.5c-1.2-1.4-1-2,0.3-3.4l8.2-9.2c0.5-0.7,0.2-1.9-1-1.9h-5.7c-0.2,0-0.4,0-0.6,0.1
	c-0.3,0.1-0.5,0.2-0.6,0.3c0,0-4.6,4.9-7.4,7.9c-0.8,0.8-2.1,0.3-2.1-0.9V65.1c0-0.8-0.7-1.1-1.2-1.1h-4.6c-0.8,0-1.2,0.5-1.2,1
	v34.8c0,0.8,0.7,1,1.2,1h4.6c0.7,0,1.2-0.5,1.2-1v-0.4L78.1,91.8L78.1,91.8z"/>
<path fill="#007DC1" d="M115.9,99.6l-0.5-4.6c-0.1-0.6-0.7-1.1-1.3-1c-0.4,0.1-0.7,0.1-1.1,0.1c-3.7,0-6.7-2.9-6.9-6.5
	c0-0.1,0-0.2,0-0.4v-5.7c0-0.7,0.6-1.3,1.3-1.3h6.2c0.4,0,1.1-0.4,1.1-1.2v-4.4c0-0.9-0.6-1.3-1-1.3h-6.2c-0.7,0-1.3-0.5-1.3-1.2v-7
	c0-0.4-0.3-1.1-1.2-1.1h-4.6c-0.6,0-1.1,0.4-1.1,1.1c0,0,0,22.4,0,22.5c0.2,7.5,6.3,13.4,13.8,13.4c0.6,0,1.2-0.1,1.8-0.1
	C115.5,100.8,116,100.3,115.9,99.6z"/>
<path fill="#007DC1" d="M149.2,93.8c-3.9,0-4.5-1.4-4.5-6.7c0,0,0,0,0-0.1V74.5c0-0.4-0.3-1.2-1.2-1.2h-4.6c-0.6,0-1.2,0.5-1.2,1.2
	v0.6c-2-1.2-4.3-1.8-6.8-1.8c-7.6,0-13.8,6.2-13.8,13.8s6.2,13.8,13.8,13.8c3.4,0,6.6-1.3,9-3.3c1.3,2,3.4,3.3,6.7,3.3
	c0.6,0,3.5,0.1,3.5-1.3v-4.9C150,94.3,149.7,93.8,149.2,93.8z M130.9,94.1c-3.8,0-6.9-3.1-6.9-6.9s3.1-6.9,6.9-6.9
	c3.8,0,6.9,3.1,6.9,6.9C137.8,91,134.7,94.1,130.9,94.1z"/>
</svg>
