<?xml version="1.0" encoding="utf-8"?>
<!-- Generator: Adobe Illustrator 25.2.1, SVG Export Plug-In . SVG Version: 6.00 Build 0)  -->
<svg version="1.1" id="Layer_1" xmlns="http://www.w3.org/2000/svg" xmlns:xlink="http://www.w3.org/1999/xlink" x="0px" y="0px"
	 viewBox="0 0 190 165" enable-background="new 0 0 190 165" xml:space="preserve">
<path fill="#FFFFFF" d="M56.8,83.2l-2.9,13h9.7l0.5-2.2c0,0-6.8,0-6.9,0c0-0.1,0.7-3.3,0.8-3.4c0.1,0,5.4,0,5.4,0l0.5-2.1
	c0,0-5.3,0-5.4,0c0-0.1,0.7-3.2,0.7-3.3c0.1,0,6.8,0,6.8,0l0.5-2.1L56.8,83.2L56.8,83.2z"/>
<path fill="#FFFFFF" d="M81.1,92.3c0-0.3-0.8-9.1-0.8-9.1h-2.8c0,0-4.5,8.9-4.6,9.1c0-0.3-0.7-9.1-0.7-9.1h-3l1.2,13h2.9
	c0,0,4.5-8.9,4.6-9.2c0,0.3,0.8,9.2,0.8,9.2h2.9l6.9-13H86C85.9,83.2,81.3,92.1,81.1,92.3z"/>
<path fill="#FFFFFF" d="M97.1,91.3c0-0.2-1.2-8.1-1.2-8.1h-4.3l-2.9,13h2.4c0,0,2.3-10.4,2.4-10.8c0.1,0.4,1.5,10.8,1.5,10.8h1.5
	c0,0,6-10.3,6.3-10.7c-0.1,0.5-2.4,10.7-2.4,10.7h2.9l2.9-13h-4.3C101.9,83.2,97.2,91.1,97.1,91.3z"/>
<path fill="#FFFFFF" d="M116.1,83c-4.4,0-7.1,3.4-7.8,6.6c-0.2,1-0.6,3.4,0.8,5.1c0.9,1.1,2.2,1.6,4,1.6c3.8,0,7-2.7,7.8-6.7
	c0.5-2,0.2-3.8-0.8-5C119.2,83.6,117.9,83,116.1,83z M117.9,89.6c-0.4,1.9-0.9,2.7-1.4,3.2c-0.5,0.7-1.6,1.4-3,1.4
	c-0.8,0-1.5-0.3-1.9-0.8c-0.6-0.7-0.7-2.1-0.3-3.8c0.7-3.1,2.2-4.7,4.3-4.7c1.2,0,1.9,0.4,2.2,1.3C118.3,87.5,118,88.9,117.9,89.6z"
	/>
<path fill="#FFFFFF" d="M135,83.2c0,0-1.9,8.6-2,8.8c-0.1-0.2-3.9-8.8-3.9-8.8H126l-2.9,13h2.3c0,0,2-9.1,2.1-9.3
	c0.2,0.4,4.3,9.3,4.3,9.3h2.6l2.9-13H135z"/>
<path fill="#FFFFFF" d="M140.8,83.2l-0.5,2.2c0,0,3.8,0,3.9,0c0,0.1-2.4,10.8-2.4,10.8h3l2.4-10.8c0.1,0,3.9,0,3.9,0l0.5-2.2H140.8z
	"/>
<path fill="#FFFFFF" d="M40.5,80.5h3l4.6,11.6l2.5-11.6h2.7l-3.5,15.7h-3.1l-4.5-11.4l-2.6,11.4H37L40.5,80.5z"/>
<path opacity="0.5" fill="#FFFFFF" d="M129.8,60.1h20.6l-8.5-6.1L129.8,60.1z"/>
<path fill="#FFFFFF" d="M152.5,62l0.1-0.4l-2.1-1.5h-20.6L92.6,78.9l-0.4,1.6c5.6-2.6,34.8-16,54.9-18.6
	C149.5,61.7,151.2,61.7,152.5,62z"/>
</svg>
