<?xml version="1.0" encoding="utf-8"?>
<!-- Generator: Adobe Illustrator 25.2.1, SVG Export Plug-In . SVG Version: 6.00 Build 0)  -->
<svg version="1.1" id="Layer_1" xmlns="http://www.w3.org/2000/svg" xmlns:xlink="http://www.w3.org/1999/xlink" x="0px" y="0px"
	 viewBox="0 0 190 165" enable-background="new 0 0 190 165" xml:space="preserve">
<path fill-rule="evenodd" clip-rule="evenodd" d="M83.2,96.7c-7.3,0-11.8-8-11.8-15.5c0-7.5,4.5-15.5,11.8-15.5
	c7.3,0,11.8,8,11.8,15.5C95,88.7,90.5,96.7,83.2,96.7z M83.2,67c-4.7,0-6.7,8.4-6.7,14.2c0,5.8,2,14.2,6.7,14.2
	c4.7,0,6.7-8.4,6.7-14.2C89.9,75.4,87.9,67,83.2,67z"/>
<path fill-rule="evenodd" clip-rule="evenodd" d="M111.5,95.6c0,0.7-0.3,0.9-0.7,0.9c-0.5,0-0.7-0.4-0.9-0.9L99.4,76.8
	c-0.4-0.7-0.5-1-0.6-1s-0.1,0.1-0.1,0.9v15.1c0,1.9,0.2,2.8,1.8,3.2c0.8,0.2,1.4,0.1,1.4,0.6c0,0.2,0,0.5-0.5,0.5
	c-1,0-2.1-0.2-3.3-0.2c-1.1,0-1.7,0.2-2.6,0.2c-0.6,0-0.9-0.1-0.9-0.6c0-0.3,0.2-0.5,1.1-0.6c1.5-0.1,1.8-0.6,1.8-4.2V73.7
	c0-1.3-0.2-1.3-1.3-1.6c-0.9-0.2-1.1-0.3-1.1-0.6c0-0.3,0.2-0.5,0.8-0.5c0.4,0,0.7,0.1,2.4,0.1c1.3,0,1.7-0.1,2.1-0.1
	c0.5,0,0.7,0.6,1.5,2.1l7.9,14.6c0.3,0.5,0.5,0.9,0.6,0.9c0.2,0,0.2-0.1,0.2-0.8V75.6c0-2.6-0.5-3.2-1.7-3.4c-0.7-0.1-1.1,0-1.1-0.6
	c0-0.5,0.4-0.6,0.8-0.6c0.5,0,1.1,0.2,2.6,0.2c1.4,0,1.7-0.2,2.3-0.2c0.5,0,0.6,0.2,0.6,0.5c0,0.5-0.4,0.6-1.1,0.6
	c-1.1,0.1-1.4,0.8-1.4,1.7V95.6z"/>
<path fill-rule="evenodd" clip-rule="evenodd" d="M115.7,73.6c0-1-0.3-1.3-1.5-1.5c-0.8-0.1-1.1-0.1-1.1-0.6c0-0.4,0.3-0.5,1.1-0.5
	c0.4,0,1.3,0.2,6.3,0.2c4.2,0,6-0.2,7.2-0.2c0.7,0,0.9,0.2,0.9,0.8v5c0,0.5-0.2,0.7-0.4,0.7c-0.6,0-0.4-0.2-1.3-2.2
	c-1.1-2.4-2.2-3.2-5.2-3.2c-1.9,0-2.1,0.2-2.1,1.1v8c0,0.6,0.1,0.7,1.1,0.7c3.3,0,3.4,0,4.2-1.5c0.6-1.3,0.6-1.8,1.1-1.8
	c0.4,0,0.5,0.2,0.5,0.7c0,0.8-0.2,2.2-0.2,3.4c0,1.5,0.2,2.5,0.2,3.3c0,0.7-0.1,1.1-0.6,1.1c-0.6,0-0.6-0.8-1-2.2
	c-0.6-1.8-0.7-1.9-3.5-1.9c-1.6,0-1.7,0-1.7,0.7v7.6c0,2.8,0.5,3.7,3.2,3.7c2.6,0,3.9-1.1,4.9-3.9c0.8-2.1,0.8-2.3,1.1-2.3
	c0.4,0,0.4,0.1,0.4,0.9v5.6c0,0.6-0.2,0.7-0.9,0.7c-1.1,0-3-0.2-7-0.2c-4.5,0-5.6,0.2-7.5,0.2c-0.7,0-0.8-0.2-0.8-0.5
	c0-0.4,0.1-0.6,0.7-0.6c1.7-0.3,2.1-0.6,2.1-1.8L115.7,73.6L115.7,73.6z M139.7,96.6c-6.1,0-9.9-6.7-9.9-13c0-6.3,3.8-13,9.9-13
	c6.1,0,9.9,6.7,9.9,13C149.5,89.8,145.7,96.6,139.7,96.6z M139.7,71.6c-3.9,0-5.6,7-5.6,11.9c0,4.9,1.7,11.9,5.6,11.9
	c3.9,0,5.6-7,5.6-11.9C145.3,78.7,143.6,71.6,139.7,71.6z M156,93.5c0,0.8,0.2,1.1,1.1,1.5c0.4,0.2,0.6,0.1,0.7,0.6
	c0,0.4-0.2,0.5-0.6,0.5c-0.7,0-1.3-0.2-3.2-0.2c-2.4,0-2.9,0.2-3.6,0.2c-0.4,0-0.6-0.2-0.6-0.6c0-0.4,0.2-0.5,0.6-0.6
	c1.5-0.2,1.7-0.4,1.7-2.5V73.5c0-1-0.3-1.3-0.9-1.4c-0.8-0.1-1.3-0.3-1.3-0.6c0-0.3,0.3-0.6,0.8-0.6c0.5,0,0.9,0.2,3.5,0.2
	c2.2,0,2.6-0.2,3.2-0.2c0.6,0,0.7,0.1,0.7,0.4c0,0.5-0.1,0.7-1.2,0.7c-0.8,0-0.9,0.2-0.9,1v8.5h0.1c4.6-6.2,6.3-8.1,6.3-8.8
	c0-0.4-0.2-0.7-0.9-0.8c-1-0.1-1.2-0.2-1.3-0.5c0-0.4,0.3-0.6,0.8-0.6c0.9,0,1.4,0.2,2.8,0.2c1.5,0,2.3-0.2,2.8-0.2
	c0.4,0,0.6,0.1,0.6,0.5c0,0.2-0.2,0.4-1,0.6c-1.6,0.3-2.2,1.3-6.7,7.2c6.5,14.4,6,14.8,7.8,15.7c0.4,0.2,0.7,0.2,0.7,0.6
	c0,0.5-0.2,0.6-0.8,0.6c-0.5,0-0.9-0.2-3.1-0.2c-2.2,0-3,0.2-3.3,0.2c-0.4,0-0.6-0.2-0.6-0.6c0-0.4,0.3-0.5,0.7-0.5
	c0.8,0,1.1-0.4,1.1-0.9c0-0.4-0.3-0.8-2.8-6.5c-2-4.5-2.1-4.9-2.3-4.9c-0.1,0-0.9,0.9-0.9,1.2L156,93.5L156,93.5z"/>
<path fill-rule="evenodd" clip-rule="evenodd" fill="#0097D5" d="M42,62.4l3.2,0l-1.5-1.7L42,62.4z M38.9,65.5l6.7,0l-3.5-1.9
	l-1.4,0.1L38.9,65.5z M38,66.6l-1.6,1.5h9.4l-4.3-1.5H38z M35.2,69.4L33.5,71h12.4l-5.4-2L35.2,69.4z M32.3,72.2l-1.7,1.7h15.3
	L39.6,72L32.3,72.2z M29.3,75.1l-1.6,1.7h18.2l-7.3-2L29.3,75.1z M26.6,78L25,79.5h20.5l-7.3-1.9L26.6,78z M23.3,81.2L22,82.6h23.5
	l-7.5-2L23.3,81.2z M23.2,84.1l1.4,1.3h20.8l-7.2-1.9L23.2,84.1z M26.2,86.9l1.2,1.3h17.7l-6.4-1.7L26.2,86.9z M29,89.9l1.5,1.4
	h14.9l-6.5-1.9L29,89.9z M31.6,92.4l1.4,1.5h12.3l-5.8-1.7L31.6,92.4z M34.3,95l1.7,1.9h8.9l-4.8-1.8L34.3,95z M37,97.7l1.8,1.8
	l5.8,0l-3.8-1.8H37z M39.9,100.7l1.6,1.7h2.4l-2.2-1.7H39.9z M42.5,103.3l1.7,1.7v-1.8L42.5,103.3z M44.4,60.8h0.8L44.4,60V60.8z
	 M45.6,62.6l0.7,0.9H48l-0.9-0.9H45.6z M46,65.6l1.5,0.6h3.1L50,65.6L46,65.6z M46.7,68.2l2,0.9l4.5-0.2l-0.7-0.7L46.7,68.2z
	 M46.8,71.1l2.4,0.9l7.1-0.2l-0.7-0.8L46.8,71.1z M46.8,74l3.4,1l8.9-0.2L58.2,74H46.8z M46.9,76.9l3.8,1.1l11.2-0.3l-0.8-0.8
	L46.9,76.9z M46.7,79.6l4.3,1.2l13.8-0.3l-0.9-0.8H46.7z M46.8,82.5l4.5,1.2l14.6-0.5l0.7-0.7H46.8z M46.8,85.3l3.5,1.2L63,86.1
	l0.8-0.7H46.8z M46.4,88.2l3.9,1.1l10-0.4l0.8-0.6H46.4z M46.4,91.1l2.9,0.9l8.1-0.3l0.6-0.6L46.4,91.1z M46.4,94.1l2.1,0.8l5.8-0.1
	l0.7-0.6L46.4,94.1z M46,96.9l2.2,0.8h3.1l0.8-0.8L46,96.9z M45.3,99.6l1.9,0.8h1.5l0.8-0.8H45.3z M44.9,102.6l0.9,0.8l0.9-0.8
	L44.9,102.6z"/>
</svg>
