<?xml version="1.0" encoding="utf-8"?>
<!-- Generator: Adobe Illustrator 25.2.1, SVG Export Plug-In . SVG Version: 6.00 Build 0)  -->
<svg version="1.1" id="Layer_1" xmlns="http://www.w3.org/2000/svg" xmlns:xlink="http://www.w3.org/1999/xlink" x="0px" y="0px"
	 viewBox="0 0 190 165" enable-background="new 0 0 190 165" xml:space="preserve">
<g>
	<path fill="#FFFFFF" d="M74.7,69.9c-2.2,0-2.9,2.1-2.9,4h5.8C77.6,71.7,76.9,69.9,74.7,69.9z"/>
	<path fill="#FFFFFF" d="M143.2,112.9c-0.1-0.1-0.2-0.1-0.3-0.2c0.3,0,0.6-0.1,0.7-0.3c0.2-0.2,0.3-0.4,0.3-0.7
		c0-0.2-0.1-0.4-0.2-0.5c-0.1-0.1-0.2-0.3-0.4-0.3c-0.2-0.1-0.5-0.1-0.9-0.1h-1.2v3.5h0.6v-1.5h0.3c0.2,0,0.3,0,0.5,0.1
		c0.1,0.1,0.3,0.4,0.6,0.8l0.3,0.6h0.7l-0.4-0.7C143.5,113.3,143.3,113.1,143.2,112.9z M142.5,112.3h-0.7v-1.1h0.7
		c0.3,0,0.5,0,0.5,0.1c0.1,0.1,0.2,0.1,0.2,0.2c0.1,0.1,0.1,0.2,0.1,0.3c0,0.2-0.1,0.3-0.2,0.4C143,112.3,142.8,112.3,142.5,112.3z"
		/>
	<path fill="#FFFFFF" d="M144.2,109.6c-0.5-0.3-1-0.4-1.6-0.4c-0.6,0-1.1,0.1-1.6,0.4c-0.5,0.3-0.9,0.7-1.2,1.2s-0.4,1.1-0.4,1.7
		c0,0.6,0.1,1.1,0.4,1.6s0.7,0.9,1.2,1.2s1,0.4,1.6,0.4c0.6,0,1.1-0.1,1.6-0.4s0.9-0.7,1.2-1.2c0.3-0.5,0.4-1.1,0.4-1.6
		c0-0.6-0.1-1.1-0.4-1.7C145.1,110.3,144.7,109.9,144.2,109.6z M145,113.9c-0.3,0.4-0.6,0.8-1,1c-0.4,0.3-0.9,0.4-1.3,0.4
		c-0.5,0-0.9-0.1-1.3-0.4c-0.4-0.2-0.8-0.6-1-1c-0.2-0.4-0.3-0.9-0.3-1.4s0.1-0.9,0.4-1.4c0.2-0.4,0.6-0.8,1-1
		c0.4-0.2,0.9-0.4,1.3-0.4c0.5,0,0.9,0.1,1.3,0.4c0.4,0.2,0.7,0.6,1,1c0.2,0.4,0.3,0.9,0.3,1.4C145.3,113,145.2,113.4,145,113.9z"/>
	<path fill="#FFFFFF" d="M27,49l13,61.3l1-0.5c13.8-7.2,27.6-6.8,36.7-5.2c9.9,1.8,16.6,5.3,16.7,5.3l0.4,0.2l0.4-0.2
		c16.3-7.2,29.7-6.8,38.1-5.2c9.1,1.8,14.5,5.3,14.5,5.3l1,0.7l0.3-1.2L162.3,49H27z M62.8,86.4H43.7V66.3h7.6v15h11.5V86.4z
		 M75.6,82.1c2.2,0,3.8-0.6,4.2-2.4h6.3c-0.8,4.6-4,7.3-11.1,7.3c-7.8,0-11.9-4-11.9-10.7s4.3-10.7,11.5-10.7
		c7.7,0,11.5,4.9,11.5,10.7c0,0.4,0,0.9-0.1,1.2H71.5C71.5,80.3,73.1,82.1,75.6,82.1z M100.3,86.4H94L84,66.1h8.8l5.4,11.7h0.1
		l5.4-11.7h6.3L100.3,86.4z M118.6,86.4H111V66.1h7.6V86.4z M125.6,67.7l-2.6,3.2h-1.1l1.2-3.5h-2.4v-4.6h4.9V67.7z M135.6,86.9
		c-7,0-9.6-3.1-9.6-6.8V80h6.3c0,1.7,1.3,2.6,3.3,2.6c1.7,0,2.6-0.6,2.6-1.7c0-2.9-12.1-0.1-12.1-8.3c0-4.3,4.1-6.9,10.5-6.9
		c5.7,0,9.2,2.8,9.2,6.2H140c0-0.9-1.2-1.9-3.3-1.9s-2.9,0.7-2.9,1.4c0,3.2,12.7,0.1,12.7,8.4C146.5,83.8,143.5,86.9,135.6,86.9z"/>
</g>
</svg>
