<?xml version="1.0" encoding="utf-8"?>
<!-- Generator: Adobe Illustrator 25.2.1, SVG Export Plug-In . SVG Version: 6.00 Build 0)  -->
<svg version="1.1" id="Layer_1" xmlns="http://www.w3.org/2000/svg" xmlns:xlink="http://www.w3.org/1999/xlink" x="0px" y="0px"
	 viewBox="0 0 190 165" enable-background="new 0 0 190 165" xml:space="preserve">
<path fill="#FFFFFF" d="M116.9,63.9v32.2h9.7v-4.9h-3.2V59h-6.5V63.9z"/>
<path fill="#FFFFFF" d="M33,91.2h3.3V75.6H33v-4.3l3.3-0.5v-4.3c0-5.2,1.1-7.5,7.8-7.5c1.4,0,3.2,0.2,4.6,0.5l-0.9,5.3
	c-1-0.2-1.5-0.2-2.2-0.2c-2.4,0-2.9,0.2-2.9,2.5v3.7h4.9v4.8h-4.9v15.5H46V96H33V91.2L33,91.2z"/>
<path fill="#FFFFFF" d="M113.6,89.6c-1,0.2-1.9,0.2-2.5,0.2c-2.7,0.1-2.4-0.8-2.4-3.3V75.6h5.1v-4.8h-5.1V59h-6.5v28.8
	c0,5.7,1.4,8.2,7.5,8.2c1.4,0,3.4-0.4,4.9-0.7L113.6,89.6z"/>
<path fill="#FFFFFF" d="M153.8,91.2c1.4,0,2.5,1.1,2.5,2.4c0,1.4-1.1,2.4-2.5,2.4s-2.5-1.1-2.5-2.4
	C151.4,92.3,152.5,91.2,153.8,91.2z M153.8,95.7c1.1,0,2.1-0.9,2.1-2.1c0-1.1-0.9-2-2.1-2c-1.1,0-2,0.9-2,2
	C151.8,94.8,152.7,95.7,153.8,95.7z M154.3,94.8l-0.5-0.7h-0.3v0.7H153v-2.4h1c0.6,0,1,0.3,1,0.8c0,0.4-0.2,0.7-0.5,0.7l0.6,0.8
	L154.3,94.8L154.3,94.8z M153.4,93.6h0.4c0.3,0,0.4-0.1,0.4-0.4s-0.2-0.3-0.4-0.3h-0.5L153.4,93.6L153.4,93.6z"/>
<path fill="#FFFFFF" d="M94.1,75.6v-0.9c-2-0.4-3.9-0.4-5-0.4c-3,0-3.4,1.6-3.4,2.5c0,1.2,0.4,1.9,3.7,2.6c4.8,1.1,9.6,2.2,9.6,8.1
	c0,5.6-2.9,8.5-9,8.5c-4.1,0-8-0.9-11-1.6v-4.8h4.9v0.9c2.1,0.4,4.3,0.4,5.5,0.4c3.2,0,3.7-1.7,3.7-2.6c0-1.3-0.9-1.9-3.9-2.5
	C83.5,84.7,79,82.8,79,77c0-5.5,3.6-7.6,9.7-7.6c4.1,0,7.2,0.6,10.3,1.4v4.8C99,75.6,94.1,75.6,94.1,75.6z"/>
<path fill="#FFFFFF" d="M64.3,79.9l-0.5-0.5l-2.5,2.2c-0.1,0-0.3-0.1-0.4-0.1c-0.7,0-1.2,0.6-1.2,1.3c0,0.7,0.5,1.3,1.2,1.3
	s1.2-0.6,1.2-1.3c0-0.1,0-0.3-0.1-0.4L64.3,79.9z"/>
<path fill="#FFFFFF" d="M74.2,89.6V69.5h-6.5v1.9c-1.3-0.8-2.8-1.4-4.4-1.7l0,0v-2.2h0.8v-1.6h-6.5v1.6h0.8v2.2l0,0
	c-6.2,1.1-10.9,6.6-10.9,13.1c0,7.3,6,13.3,13.3,13.3c2.5,0,4.9-0.7,6.9-1.9l1.2,1.9h6.8v-6.5L74.2,89.6L74.2,89.6z M61.3,89.6v-0.8
	h-0.8v0.8c-3.5-0.2-6.3-3-6.4-6.5h0.8v-0.8h-0.8c0.2-3.5,3-6.2,6.4-6.4v0.8h0.8v-0.8c3.4,0.2,6.2,2.9,6.4,6.2v0.2H67v0.8h0.8v0.2
	C67.5,86.7,64.7,89.4,61.3,89.6z"/>
<path fill="#FFFFFF" d="M142.9,70.8h13.3v4.8H153l-8.2,20.1c-2.3,5.7-6.2,11-12.1,11c-1.4,0-3.4-0.2-4.7-0.5l0.6-5.9
	c0.9,0.2,2,0.3,2.6,0.3c2.7,0,5.8-1.7,6.8-4.6l-8.3-20.4h-3.2v-4.8h13.4v4.8h-3.2l4.7,11.6l4.7-11.6h-3.2L142.9,70.8L142.9,70.8z"/>
</svg>
