<?xml version="1.0" encoding="utf-8"?>
<!-- Generator: Adobe Illustrator 25.2.1, SVG Export Plug-In . SVG Version: 6.00 Build 0)  -->
<svg version="1.1" id="Layer_1" xmlns="http://www.w3.org/2000/svg" xmlns:xlink="http://www.w3.org/1999/xlink" x="0px" y="0px"
	 viewBox="0 0 190 165" enable-background="new 0 0 190 165" xml:space="preserve">
<path fill="#FFC300" d="M110.1,50.4c7.3,0,13.3,31.2,13.3,69.6H134c0-41.4-10.7-75-23.9-75c-7.5,0-14.2,10.1-18.6,25.9
	C87.1,55.1,80.4,45,72.9,45C59.7,45,49,78.6,49,120h10.6c0-38.5,5.9-69.6,13.3-69.6c7.3,0,13.3,28.8,13.3,64.3h10.6
	C96.8,79.1,102.8,50.4,110.1,50.4z M139.4,114.6c1.4,0,2.6,1.2,2.6,2.7c0,1.5-1.2,2.7-2.6,2.7c-1.4,0-2.7-1.2-2.7-2.7
	C136.7,115.8,137.9,114.6,139.4,114.6z M139.4,119.6c1.2,0,2.2-1,2.2-2.3c0-1.3-0.9-2.3-2.2-2.3c-1.2,0-2.2,1-2.2,2.3
	C137.2,118.6,138.1,119.6,139.4,119.6z M138.3,115.8h1.2c0.7,0,1.1,0.3,1.1,0.9c0,0.6-0.3,0.8-0.8,0.9l0.9,1.4h-0.5l-0.8-1.3h-0.5
	v1.3h-0.5L138.3,115.8z M138.8,117.1h0.5c0.4,0,0.8,0,0.8-0.5c0-0.4-0.4-0.5-0.7-0.5h-0.6V117.1z"/>
</svg>
