<?xml version="1.0" encoding="utf-8"?>
<!-- Generator: Adobe Illustrator 25.2.1, SVG Export Plug-In . SVG Version: 6.00 Build 0)  -->
<svg version="1.1" id="Layer_1" xmlns="http://www.w3.org/2000/svg" xmlns:xlink="http://www.w3.org/1999/xlink" x="0px" y="0px"
	 viewBox="0 0 190 165" enable-background="new 0 0 190 165" xml:space="preserve">
<path fill="#FFFFFF" d="M172,73l-3.7,10.4c-0.7,1.9-1,2.9-1.6,4.7h-0.1c-0.5-1.5-0.9-2.8-1.5-4.6L161.5,73h-4.3l7.4,19.2
	c-0.2,0.4-0.3,0.8-0.5,1.3c-0.6,1.5-2.1,2.5-3.7,2.5h-1.8v3.3h1.9c3,0,5.8-1.8,6.9-4.7c2.3-5.9,6.3-15.9,8.6-21.6
	C176,73,172,73,172,73z"/>
<path fill="#FFFFFF" d="M69.9,88.5c0,7-3.2,10.7-9.6,10.7c-4.8,0-7.7-2.5-8.7-6.3h3.9c0.7,1.8,2,3.3,4.9,3.3c4.4,0,6-2.7,6-8
	c0,0,0,0-0.1,0c-0.9,1.6-3.1,3.1-6.4,3.1c-5.4,0-8.9-3.9-8.9-9.4c0-5.7,3.7-9.6,8.9-9.6c3.3,0,5.4,1.4,6.4,3c0-0.4,0-0.8,0-1.2v-1.2
	H70v15.6H69.9z M54.9,81.9c0,3.7,2.1,6.4,5.7,6.4c3.2,0,5.7-2.3,5.7-6.5c0-3.8-2.2-6.3-5.7-6.3S54.9,78,54.9,81.9z"/>
<path fill="#FFFFFF" d="M75.9,83.5c0.1,3.4,2.3,6,6,6c2.6,0,3.9-1.2,4.9-2.9h3.7c-1.1,3.5-4.1,6-8.8,6c-5.9,0-9.6-4-9.6-10
	s3.9-10.3,9.6-10.3c6.3,0,9.2,4.8,9.2,9.9v1.2L75.9,83.5L75.9,83.5z M87.1,80.6c-0.3-3-2.2-5.2-5.4-5.2c-3,0-5.3,2-5.7,5.2H87.1z"/>
<path fill="#FFFFFF" d="M96.9,73v2.5c0.6-1.8,2.5-2.9,4.7-2.9c0.5,0,0.7,0,0.9,0.1v3.4c-0.3-0.1-0.9-0.1-1.3-0.1
	c-3.5,0-4.1,2.6-4.1,6.4v10h-3.7v-16c0-1.2,0-2.3,0-3.4H96.9L96.9,73z"/>
<path fill="#FFFFFF" d="M140.6,89.4c-1,1.6-2.9,3.2-6.1,3.2c-4.5,0-6.7-2.7-6.7-7.7V73h3.7v10.6c0,3.8,1.2,6,4.3,6
	c4,0,4.7-3.6,4.7-7.8V73h3.7v16.3c0,1,0,1.9,0,2.9h-3.6L140.6,89.4L140.6,89.4z"/>
<path fill="#FFFFFF" d="M152.4,73h3.6v2.9h-3.6v11.6c0,1.8,0.9,2.4,2.3,2.4c0.2,0,0.7,0,0.9-0.1v2.7c-0.5,0.1-0.9,0.1-1.4,0.1
	c-3.4,0-5.6-1.1-5.6-5V75.8h-2.9V73h2.9v-5.2h3.7V73H152.4z"/>
<path fill="#FFFFFF" d="M17.8,85.2H14v7h3.8V85.2z"/>
<path fill="#FFFFFF" d="M28.5,67.3C26.4,66.2,25,66,21.6,66H14v15.9h3.8h0.5h3.2c3,0,5.3-0.2,7.2-1.5c2.2-1.4,3.3-3.8,3.3-6.5
	C32.1,70.9,30.7,68.5,28.5,67.3z M22.4,78.6h-4.6v-9.2h4.3c4,0,5.9,1.3,5.9,4.5C28.1,77.3,25.7,78.6,22.4,78.6z"/>
<path fill="#FFFFFF" d="M104.8,66h6.4c9.6,0.1,14.2,4.8,14.3,13.2c0,7.2-3.7,12.9-13.6,13h-7L104.8,66L104.8,66z M108.7,88.9h2.2
	c7,0,10.6-2.7,10.6-9.8c0-6.3-3.6-9.9-10.2-9.9c-1.3,0-2.6,0-2.6,0V88.9z"/>
<path fill="#FFFFFF" d="M45.5,92.2c-0.1-0.8-0.1-1.2-0.2-2.6c-1.5,2.1-3.4,3-6.5,3c-4,0-7-2-7-5.6c0-4.1,4-5.5,9.1-6.2
	c1.3-0.2,2.7-0.3,4-0.4c0-3.8-2.1-5-4.3-5S36.8,77,36.8,79h-3.6c0-3.9,3.1-6.5,7.5-6.5s7.8,1.8,7.8,8.9v3.7c0,3.1,0.1,5.4,0.5,7.1
	H45.5L45.5,92.2z M35.9,87c0,1.8,1.5,2.9,3.8,2.9c3.4,0,5.3-2.1,5.3-5.8c0-0.5,0-0.8,0-1C38.7,83.7,35.9,84.3,35.9,87z"/>
</svg>
