<?xml version="1.0" encoding="utf-8"?>
<!-- Generator: Adobe Illustrator 25.2.1, SVG Export Plug-In . SVG Version: 6.00 Build 0)  -->
<svg version="1.1" id="Layer_1" xmlns="http://www.w3.org/2000/svg" xmlns:xlink="http://www.w3.org/1999/xlink" x="0px" y="0px"
	 viewBox="0 0 190 165" enable-background="new 0 0 190 165" xml:space="preserve">
<path fill="#010101" d="M51.2,66.1L70.5,51l70.5,6.7l-5.3,56.7L65,107.8L49,89L51.2,66.1z"/>
<path fill-rule="evenodd" clip-rule="evenodd" fill="#F6EB16" d="M52.3,66.7L71,52.3l68.8,6.6l-5.1,54.2l-69-6.6L50.2,88.6
	L52.3,66.7z"/>
<path fill-rule="evenodd" clip-rule="evenodd" fill="#010101" d="M84.1,64.1l15.6,1.5l-0.4,4.7l-7-0.7l-0.1,1.5l6.4,0.6L98.1,76
	l-6.4-0.6l-0.2,1.7l7.2,0.7l-0.4,4.4l-15.7-1.5L84.1,64.1z"/>
<path fill-rule="evenodd" clip-rule="evenodd" fill="#010101" d="M102.1,76.8l-3,4.4c0,0,3.7,2,8.9,2.4c5.1,0.5,8.9-1,10.1-3.5
	c1.2-2.5-0.2-5.2-2.6-6c-2.4-0.8-6.5-1.6-6.1-2.4c0.4-0.8,3-0.6,4.6,0c1.6,0.7,2,1.1,2,1.1l2.7-3.9c0,0-2.9-2.1-8.3-2.4
	c-5.4-0.3-9.4,2.4-9.6,4.9c-0.3,2.5,1.3,4,3.8,4.9c0,0,2.1,0.7,3.6,1c1.6,0.3,2.6,1.4,0.7,1.7C107.1,79.3,103.2,77.9,102.1,76.8z"/>
<path fill-rule="evenodd" clip-rule="evenodd" fill="#010101" d="M123.5,73.4l-4.6-0.4l0.5-5.4l17.7,1.7l-0.5,5.4l-4.6-0.4L131,85.4
	l-8.4-0.8L123.5,73.4z"/>
<path fill-rule="evenodd" clip-rule="evenodd" fill="#010101" d="M85.4,83.1l8.1,0.7l-0.9,9.4c0,0-0.8,2.3,1.9,2.5
	c2.7,0.3,2.6-2.2,2.6-2.2l0.9-9.3l8.2,0.8l-1,11c0,0-1,6-10.9,5c-10-1-9.8-7.3-9.8-7.3L85.4,83.1z"/>
<path fill-rule="evenodd" clip-rule="evenodd" fill="#010101" d="M115.6,86l2.3,4.6l3-4.1l9.5,0.9l-8.8,8.7l-0.7,7.1l-8.3-0.8l0.7-7
	l-7.1-10.3L115.6,86z"/>
<path fill-rule="evenodd" clip-rule="evenodd" fill="#010101" d="M80.2,90.8c0,0,3.4-0.7,3.3-4.2c-0.1-3.5-7.1-4.4-7.1-4.4L65,81.2
	l-1.6,16.7c0,0,9.2,1,11.9,1.2c2.7,0.2,8.1,0,8.6-3.5C84.4,92.1,80.2,90.8,80.2,90.8z M72.3,86c0,0,3.5-0.3,3.3,1.3
	c-0.2,1.7-3.6,0.9-3.6,0.9L72.3,86z M71.6,94.6l0.2-2.7c0,0,4.4-0.2,4.3,1.7C75.9,95.5,71.6,94.6,71.6,94.6z"/>
<path fill="#010101" d="M78.5,71.7c0,0,3.4-0.7,3.3-4.2c-0.1-3.5-7.1-4.4-7.1-4.4L63.3,62l-1.6,16.7c0,0,9.2,1,11.9,1.2
	c2.7,0.2,8.1,0,8.6-3.5C82.7,73,78.5,71.7,78.5,71.7z M70.7,67c0,0,3.5-0.3,3.3,1.3c-0.2,1.7-3.6,0.9-3.6,0.9L70.7,67z M70,75.5
	l0.2-2.7c0,0,4.4-0.2,4.3,1.7C74.3,76.4,70,75.5,70,75.5z"/>
<path fill="#010101" d="M59.2,78.9c-0.2,1.7-1.7,3-3.4,2.8c-1.7-0.2-3-1.7-2.8-3.4c0.2-1.7,1.7-3,3.4-2.8
	C58.1,75.6,59.4,77.1,59.2,78.9z"/>
<path fill="#FFFFFF" d="M58.1,78.8c-0.1,1.1-1.1,1.9-2.2,1.8c-1.1-0.1-1.9-1.1-1.8-2.2c0.1-1.1,1.1-1.9,2.2-1.8
	C57.4,76.7,58.2,77.7,58.1,78.8z"/>
<path fill="#010101" d="M130.4,89.1c0.1-0.7,0.7-1.3,1.5-1.2c0.7,0.1,1.3,0.7,1.2,1.5c-0.1,0.7-0.7,1.3-1.5,1.2
	C130.9,90.4,130.4,89.8,130.4,89.1z M132.8,89.3c0.1-0.6-0.3-1.1-0.9-1.2c-0.6-0.1-1.1,0.4-1.1,1c-0.1,0.6,0.3,1.1,0.9,1.2
	C132.2,90.3,132.7,89.9,132.8,89.3z M131.3,88.4l0.6,0.1c0.4,0,0.6,0.2,0.5,0.5c0,0.3-0.2,0.4-0.4,0.4l0.3,0.7l-0.3,0l-0.3-0.7
	l-0.2,0l-0.1,0.7l-0.3,0L131.3,88.4z M131.6,89l0.2,0c0.2,0,0.3,0,0.3-0.2c0-0.2-0.1-0.2-0.3-0.2l-0.3,0L131.6,89z"/>
</svg>
