<?xml version="1.0" encoding="utf-8"?>
<!-- Generator: Adobe Illustrator 25.2.1, SVG Export Plug-In . SVG Version: 6.00 Build 0)  -->
<svg version="1.1" id="Layer_1" xmlns="http://www.w3.org/2000/svg" xmlns:xlink="http://www.w3.org/1999/xlink" x="0px" y="0px"
	 viewBox="0 0 190 165" enable-background="new 0 0 190 165" xml:space="preserve">
<path fill="#FFFFFF" d="M94.7,98.6c-15.1,0-27.4-12.3-27.4-27.4c0-15.2,12.3-27.4,27.4-27.4c15.2,0,27.4,12.3,27.4,27.4
	C122.2,86.3,109.9,98.6,94.7,98.6z M94.7,30C72,30,53.6,48.4,53.6,71.1s18.4,41.1,41.1,41.1s41.2-18.4,41.2-41.1S117.4,30,94.7,30z"
	/>
<path fill="#FFFFFF" d="M94.7,57c-7.8,0-14.1,6.3-14.1,14.1s6.3,14.1,14.1,14.1s14.1-6.3,14.1-14.1C108.8,63.3,102.5,57,94.7,57z"/>
<path fill="#FFFFFF" d="M57.5,123H53v-2.8h12.4v2.8h-4.5v12.3h-3.3V123H57.5z"/>
<path fill="#FFFFFF" d="M64,135.3h3.4l1.2-3.4h5.7l1.1,3.4h3.5l-5.7-15.1h-3.4L64,135.3z M71.4,123.9L71.4,123.9l1.9,5.6h-3.9
	L71.4,123.9z"/>
<path fill="#FFFFFF" d="M80.1,135.3h3.3v-5.9h3.3c1.7,0,2.3,0.7,2.5,2.3c0.2,1.2,0.1,2.7,0.5,3.6H93c-0.6-0.8-0.6-2.6-0.6-3.6
	c-0.1-1.5-0.6-3.1-2.2-3.5l0,0c1.7-0.7,2.4-2,2.4-3.8c0-2.3-1.7-4.2-4.4-4.2H80L80.1,135.3z M83.4,122.8H87c1.5,0,2.3,0.6,2.3,2.1
	s-0.8,2.2-2.3,2.2h-3.6V122.8z"/>
<path fill="#FFFFFF" d="M105.9,133.6c-1.2,1.5-2.7,2.1-4.2,2.1c-4.7,0-7.4-3.5-7.4-7.9c0-4.5,2.8-8,7.4-8c3.1,0,6,1.9,6.4,5.3h-3.2
	c-0.4-1.7-1.6-2.5-3.2-2.5c-3,0-4.1,2.5-4.1,5.2c0,2.5,1.1,5.1,4.1,5.1c2.2,0,3.4-1.2,3.6-3.3H102v-2.5h6.4v8.2h-2.1L105.9,133.6z"
	/>
<path fill="#FFFFFF" d="M110.6,120.2h11.3v2.8h-8v3.2h7.3v2.6H114v3.7h8.2v2.8h-11.5L110.6,120.2L110.6,120.2z"/>
<path fill="#FFFFFF" d="M128.1,123h-4.5v-2.8H136v2.8h-4.5v12.3h-3.3L128.1,123L128.1,123z"/>
</svg>
