<?xml version="1.0" encoding="utf-8"?>
<!-- Generator: Adobe Illustrator 25.2.1, SVG Export Plug-In . SVG Version: 6.00 Build 0)  -->
<svg version="1.1" id="Layer_1" xmlns="http://www.w3.org/2000/svg" xmlns:xlink="http://www.w3.org/1999/xlink" x="0px" y="0px"
	 viewBox="0 0 190 165" enable-background="new 0 0 190 165" xml:space="preserve">
<g>
	<path opacity="0.4" fill="#FFFFFF" d="M26.1,66.6l-8,8l8,8l8-8L26.1,66.6z"/>
	<path opacity="0.6" fill="#FFFFFF" d="M34.1,74.6l-8,8l8,8l8-8L34.1,74.6z"/>
	<path fill="#FFFFFF" d="M26.1,82.4l-8,8l8,8l8-8L26.1,82.4z"/>
	<path opacity="0.8" fill="#FFFFFF" d="M18.1,74.6l-8,8l8,8l8-8L18.1,74.6z"/>
	<path fill="#FFFFFF" d="M52.8,74.2H57l4.6,7.4l4.6-7.4h4.2v17.5h-3.9V80.4l-5,7.4h-0.1l-4.8-7.4v11.4h-3.8L52.8,74.2z"/>
	<path fill="#FFFFFF" d="M74,74.2h13.2v3.4h-9.5v3.5H86v3.4h-8.3v3.7h9.5v3.4H74C74,91.9,74,74.2,74,74.2z"/>
	<path fill="#FFFFFF" d="M90.2,74.2h6.9c5.5,0,9.2,3.8,9.2,8.7s-3.9,8.7-9.2,8.7h-6.9V74.2z M94.1,77.9v10.5h3
		c3.1,0,5.3-2.2,5.3-5.3s-2.2-5.3-5.3-5.3h-3V77.9z"/>
	<path fill="#FFFFFF" d="M113.8,74.1h3.5l7.5,17.6h-4l-1.6-3.9h-7.4l-1.6,3.9h-3.9L113.8,74.1z M117.9,84.4l-2.3-5.7l-2.3,5.7H117.9
		z"/>
	<path fill="#FFFFFF" d="M126.7,74.2h3.9v13.9h8.7v3.5h-12.6V74.2z"/>
	<path fill="#FFFFFF" d="M141.2,74.2h3.9v13.9h8.7v3.5h-12.6L141.2,74.2L141.2,74.2z"/>
	<path fill="#FFFFFF" d="M155.8,74.2h3.9v17.5h-3.9V74.2z"/>
	<path fill="#FFFFFF" d="M168.9,74.1h3.5l7.5,17.6h-4l-1.6-3.9h-7.3l-1.6,3.9h-4L168.9,74.1z M172.9,84.4l-2.3-5.7l-2.3,5.7H172.9z"
		/>
</g>
</svg>
