<?xml version="1.0" encoding="utf-8"?>
<!-- Generator: Adobe Illustrator 25.2.1, SVG Export Plug-In . SVG Version: 6.00 Build 0)  -->
<svg version="1.1" id="Layer_1" xmlns="http://www.w3.org/2000/svg" xmlns:xlink="http://www.w3.org/1999/xlink" x="0px" y="0px"
	 viewBox="0 0 190 165" enable-background="new 0 0 190 165" xml:space="preserve">
<path fill="none" stroke="#FFFFFF" stroke-miterlimit="10" d="M33.4,79c0,1.3-1,2.3-2.3,2.3s-2.3-1-2.3-2.3s1-2.3,2.3-2.3
	S33.4,77.7,33.4,79z"/>
<path fill="#FFFFFF" d="M24.2,90.6c-1.3,0-2.3,1-2.3,2.3s1,2.3,2.3,2.3s2.3-1,2.3-2.3S25.5,90.6,24.2,90.6z M17.3,90.6
	c-1.3,0-2.3,1-2.3,2.3s1,2.3,2.3,2.3s2.3-1,2.3-2.3C19.6,91.6,18.5,90.6,17.3,90.6z M31.1,90.6c-1.3,0-2.3,1-2.3,2.3s1,2.3,2.3,2.3
	c1.3,0,2.3-1,2.3-2.3S32.4,90.6,31.1,90.6z M24.2,83.6c-1.3,0-2.3,1-2.3,2.3s1,2.3,2.3,2.3s2.3-1,2.3-2.3
	C26.5,84.7,25.5,83.6,24.2,83.6z M17.3,83.6c-1.3,0-2.3,1-2.3,2.3s1,2.3,2.3,2.3s2.3-1,2.3-2.3C19.6,84.7,18.5,83.6,17.3,83.6z
	 M31.1,88.2c1.3,0,2.3-1,2.3-2.3s-1-2.3-2.3-2.3s-2.3,1-2.3,2.3C28.8,87.2,29.9,88.2,31.1,88.2z M24.2,76.7c-1.3,0-2.3,1-2.3,2.3
	s1,2.3,2.3,2.3s2.3-1,2.3-2.3S25.5,76.7,24.2,76.7z M17.3,76.7c-1.3,0-2.3,1-2.3,2.3s1,2.3,2.3,2.3s2.3-1,2.3-2.3
	C19.6,77.7,18.5,76.7,17.3,76.7z"/>
<path fill="#FFFFFF" d="M97.9,88.9c0,1.8-1.2,3.4-3.9,3.4c-1.3,0-2.2-0.4-2.8-0.9c-0.9-0.9-1.2-2.2-1.2-5.3c0-3,0.3-4.2,1.1-5.1
	c0.6-0.6,1.5-1,2.8-1c2.7,0,3.9,1.6,3.9,3.5L97.9,88.9L97.9,88.9z M97.9,79.4l-0.8-0.8C96,77.5,95,77,93.1,77c-2,0-3.5,0.6-4.8,1.8
	c-1.2,1.2-2,2.9-2,7.3c0,4.3,0.8,6.2,2,7.5c1.2,1.2,2.8,1.7,4.6,1.7c2,0,3.1-0.6,4.2-1.8l0.8-0.8V95h3.2V70h-3.5L97.9,79.4
	L97.9,79.4z"/>
<path fill="#FFFFFF" d="M59.2,77c-2.4,0-3.4,0.9-4.7,2.2l-0.6,0.6c-1.2-2.2-3.1-2.7-4.9-2.7c-1.9,0-3.1,0.6-4,1.6l-1.2,1.2v-2.3
	h-3.2v17.5H44V83.2c0-1.9,1.6-3.2,3.8-3.2c2.5,0,3.1,1.8,3.1,3.2V95h3.5V83.2c0-1.9,1.6-3.2,3.8-3.2c2.5,0,3.1,1.8,3.1,3.2V95h3.5
	V83.7c0-2.9-0.7-4.1-1.6-5C62.1,77.5,60.8,77,59.2,77z"/>
<path fill="#FFFFFF" d="M110.1,77.4h-3.5V95h3.5V77.4z"/>
<path fill="#FFFFFF" d="M125.5,88.9c0,1.8-1.2,3.4-3.9,3.4c-1.3,0-2.2-0.4-2.8-0.9c-0.9-0.9-1.2-2.2-1.2-5.3c0-3,0.3-4.2,1.1-5.1
	c0.6-0.6,1.5-1,2.8-1c2.7,0,3.9,1.6,3.9,3.5L125.5,88.9L125.5,88.9z M125.5,79.4l-0.8-0.8c-1.1-1.1-2.1-1.6-4-1.6
	c-2,0-3.5,0.6-4.8,1.8c-1.2,1.2-2,2.9-2,7.3c0,4.3,0.8,6.2,2,7.5c1.2,1.2,2.8,1.7,4.6,1.7c2,0,3.1-0.6,4.2-1.8l0.8-0.8V95h3.2V70
	h-3.5L125.5,79.4L125.5,79.4z"/>
<path fill="#FFFFFF" d="M155.4,77.4v-0.5V72h-3.5v4.9v0.5h-0.5h-2v2.7h2h0.5v0.5v9.7c0,2.7,1.7,5,4.9,5h0.4c0.7,0,1.4-0.2,1.7-0.5
	v-2.5h-1.5c-1.4,0-2.1-1-2.1-2.3v-9.3v-0.5h0.5h3.1v-2.7h-3.1L155.4,77.4L155.4,77.4z"/>
<path fill="#FFFFFF" d="M108.3,71c-1,0-1.9,0.9-1.9,1.9s0.9,1.9,1.9,1.9s1.9-0.9,1.9-1.9S109.4,71,108.3,71z"/>
<path fill="#FFFFFF" d="M71.8,84v-0.5c0-1.7,0.9-3.6,4.1-3.6c2.7,0,3.9,1.9,3.9,3.6V84v0.5h-0.5h-7h-0.5V84z M83.3,91.6
	c0-0.1,0.1-0.1,0.1-0.2s-0.1-0.2-0.2-0.3l-2.4-1.2c0,0,0,0.1-0.1,0.1c-0.2,0.3-0.8,0.9-0.8,0.9c-0.7,0.7-2,1.6-3.6,1.6h-0.2
	c-3.1,0-4.3-1.7-4.3-4.6v-0.4V87h0.5h11v-1.6c0-2.9-0.7-4.8-2.1-6.2c-1.3-1.3-3-2-5.3-2c-2.5,0-4.3,0.8-5.6,2.1
	c-1.3,1.4-2,3.3-2,6.9c0,4.3,0.6,6.1,2,7.4c1.3,1.2,3.1,1.9,5.8,1.9l0,0l0,0c2.1,0,3.8-0.7,5.3-1.9C82.2,92.7,83,91.8,83.3,91.6
	C83.2,91.6,83.3,91.6,83.3,91.6z"/>
<path fill="#FFFFFF" d="M143.3,88.7c0,2.4-1.8,4-4.2,4c-2.3,0-3.4-1-3.4-2.8c0-1.5,1-2.3,2.4-2.5c0,0,2.9-0.5,3.7-0.7
	c0.7-0.1,1.4-0.5,1.4-0.5L143.3,88.7L143.3,88.7z M145.4,78.9c-1.2-1.3-3.1-1.9-5.5-1.9c-2.1,0-3.8,0.7-5.3,1.9
	c-0.5,0.4-1,1-1.4,1.3c-0.1,0.1-0.5,0.5-0.5,0.5c0,0.1-0.1,0.1-0.1,0.2s0.1,0.2,0.2,0.3l0.6,0.3l1.8,0.9c0,0,0-0.1,0.1-0.1
	c0.2-0.3,0.8-0.9,0.8-0.9c0.7-0.7,2-1.6,3.6-1.6c2.7,0,3.6,1.2,3.6,2.8c0,0.9-0.6,1.4-2.5,1.7l-2.9,0.4c-3.1,0.5-5.6,2.1-5.6,5.3
	c0,3.5,2.6,5.2,5.6,5.2c2.6,0,3.9-0.8,4.9-1.8l0.6-0.6v2h3.3V83.4C146.8,81.2,146.3,80,145.4,78.9z"/>
<path fill="#FFFFFF" d="M172.5,88.7c0,2.4-1.8,4-4.2,4c-2.3,0-3.4-1-3.4-2.8c0-1.5,1-2.3,2.4-2.5c0,0,2.9-0.5,3.7-0.7
	c0.7-0.1,1.4-0.5,1.4-0.5L172.5,88.7L172.5,88.7z M174.6,78.9c-1.2-1.3-3.1-1.9-5.5-1.9c-2.1,0-3.8,0.7-5.3,1.9
	c-0.5,0.4-1,1-1.4,1.3c-0.1,0.1-0.5,0.5-0.5,0.5c0,0.1-0.1,0.1-0.1,0.2s0.1,0.2,0.2,0.3l0.6,0.3l1.8,0.9c0,0,0-0.1,0.1-0.1
	c0.2-0.3,0.8-0.9,0.8-0.9c0.7-0.7,2-1.6,3.6-1.6c2.7,0,3.6,1.2,3.6,2.8c0,0.9-0.6,1.4-2.5,1.7l-2.9,0.4c-3.1,0.5-5.6,2.1-5.6,5.3
	c0,3.5,2.6,5.2,5.6,5.2c2.6,0,3.9-0.8,4.9-1.8l0.6-0.6v2h3.3V83.4C176,81.2,175.5,80,174.6,78.9z"/>
</svg>
