<?xml version="1.0" encoding="utf-8"?>
<!-- Generator: Adobe Illustrator 25.2.1, SVG Export Plug-In . SVG Version: 6.00 Build 0)  -->
<svg version="1.1" id="Layer_1" xmlns="http://www.w3.org/2000/svg" xmlns:xlink="http://www.w3.org/1999/xlink" x="0px" y="0px"
	 viewBox="0 0 190 165" enable-background="new 0 0 190 165" xml:space="preserve">
<path fill-rule="evenodd" clip-rule="evenodd" d="M24.2,82.9c1.3-2.6,4.9-6.4,8.4-3.8c3.4,2.6-1.7,11.9-4.5,14.8
	c-2.2,2.3-4.8,4.5-10,4.5c-5.2,0-8-4.2-8-9.7c0,0-0.4-6.9,7.2-16.3c-3.1-0.8-4.9-2.7-4.9-5.8c0-3.9,5.3-5.9,8.8-3.6
	c0,0-5.3-0.1-5.3,4.1c0,2,1.1,3.1,2.7,3.7c8-9.1,16.9-12.4,21.2-13.4c5.3-1.3,12.2,0.5,6.1,7.4c-1.4,1.6-3.8,3.2-8.5,5
	c-4.4,1.8-8,2.6-11.7,2.9c-4.4,5.6-9,12.9-9,18.2c0,5.5,4.2,6.6,8,3c4.2-4,7.4-12.2,4.3-12.6c-2.7-0.3-5.1,4.1-5,7.5h-0.9
	C23.1,88.7,22.9,85.5,24.2,82.9z M44.7,59.1c-0.8-0.9-3.9-0.5-7,1.5C34.9,62.5,31,66,26.9,71.1c4.9-0.7,13.3-3,17.8-9.6
	C44.7,61.5,45.5,60.1,44.7,59.1z"/>
<path fill-rule="evenodd" clip-rule="evenodd" d="M178.4,97.2c-0.5,0.5-1.2,0.8-1.9,0.8c-0.7,0-1.4-0.3-1.9-0.8
	c-0.5-0.5-0.8-1.2-0.8-1.9c0-0.7,0.3-1.4,0.8-1.9c0.5-0.5,1.2-0.8,1.9-0.8c0.7,0,1.4,0.3,1.9,0.8c0.5,0.5,0.8,1.2,0.8,1.9
	C179.2,96.1,178.9,96.7,178.4,97.2z M174.9,93.7c-0.4,0.4-0.7,1-0.7,1.6c0,0.6,0.3,1.2,0.7,1.6c0.4,0.4,1,0.7,1.6,0.7
	s1.2-0.2,1.6-0.7c0.4-0.4,0.7-1,0.7-1.6c0-0.6-0.2-1.2-0.7-1.6c-0.4-0.4-1-0.7-1.6-0.7C175.9,93,175.3,93.3,174.9,93.7z"/>
<path fill-rule="evenodd" clip-rule="evenodd" d="M163.6,94.2c2.8-3.4,2.6-8.2,2.4-11.3c0-0.5-0.1-0.9-0.1-1.3
	c-0.1-2.9,0.9-5.5,0.9-5.5l-4.9,0.4c-1.1,2.1-6.6,9.4-9.4,12.7c-2.8,3.2-4.4,4.4-5.3,3.7c-0.9-0.7,1.1-4.2,1.1-4.2L163.1,62l-5.3,0
	c0,0-10.2,18.4-13.4,24c-3.3,5.7-5.4,7.1-7,7c-1.6,0,0.8-4.4,0.8-4.4L153,62l-5.4,0c0,0-10.2,18-12,21.3c-1.9,3.3-5.1,7.6-9.2,9.4
	c-4.1,1.8-4.6-1.4-2.1-4.3c2.5-2.8,7-2.5,7-2.5l1-2c-4.2-0.3-4-1.7-4-1.7c7.5-1.3,8.8-4,8-5.9c-0.8-1.9-6.4-1.8-10.5,0.7
	c-4.1,2.5-3.2,5.3-3.2,5.3c-0.6,0.1-2.8,0.4-2.8,0.4s1.6-4.5-1-5.9c-2.5-1.4-6.4,1.6-6.4,1.6c0.1-0.4,0.3-0.9,0.5-1.3
	c5.7-3.1,9.6-6.4,12.1-8.9c3.9-4,2.8-7.4,0.5-7.4s-5.7,2-10.3,6.7c-4.6,4.8-8.6,11.4-8.6,11.4l-5,1.6c0.2-1.9-0.5-4-2.9-4
	c-2.4,0-5.4,2.7-5.4,2.7l2.4-5.6l-4.8-0.1l-5.8,12.1c-4.3,6.8-6.7,9.4-7.7,8.9c-0.9-0.5,0.3-3,0.3-3s2.1-4.7,3.9-8.6
	c1.7-3.9,0.9-6.1-1.6-6.1c-2.6,0-5.6,2.9-5.6,2.9c-1-6.3-8-0.4-8-0.4l0.6-1.7l-4.8,0.1C59.8,82.6,56,87.7,54,90.4
	c-2.1,2.7-3.7,3.9-4.3,3.6c-0.7-0.3,0.2-2.3,0.2-2.3l6.6-14.3l-4.8,0.1L51,78.6c-0.3-1-3.2-4.3-9.5,0.7c-6.3,5-8.5,11.7-8.5,13.9
	c0,2.1,0.8,4.6,4.4,4.6c3.6,0,6.7-4.7,6.7-4.7c0.1,6.3,3.6,5.5,6.6,2.9c3.2-2.8,7.4-9.6,7.4-9.6l-4.9,11.2l5.1-0.2
	c0,0,4.6-10.8,5.5-12.6c0.9-1.8,2.2-4.2,3.7-4.1c1.3,0.1,0.7,2,0.7,2l-6.6,14.8l4.9-0.1c0,0,4.6-10.5,5.9-13.2
	c1.2-2.7,2.3-3.6,3.7-3.5c1.4,0.1,0.3,2.7,0.3,2.7s-1.9,4.3-3.5,7.9c-1.6,3.7-1.3,4.8-0.7,5.7c0.6,0.9,3.1,1.7,5.7-0.3
	c2.7-2,6.6-8.9,6.6-8.9l-8.8,18.9l5.2-0.1L87,93.2c-0.1,7.1,4.9,5.3,9.2,0.3c4.3-4.9,5-11.4,5-11.4c1.5-0.5,3.1-1.1,4.6-1.7
	c-2,3-4.9,8.9-4.5,13.7c0.4,5.2,5,4.9,10.1,0.6c5.1-4.3,7.5-10.6,7.5-10.6c1.4-0.2,4-1,4-1c1.3,1.5,3.5,1.7,3.5,1.7
	c-2.4,1.1-5.2,2.3-8,5.6c-2.8,3.3-1.3,7.6,2.8,7.5c4.2-0.1,9.2-5.4,9.2-5.4c-0.2,3,0.3,5.4,3.7,5.4c3.3,0,6.7-4,6.7-4
	c2.5,8.6,9.3,1,9.3,1c1,1.7,2.4,2.9,5.9,2.9s5.1-1.5,5.1-1.5c0.7,0.6,3.2,2,6.2,1.2c3-0.8,3.5-3.5,3.5-3.5
	C166.8,94.7,163.6,94.2,163.6,94.2z M46.6,87c-2.5,4.3-4.5,6.8-6.4,6.8c-1.6,0-1.7-3.1,1.3-7.7c2.9-4.6,5.5-7.2,7-7.2
	C49.9,78.9,49.1,82.7,46.6,87z M95.1,86.9c-2,3.7-4.2,7-6,7c-1.5,0-1.4-2.3,0.8-7.4c2.2-5.1,4.1-7.7,6.2-7.7
	C98.2,78.9,97.2,83.3,95.1,86.9z M113.4,86c-1.3,2.7-3.7,7.3-6,7.3c-1.4,0-1.8-1.7,0-5.9c1.8-4.3,4.6-8.4,6.7-8.4
	C116,79,114.7,83.3,113.4,86z M129.5,77.4c2.5-2.2,4.8-0.7,2.3,1.3c-2.5,2-4.3,2.3-4.3,2.3S127.5,79.2,129.5,77.4z M158.2,93.5
	c0,0-1.2,0.1-2.6-0.4c-1-0.4-2.3-0.4-3.3-0.4c0,0,5.5-6,7.9-9.5v0C160.2,83.2,161.1,91.6,158.2,93.5z M114.1,75c0,0,3.8-6.2,5.9-8.9
	c2.1-2.7,4.7-4.7,4.3-2.2C123.9,66.4,120.3,71.2,114.1,75z"/>
<path fill-rule="evenodd" clip-rule="evenodd" d="M176.8,95.6h-1v1.3h-0.4v-3h1.4c0.5,0,1,0.2,1,0.8c0,0.4-0.2,0.6-0.4,0.7
	c0.2,0.1,0.3,0.1,0.4,0.6l0,0.5c0,0.2,0,0.2,0.1,0.3v0.1h-0.5c-0.1-0.2-0.1-0.6-0.1-0.7C177.3,95.8,177.3,95.6,176.8,95.6z
	 M169,65.8c0,1.4-1.6,3.2-5.7,4.6c0,0,0.9-0.9,1.1-1.6c0.1-0.3,0-0.6-0.2-1c-0.2-0.5-0.5-1.1-0.4-2c0.1-1.6,1.2-2.5,2.6-2.5
	C167.9,63.3,169,64.2,169,65.8z M176.8,94.2h-1v1h0.9c0.3,0,0.6-0.1,0.6-0.5C177.3,94.2,177,94.2,176.8,94.2z"/>
</svg>
