<?xml version="1.0" encoding="utf-8"?>
<!-- Generator: Adobe Illustrator 25.2.1, SVG Export Plug-In . SVG Version: 6.00 Build 0)  -->
<svg version="1.1" id="Layer_1" xmlns="http://www.w3.org/2000/svg" xmlns:xlink="http://www.w3.org/1999/xlink" x="0px" y="0px"
	 viewBox="0 0 190 165" enable-background="new 0 0 190 165" xml:space="preserve">
<path fill="#C41230" d="M144.2,109.6c-0.5-0.3-1-0.4-1.6-0.4c-0.6,0-1.1,0.1-1.6,0.4c-0.5,0.3-0.9,0.7-1.2,1.2
	c-0.3,0.5-0.4,1.1-0.4,1.7c0,0.6,0.1,1.1,0.4,1.6c0.3,0.5,0.7,0.9,1.2,1.2c0.5,0.3,1,0.4,1.6,0.4c0.6,0,1.1-0.1,1.6-0.4
	c0.5-0.3,0.9-0.7,1.2-1.2c0.3-0.5,0.4-1.1,0.4-1.6c0-0.6-0.1-1.1-0.4-1.7C145.1,110.3,144.7,109.9,144.2,109.6z M145,113.9
	c-0.3,0.4-0.6,0.8-1,1c-0.4,0.3-0.9,0.4-1.3,0.4c-0.5,0-0.9-0.1-1.3-0.4c-0.4-0.2-0.8-0.6-1-1c-0.2-0.4-0.3-0.9-0.3-1.4
	c0-0.5,0.1-0.9,0.4-1.4c0.2-0.4,0.6-0.8,1-1c0.4-0.2,0.9-0.4,1.3-0.4c0.5,0,0.9,0.1,1.3,0.4c0.4,0.2,0.7,0.6,1,1
	c0.2,0.4,0.3,0.9,0.3,1.4C145.3,113,145.2,113.4,145,113.9z M143.2,112.9c-0.1-0.1-0.2-0.1-0.3-0.2c0.3,0,0.6-0.1,0.7-0.3
	c0.2-0.2,0.3-0.4,0.3-0.7c0-0.2-0.1-0.4-0.2-0.5c-0.1-0.1-0.2-0.3-0.4-0.3c-0.2-0.1-0.5-0.1-0.9-0.1h-1.2v3.5h0.6v-1.5h0.3
	c0.2,0,0.3,0,0.5,0.1c0.1,0.1,0.3,0.4,0.6,0.8l0.3,0.6h0.7l-0.4-0.7C143.5,113.3,143.3,113.1,143.2,112.9z M142.5,112.3h-0.7v-1.1
	h0.7c0.3,0,0.5,0,0.5,0.1c0.1,0.1,0.2,0.1,0.2,0.2c0.1,0.1,0.1,0.2,0.1,0.3c0,0.2-0.1,0.3-0.2,0.4
	C143,112.3,142.8,112.3,142.5,112.3z M27,49l13,61.3l1-0.5c13.8-7.2,27.6-6.8,36.7-5.2c9.9,1.8,16.6,5.3,16.7,5.3l0.4,0.2l0.4-0.2
	c16.3-7.2,29.7-6.8,38.1-5.2c9.1,1.8,14.5,5.3,14.5,5.3l1,0.7l0.3-1.2L162.3,49H27z"/>
<path fill="#FFFFFF" d="M120.7,62.8v4.6h2.4l-1.2,3.5h1.1l2.6-3.2h0v-4.9H120.7z M74.6,65.6c-7.2,0-11.5,4-11.5,10.7
	c0,6.7,4.1,10.7,11.9,10.7c7.1,0,10.3-2.7,11.1-7.3h-6.3c-0.4,1.8-2,2.4-4.2,2.4c-2.5,0-4.1-1.8-4.1-4.6H86c0.1-0.3,0.1-0.8,0.1-1.2
	C86.1,70.5,82.3,65.6,74.6,65.6z M136.6,65.7c-6.4,0-10.5,2.6-10.5,6.9c0,8.2,12.1,5.4,12.1,8.3c0,1.1-0.9,1.7-2.6,1.7
	c-2,0-3.3-0.9-3.3-2.6H126v0.1c0,3.7,2.6,6.8,9.6,6.8c7.9,0,10.9-3.1,10.9-7.1c0-8.3-12.7-5.2-12.7-8.4c0-0.7,0.8-1.4,2.9-1.4
	c2.1,0,3.3,1,3.3,1.9h5.8C145.8,68.5,142.3,65.7,136.6,65.7z M111,66.1v20.3h7.6V66.1H111z M84,66.1l10,20.3h6.3l9.7-20.3h-6.3
	l-5.4,11.7h-0.1l-5.4-11.7H84z M43.7,66.3v20.1h19.1v-5.1H51.3v-15H43.7z M74.7,69.9c2.2,0,2.9,1.8,2.9,4h-5.8
	C71.8,72,72.5,69.9,74.7,69.9z"/>
</svg>
