<?xml version="1.0" encoding="utf-8"?>
<!-- Generator: Adobe Illustrator 25.2.1, SVG Export Plug-In . SVG Version: 6.00 Build 0)  -->
<svg version="1.1" id="Layer_1" xmlns="http://www.w3.org/2000/svg" xmlns:xlink="http://www.w3.org/1999/xlink" x="0px" y="0px"
	 viewBox="0 0 190 165" enable-background="new 0 0 190 165" xml:space="preserve">
<path fill="#231F20" d="M58.3,127.3v-6c0-0.5,0-1-0.2-1.5c-0.2-0.5-0.5-0.9-0.8-1.3c-0.4-0.4-0.8-0.6-1.3-0.8
	c-0.5-0.2-1-0.3-1.5-0.2c-0.7,0-1.3,0.1-1.9,0.4c-0.6,0.3-1.1,0.8-1.4,1.3c-0.3-0.5-0.8-1-1.3-1.3c-0.6-0.3-1.2-0.4-1.8-0.4
	c-0.5,0-1.1,0.1-1.6,0.3c-0.5,0.2-0.9,0.6-1.2,1.1v-1.2h-2.1v9.6h2.1V122c0-0.3,0-0.7,0.1-1c0.1-0.3,0.3-0.6,0.5-0.8
	c0.2-0.2,0.5-0.4,0.8-0.6c0.3-0.1,0.6-0.2,1-0.2c1.4,0,2.1,0.9,2.1,2.5v5.3h2.1V122c0-0.3,0-0.7,0.1-1c0.1-0.3,0.3-0.6,0.5-0.8
	c0.2-0.2,0.5-0.4,0.8-0.6c0.3-0.1,0.6-0.2,1-0.2c1.4,0,2.1,0.9,2.1,2.5v5.3L58.3,127.3z M89.4,117.7H86v-2.9h-2.1v2.9H82v1.9h1.9
	v4.4c0,2.2,0.9,3.5,3.3,3.5c0.9,0,1.8-0.3,2.6-0.7l-0.6-1.8c-0.6,0.3-1.2,0.5-1.8,0.5c-1,0-1.4-0.6-1.4-1.6v-4.4h3.4L89.4,117.7z
	 M107.2,117.5c-0.5,0-1,0.1-1.5,0.4c-0.4,0.2-0.8,0.6-1.1,1v-1.2h-2.1v9.6h2.1v-5.4c0-1.6,0.7-2.5,2-2.5c0.4,0,0.9,0.1,1.3,0.2
	l0.6-2C108.1,117.5,107.6,117.4,107.2,117.5L107.2,117.5z M80.3,118.5c-1.2-0.7-2.5-1-3.9-1c-2.4,0-4,1.2-4,3.1
	c0,1.6,1.2,2.5,3.3,2.8l1,0.1c1.1,0.2,1.7,0.5,1.7,1c0,0.7-0.8,1.2-2.2,1.2c-1.1,0-2.3-0.3-3.2-1l-1,1.6c1.2,0.8,2.7,1.3,4.1,1.2
	c2.8,0,4.4-1.3,4.4-3.1s-1.3-2.6-3.3-2.9l-1-0.1c-0.9-0.1-1.6-0.3-1.6-0.9s0.7-1.1,1.8-1.1c1.1,0,2.1,0.3,3,0.8L80.3,118.5z
	 M136.1,117.5c-0.5,0-1,0.1-1.5,0.4c-0.4,0.2-0.8,0.6-1.1,1v-1.2h-2.1v9.6h2.1v-5.4c0-1.6,0.7-2.5,2-2.5c0.4,0,0.9,0.1,1.3,0.2
	l0.6-2C137,117.5,136.5,117.4,136.1,117.5L136.1,117.5z M109.2,122.5c0,0.7,0.1,1.3,0.3,2c0.2,0.6,0.6,1.2,1.1,1.7
	c0.5,0.5,1.1,0.8,1.7,1.1c0.6,0.2,1.3,0.3,2,0.3c1.2,0.1,2.5-0.3,3.4-1.1l-1-1.7c-0.7,0.5-1.6,0.8-2.5,0.9c-0.8-0.1-1.5-0.4-2-1
	c-0.5-0.6-0.8-1.3-0.8-2.1c0-0.8,0.3-1.5,0.8-2.1c0.5-0.6,1.2-0.9,2-1c0.9,0,1.8,0.3,2.5,0.9l1-1.7c-1-0.8-2.2-1.2-3.4-1.1
	c-0.7,0-1.3,0.1-2,0.3c-0.6,0.2-1.2,0.6-1.7,1.1c-0.5,0.5-0.9,1-1.1,1.7C109.3,121.1,109.2,121.7,109.2,122.5L109.2,122.5z
	 M128.7,122.5v-4.8h-2.1v1.2c-0.4-0.5-0.8-0.8-1.3-1.1c-0.5-0.2-1.1-0.4-1.7-0.3c-1.3,0-2.6,0.5-3.5,1.5c-0.9,0.9-1.5,2.2-1.5,3.5
	c0,1.3,0.5,2.6,1.5,3.5c0.9,0.9,2.2,1.5,3.5,1.5c0.6,0,1.1-0.1,1.7-0.3c0.5-0.2,1-0.6,1.3-1.1v1.2h2.1V122.5z M121,122.5
	c0-0.6,0.2-1.1,0.6-1.6c0.3-0.5,0.8-0.8,1.3-1c0.5-0.2,1.1-0.2,1.7-0.1c0.5,0.1,1,0.4,1.4,0.8c0.4,0.4,0.6,0.9,0.7,1.5
	c0.1,0.6,0,1.1-0.2,1.6c-0.2,0.5-0.6,1-1.1,1.3c-0.5,0.3-1,0.5-1.6,0.5c-0.4,0-0.8-0.1-1.2-0.2c-0.4-0.2-0.7-0.4-1-0.7
	c-0.3-0.3-0.5-0.6-0.6-1C121,123.3,121,122.9,121,122.5z M95.9,117.5c-1.3,0-2.6,0.6-3.5,1.5c-0.9,1-1.4,2.2-1.4,3.6
	c0,1.3,0.6,2.6,1.5,3.5c1,0.9,2.2,1.4,3.6,1.4c1.4,0.1,2.9-0.4,4-1.3l-1-1.5c-0.8,0.6-1.8,1-2.8,1c-0.7,0.1-1.4-0.2-1.9-0.6
	c-0.5-0.4-0.9-1.1-1-1.8h7.1c0-0.3,0-0.5,0-0.8C100.5,119.5,98.6,117.5,95.9,117.5L95.9,117.5z M95.9,119.3c0.3,0,0.6,0,0.9,0.2
	c0.3,0.1,0.6,0.3,0.8,0.5c0.2,0.2,0.4,0.5,0.5,0.8c0.1,0.3,0.2,0.6,0.2,0.9h-5c0-0.6,0.3-1.2,0.8-1.7
	C94.6,119.5,95.2,119.3,95.9,119.3L95.9,119.3z M148,122.5v-8.6h-2v5c-0.4-0.5-0.8-0.8-1.3-1.1c-0.5-0.2-1.1-0.4-1.7-0.3
	c-1.3,0-2.6,0.5-3.5,1.5c-0.9,0.9-1.5,2.2-1.5,3.5c0,1.3,0.5,2.6,1.5,3.5c0.9,0.9,2.2,1.5,3.5,1.5c0.6,0,1.1-0.1,1.7-0.3
	c0.5-0.2,1-0.6,1.3-1.1v1.2h2V122.5z M151.5,125.9c0.1,0,0.3,0,0.4,0.1c0.1,0,0.2,0.1,0.3,0.2c0.1,0.1,0.2,0.2,0.2,0.3
	c0.1,0.1,0.1,0.2,0.1,0.4s0,0.3-0.1,0.4c-0.1,0.1-0.1,0.2-0.2,0.3c-0.1,0.1-0.2,0.2-0.3,0.2c-0.1,0.1-0.2,0.1-0.4,0.1
	c-0.2,0-0.4-0.1-0.5-0.2c-0.2-0.1-0.3-0.2-0.4-0.4c-0.1-0.1-0.1-0.2-0.1-0.4s0-0.3,0.1-0.4c0.1-0.1,0.1-0.2,0.2-0.3
	c0.1-0.1,0.2-0.2,0.3-0.2C151.2,125.9,151.4,125.9,151.5,125.9L151.5,125.9z M151.5,127.6c0.1,0,0.2,0,0.3-0.1
	c0.1,0,0.2-0.1,0.2-0.2c0.1-0.1,0.2-0.3,0.2-0.5c0-0.2-0.1-0.4-0.2-0.5c-0.1-0.1-0.1-0.1-0.2-0.2c-0.1,0-0.2-0.1-0.3-0.1
	c-0.1,0-0.2,0-0.3,0.1c-0.1,0-0.2,0.1-0.2,0.2c-0.1,0.1-0.2,0.3-0.2,0.5c0,0.2,0.1,0.4,0.2,0.5c0.1,0.1,0.1,0.1,0.2,0.2
	C151.3,127.5,151.4,127.6,151.5,127.6L151.5,127.6z M151.5,126.4c0.1,0,0.2,0,0.3,0.1c0,0,0.1,0.1,0.1,0.1c0,0,0,0.1,0,0.1
	c0,0,0,0.1,0,0.1c0,0,0,0.1-0.1,0.1c-0.1,0.1-0.1,0.1-0.2,0.1l0.3,0.3h-0.2l-0.3-0.3h-0.1v0.3h-0.2v-0.9L151.5,126.4z M151.3,126.5
	v0.2h0.2c0,0,0.1,0,0.1,0c0,0,0,0,0,0s0,0,0,0c0,0,0,0,0,0c0,0,0,0,0,0c0,0-0.1,0-0.1,0L151.3,126.5z M140.3,122.5
	c0-0.6,0.2-1.1,0.6-1.6c0.3-0.5,0.8-0.8,1.3-1c0.5-0.2,1.1-0.2,1.7-0.1c0.5,0.1,1,0.4,1.4,0.8c0.4,0.4,0.6,0.9,0.7,1.5
	c0.1,0.6,0,1.1-0.2,1.6c-0.2,0.5-0.6,1-1.1,1.3c-0.5,0.3-1,0.5-1.6,0.5c-0.4,0-0.8-0.1-1.2-0.2c-0.4-0.2-0.7-0.4-1-0.7
	c-0.3-0.3-0.5-0.6-0.6-1C140.3,123.3,140.3,122.9,140.3,122.5z M70.1,122.5v-4.8H68v1.2c-0.4-0.5-0.8-0.8-1.3-1.1
	c-0.5-0.2-1.1-0.4-1.7-0.3c-1.3,0-2.6,0.5-3.5,1.5c-0.9,0.9-1.5,2.2-1.5,3.5c0,1.3,0.5,2.6,1.5,3.5c0.9,0.9,2.2,1.5,3.5,1.5
	c0.6,0,1.1-0.1,1.7-0.3c0.5-0.2,1-0.6,1.3-1.1v1.2h2.1V122.5z M62.3,122.5c0-0.6,0.2-1.1,0.6-1.6c0.3-0.5,0.8-0.8,1.3-1
	c0.5-0.2,1.1-0.2,1.7-0.1c0.5,0.1,1,0.4,1.4,0.8c0.4,0.4,0.6,0.9,0.7,1.5c0.1,0.6,0,1.1-0.2,1.6c-0.2,0.5-0.6,1-1.1,1.3
	c-0.5,0.3-1,0.5-1.6,0.5c-0.4,0-0.8-0.1-1.2-0.2c-0.4-0.2-0.7-0.4-1-0.7c-0.3-0.3-0.5-0.6-0.6-1C62.3,123.3,62.3,122.9,62.3,122.5
	L62.3,122.5z"/>
<path fill="#FF5F00" d="M111.2,44.9H79.6v56.6h31.5V44.9z"/>
<path fill="#EB001B" d="M81.7,73.2c0-5.5,1.2-10.8,3.6-15.7c2.4-4.9,5.8-9.2,10.1-12.6c-5.3-4.2-11.7-6.8-18.4-7.5
	c-6.7-0.7-13.5,0.5-19.6,3.4s-11.2,7.6-14.8,13.3c-3.6,5.7-5.5,12.3-5.5,19.1c0,6.8,1.9,13.4,5.5,19.1c3.6,5.7,8.7,10.3,14.8,13.3
	c6.1,3,12.9,4.1,19.6,3.4c6.7-0.7,13.1-3.3,18.4-7.5c-4.3-3.4-7.8-7.7-10.1-12.6C82.9,84,81.6,78.6,81.7,73.2z"/>
<path fill="#F79E1B" d="M153.6,73.2c0,6.8-1.9,13.4-5.5,19.1c-3.6,5.7-8.7,10.3-14.8,13.3c-6.1,3-12.9,4.1-19.6,3.4
	c-6.7-0.7-13.1-3.3-18.4-7.5c4.3-3.4,7.8-7.7,10.1-12.6c2.4-4.9,3.6-10.3,3.6-15.7c0-5.5-1.2-10.8-3.6-15.7
	c-2.4-4.9-5.8-9.2-10.1-12.6c5.3-4.2,11.7-6.8,18.4-7.5s13.5,0.5,19.6,3.4c6.1,3,11.2,7.6,14.8,13.3
	C151.7,59.8,153.6,66.4,153.6,73.2L153.6,73.2z"/>
<path fill="#F79E1B" d="M150.2,95.5v-1.2h0.5v-0.2h-1.2v0.2h0.5v1.2H150.2z M152.5,95.5v-1.4h-0.4l-0.4,1l-0.4-1H151v1.4h0.3v-1
	l0.4,0.9h0.3l0.4-0.9v1.1L152.5,95.5z"/>
</svg>
