<?xml version="1.0" encoding="utf-8"?>
<!-- Generator: Adobe Illustrator 25.2.1, SVG Export Plug-In . SVG Version: 6.00 Build 0)  -->
<svg version="1.1" id="Layer_1" xmlns="http://www.w3.org/2000/svg" xmlns:xlink="http://www.w3.org/1999/xlink" x="0px" y="0px"
	 viewBox="0 0 190 165" enable-background="new 0 0 190 165" xml:space="preserve">
<path fill="#165EAA" d="M86.1,102c-3.1-0.2-5.4-1.4-6.8-3.7c-0.9-1.5-1.2-3.5-0.8-5.5c0.5-2.3,2-4.3,4.4-5.8c1.4-0.8,2.6-1.4,5-2.2
	c0.6-0.2,1.1-0.4,1.2-0.4c0,0,0.1-0.2,0-0.6c-0.1-1.2,0.1-3.2,0.5-4.5c0.6-2.3,1.7-4.2,3.3-5.4c1.1-0.8,2.5-1.4,3.9-1.7
	c0.8-0.1,2.1-0.1,2.8,0c3.2,0.6,4.9,3,4.2,5.7c-0.1,0.6-0.6,1.5-1,2c-1,1.3-2.5,2.5-4.7,3.6c-0.3,0.1-1.2,0.6-2,1
	c-0.8,0.4-1.5,0.7-1.5,0.8c0,0,0,0.2,0.1,0.6c0.4,2,1.1,3.7,2.2,5.6c0.5,0.8,1.1,1.7,1.2,1.8c0.1,0.1,0.5-0.6,0.8-1.3
	c0.3-0.8,0.5-1.9,0.4-2.5c-0.1-0.4-0.3-0.8-0.6-1.1c-0.1-0.1-0.2-0.2-0.2-0.3c0,0,1.1,0,2.4,0l2.4,0l0,0.3c0,0.4-0.2,1.3-0.3,1.9
	c-0.5,1.7-1.3,3.2-2.8,4.9c-0.2,0.2-0.3,0.4-0.3,0.4c0,0,0.2,0.3,0.5,0.6c1.9,1.8,5.2,3.9,8,4.9c0.3,0.1,0.5,0.2,0.5,0.2
	c0,0-1.6,0.1-4.6,0.1l-4.6,0l-0.3-0.1c-0.5-0.3-1.7-1.2-2.8-2.3c-0.2-0.2-0.5-0.4-0.5-0.4c0,0-0.3,0.2-0.6,0.3
	c-1.5,1-3.2,1.8-4.7,2.3C89.1,101.9,87.7,102.1,86.1,102L86.1,102z M89.9,98.1c0.7-0.1,1.5-0.4,2.3-0.7c0.8-0.3,1.7-0.8,1.8-0.9
	c0,0-0.2-0.3-0.4-0.7c-1.1-1.5-2.2-3.6-3-5.5c-0.3-0.7-0.8-2.2-0.9-2.7c0-0.1-0.1-0.3-0.1-0.3c-0.1,0-1,0.4-1.7,0.9
	c-2.7,1.8-4,3.9-3.7,6.1c0.1,1,0.4,1.7,1,2.3C86.3,98,87.9,98.4,89.9,98.1z M94.5,82.5c1-0.6,2.6-2,3.5-3.1c1.1-1.4,1.7-2.7,1.7-3.7
	c0-0.6-0.1-0.9-0.4-1.1c-0.3-0.3-0.6-0.4-1.1-0.4c-1.4,0-3,1.7-3.7,4c-0.3,1.2-0.4,1.8-0.4,3.2c0,1.1,0,1.3,0.1,1.3
	C94.3,82.6,94.4,82.5,94.5,82.5z M118.2,102c-2.4-0.2-3.9-0.6-5.7-1.3c-2.4-0.9-3.9-2.1-5.1-4c-0.4-0.6-1-1.8-1.2-2.4
	c-1.1-2.9-1.3-6.6-0.7-10.5c0.7-3.9,2.2-7.7,4.2-10.6c1.3-1.9,3.3-3.9,5.4-5.4c3.4-2.5,7.3-4,11.7-4.6c1.3-0.2,2.1-0.2,3.6-0.2
	c2.4,0,4.2,0.2,6.5,0.6c1.5,0.3,3.9,0.9,4,1.1c0,0.1-1.5,4.9-1.6,5c0,0-0.3-0.1-0.5-0.3c-2.2-1.7-4.4-2.7-6.6-3.1
	c-0.7-0.1-2.1-0.1-2.8,0c-3.2,0.5-6.1,2.5-8.7,5.9c-0.8,1.1-1.8,2.6-2.5,4c-1,1.9-1.7,3.6-2.3,5.8c-2.2,7.1-2.3,12.1-0.3,14.8
	c0.8,1.1,2,1.8,3.5,2.1c0.9,0.2,2.9,0.1,3.1-0.1c0,0,1.1-3.2,2.3-7c2-6.2,2.2-6.9,2.2-7.3c0-0.5-0.1-0.9-0.3-1.3
	c-0.2-0.4-0.7-0.9-1.1-1.1c-0.2-0.1-0.3-0.2-0.3-0.2c0,0,3.3,0,7.4,0s7.4,0,7.4,0c0,0-0.2,0.1-0.4,0.2c-1.2,0.5-2,1.3-2.5,2.3
	c-0.1,0.2-1,3.1-2.4,7.5l-2.3,7.1l-0.7,0.3c-2.7,1.3-5.9,2.2-9.2,2.6C121.8,101.9,118.7,102,118.2,102L118.2,102z M50,101.4
	c0,0,0.1-0.1,0.2-0.2c0.8-0.5,1.7-1.4,2.1-2.2c0.1-0.2,10.3-32.1,10.5-32.9c0-0.1,0.1-0.4,0.1-0.7c0-0.7-0.2-1.2-0.7-1.7
	c-0.1-0.1-0.3-0.3-0.3-0.3c0-0.1,17.8-0.1,18.6,0c1.8,0.1,3.5,0.6,4.9,1.3c2.3,1.2,3.7,2.9,4.1,5.2c0.1,0.6,0.1,2.1,0,2.8
	c-0.4,2.8-1.7,5.8-3.5,8c-2.9,3.5-7.5,5.7-13.3,6.4c-1.8,0.2-4.1,0.2-5.7,0.1c-0.5,0-0.9-0.1-0.9,0c-0.1,0.1-3.7,11.6-3.8,11.9
	c-0.1,0.8,0.3,1.7,1,2.2c0.1,0.1,0.2,0.2,0.2,0.2C63.6,101.5,50,101.5,50,101.4L50,101.4z M70.2,84.2c1.3-0.2,2.5-0.7,3.6-1.5
	c0.6-0.4,1.7-1.5,2.2-2.1c1.2-1.6,2-3.4,2.7-5.8c0.4-1.5,0.6-2.7,0.6-3.9c0-0.9-0.1-1.5-0.3-2.1c-0.4-0.9-1.1-1.7-2-2
	c-0.8-0.3-1.5-0.4-3.1-0.4l-1.2,0l-2.8,8.8c-1.6,4.9-2.8,8.9-2.8,8.9c0,0,0.2,0.1,0.4,0.1c0.2,0,0.4,0.1,0.5,0.1
	C68.2,84.4,69.8,84.3,70.2,84.2L70.2,84.2z"/>
</svg>
