<?xml version="1.0" encoding="utf-8"?>
<!-- Generator: Adobe Illustrator 25.2.1, SVG Export Plug-In . SVG Version: 6.00 Build 0)  -->
<svg version="1.1" id="Layer_1" xmlns="http://www.w3.org/2000/svg" xmlns:xlink="http://www.w3.org/1999/xlink" x="0px" y="0px"
	 viewBox="0 0 190 165" enable-background="new 0 0 190 165" xml:space="preserve">
<path fill="#FFFFFF" d="M121.7,79.5c-1.2,0-2.3,0.9-2.3,2.2c0,1,0.8,1.6,1,1.8c-1.1,0.6-2.2,1.5-2.3,3c0,1.2,0.9,2.7,3,2.7
	c1.1,0,2.1-0.5,3.1-1.5c0.2,0.3,0.5,0.8,0.7,1c0.3,0.3,1,0.5,1.7,0.5s1.8-0.3,2.5-1.1c0-0.1-0.1-0.3-0.2-0.3
	c-0.3,0.2-0.8,0.4-1.2,0.4c-1.1,0-1.7-0.6-2.4-1.6c-0.1-0.2-0.1-0.3,0-0.4c0.7-0.9,1.2-1.7,1.5-2.3c0.5-0.9,0.8-1.3,1.6-1.5l0.7-0.1
	c0.1-0.1,0.1-0.4,0-0.4c-0.3,0-1.7,0.1-2.5,0.1h-0.8c-0.2,0.1-0.2,0.3,0,0.4l0.4,0.1c0.4,0.1,0.4,0.2,0.1,0.8
	c-0.4,0.9-0.9,2-1.4,2.6c-0.8-1.2-1.3-1.9-2.5-2.6c0.5-0.3,1.4-0.7,1.4-1.8C123.9,80.4,123.1,79.5,121.7,79.5L121.7,79.5z
	 M122.6,85.3c0.4,0.5,0.9,1,1.2,1.6c0.2,0.3,0.2,0.4,0,0.6c-0.5,0.4-1.1,0.7-1.7,0.7c-1.3,0-2.3-0.9-2.3-2.1c0-0.7,0.4-1.5,0.9-1.9
	c0.1-0.1,0.3-0.2,0.3-0.2C121.1,84,121.9,84.5,122.6,85.3L122.6,85.3z M121.7,80.1c0.6,0,0.9,0.5,0.9,1.3c0,0.6-0.2,1.1-0.5,1.4
	l-0.1,0.1l-0.2-0.1c-0.7-0.5-1-0.9-1-1.5C120.7,80.5,121.2,80.1,121.7,80.1z"/>
<path fill="#FFFFFF" d="M135.3,76.1c-0.9,0-1.8,0-2.4-0.1c-0.2,0.1-0.2,0.4,0,0.6h0.3c0.9,0.1,1.1,0.2,1.1,2.3v7.3
	c0,2.1-0.2,2.1-1.1,2.3l-0.4,0.1c-0.1,0.1-0.1,0.5,0,0.6c0.9,0,1.8-0.1,2.7-0.1s1.7,0,3,0.1c0.2-0.1,0.2-0.4,0-0.6l-0.8-0.1
	c-0.9-0.1-1.1-0.1-1.1-2.2v-2.8c0-0.5,0-0.5,0.5-0.5h1.2c1.7,0,2,0,2.2,0.9l0.1,0.8c0.1,0.1,0.5,0.1,0.6,0c0-0.6-0.1-1.3-0.1-2
	s0-1.5,0.1-2c-0.1-0.2-0.5-0.2-0.6,0l-0.1,0.7c-0.2,0.8-0.5,0.9-2.2,0.9h-1.2c-0.5,0-0.5,0-0.5-0.5V78c0-1.1,0-1.1,0.8-1.1h1
	c0.6,0,1.1,0,1.6,0.1c0.7,0.2,1.1,0.8,1.3,1.9c0.2,0.1,0.6,0.1,0.6-0.1c0-0.9,0-2.4,0-2.8c-0.4,0-1.5,0.1-2.8,0.1H135.3L135.3,76.1z
	"/>
<path fill="#FFFFFF" d="M145.3,83.3c0-0.8,0-1.7,0.1-2.4c-0.1-0.1-0.2-0.1-0.3-0.2c-0.5,0.3-1.5,0.8-2.5,1.1c-0.1,0.1-0.1,0.4,0,0.4
	l0.2,0.1c0.5,0.3,0.5,0.5,0.5,1.4v2.9c0,1.5-0.1,1.7-0.7,1.8l-0.4,0.1c-0.1,0.1-0.1,0.5,0,0.6c0.7,0,1.4-0.1,2.1-0.1
	c0.7,0,1.4,0,2.1,0.1c0.1-0.1,0.2-0.4,0-0.6l-0.4-0.1c-0.7-0.1-0.7-0.3-0.7-1.8L145.3,83.3L145.3,83.3z M144.2,78.4
	c0.7,0,1.3-0.5,1.3-1.2S145,76,144.2,76c-0.7,0-1.3,0.5-1.3,1.2C143,77.9,143.5,78.4,144.2,78.4z"/>
<path fill="#FFFFFF" d="M152.3,82.2c0.2-0.1,0.2-0.3,0.3-0.5c0-0.2,0-0.4-0.2-0.4h-1.9c-0.4,0-0.4-0.1-0.4-0.4v-1.2
	c-0.1-0.2-0.4-0.2-0.6-0.1c-0.3,0.5-0.7,0.9-1.1,1.2c-0.4,0.3-0.9,0.6-1.5,0.8c-0.2,0.1-0.1,0.4,0.1,0.5h0.7c0.3,0,0.4,0,0.4,0.7v4
	c0,1.4,0.3,2.5,2.2,2.5c1.2,0,2.1-0.5,2.5-1.1c0-0.2-0.1-0.4-0.3-0.4c-0.3,0.2-0.6,0.4-0.9,0.4c-1.2,0-1.4-1.1-1.4-2.3v-3
	c0-0.6,0-0.7,0.4-0.7H152.3L152.3,82.2z"/>
<path fill="#FFFFFF" d="M158.1,81c-3.2,0-4.8,2.1-4.8,4.4c0,1.1,0.4,2.2,1.1,2.8c0.7,0.7,1.7,1.1,2.7,1.1c1.2,0,2.7-0.6,3.5-2.1
	c0-0.2-0.2-0.4-0.4-0.4c-0.4,0.6-0.8,1-2.1,1c-1.8,0-2.8-1.5-2.8-3.1c0-1.8,1.2-2.9,2.3-2.9c0.8,0,1.4,0.6,1.8,1.2
	c0.1,0.2,0.2,0.2,0.4,0.2s0.5-0.3,0.5-0.9c0-0.5-0.1-0.8-0.4-1C159.2,81.1,158.7,81,158.1,81z"/>
<path fill="#FFFFFF" d="M164.5,78c0-0.8,0-2.1,0.1-2.8c0-0.1-0.2-0.2-0.3-0.1c-0.8,0.3-1.8,0.7-2.6,0.9c-0.1,0.1-0.1,0.4,0,0.4
	l0.3,0.2c0.4,0.3,0.5,0.4,0.5,1.7v8.4c0,1.5-0.1,1.7-0.7,1.8l-0.4,0.1c-0.1,0.1-0.1,0.5,0,0.6c0.8,0,1.5-0.1,2.1-0.1
	c0.7,0,1.4,0,2.1,0.1c0.2-0.1,0.2-0.4,0-0.6h-0.3c-0.7-0.1-0.7-0.3-0.7-1.8v-2.6c0-0.8,0-1.1,0.2-1.3c0.2-0.3,0.7-0.6,1.3-0.6
	c1.2,0,1.6,0.8,1.6,1.7v2.8c0,1.5-0.1,1.7-0.7,1.8h-0.3c-0.1,0.1-0.1,0.5,0,0.6c0.7,0,1.4-0.1,2-0.1c0.7,0,1.4,0,2.2,0.1
	c0.2-0.1,0.2-0.4,0-0.6l-0.4-0.1c-0.7-0.1-0.7-0.3-0.7-1.8v-2.9c0-1.7-0.8-2.8-2.5-2.8c-1,0-1.8,0.4-2.5,0.9c-0.1,0-0.2-0.1-0.2-0.3
	V78H164.5z"/>
<path fill="#FFFFFF" d="M25.3,84.5c0.5,0,0.6,0,0.8,0.5l0.9,2.7c0.3,0.8,0.2,1-0.5,1l-0.4,0.1c-0.1,0.1-0.1,0.5,0.1,0.6
	c0.7,0,1.5-0.1,2.4-0.1c1,0,1.7,0,2.5,0.1c0.1-0.1,0.1-0.4,0-0.6l-0.3-0.1c-1-0.2-1.1-0.3-1.5-1.6l-2.8-8.2
	c-0.3-0.9-0.6-1.8-0.9-2.7C25.4,76,25.3,76,25.2,76c0,0-0.7,0.8-1.4,0.9c0.1,0.3-0.1,0.8-0.4,1.4l-2.7,7c-0.4,1.1-0.7,1.9-1,2.4
	c-0.3,0.7-0.5,0.8-1.1,0.9L18,88.7c-0.1,0.2-0.1,0.5,0,0.6c0.7,0,1.3-0.1,1.9-0.1c0.8,0,1.5,0,2.1,0.1c0.2-0.1,0.2-0.4,0-0.6
	l-0.6-0.1c-0.7-0.1-0.8-0.2-0.4-1.3l1-2.3c0.2-0.5,0.2-0.5,0.7-0.5H25.3L25.3,84.5z M23,83.6c-0.5,0-0.5,0-0.3-0.6l0.8-2.3
	c0.4-0.9,0.5-1.4,0.6-1.5l0,0c0.1,0.1,0.2,0.5,0.6,1.5l0.8,2.4c0.2,0.5,0.1,0.5-0.5,0.5H23L23,83.6z"/>
<path fill="#FFFFFF" d="M33.9,78.2c0-0.8,0-2.1,0.1-2.8c0-0.1-0.2-0.2-0.3-0.1c-0.8,0.3-1.8,0.7-2.6,0.9c-0.1,0.1-0.1,0.4,0,0.4
	l0.3,0.2c0.4,0.3,0.4,0.4,0.4,1.7v8.9c0,0.7-0.1,1.8-0.1,1.8c0,0.1,0.1,0.1,0.2,0.1s0.1,0,0.1,0c0.1-0.1,0.3-0.3,0.5-0.3
	s1.2,0.5,2.6,0.5c2.6,0,4.7-1.6,4.7-4.4c0-2.2-1.5-3.9-3.8-3.9c-0.8,0-1.4,0.3-2.1,0.6c-0.1,0-0.2-0.1-0.2-0.4v-3.2H33.9z
	 M33.9,83.6c0-0.7,0-0.9,0.2-1s0.6-0.3,1-0.3c1.4,0,2.6,1.2,2.6,3.5c0,1.7-0.7,2.9-2,2.9c-0.6,0-1-0.3-1.3-0.7
	c-0.3-0.4-0.4-1.1-0.4-2L33.9,83.6L33.9,83.6z"/>
<path fill="#FFFFFF" d="M46.8,84.6c0.8,0,1.2-0.1,1.4-0.3c0.1-0.2,0.1-0.3,0.1-0.5c0-1.7-1.5-2.6-2.9-2.6c-2.6,0-4.1,2.1-4.1,4.4
	c0,2.2,1.5,3.9,3.8,3.9c1.2,0,2.7-0.6,3.3-2.2c0-0.2-0.2-0.4-0.4-0.3c-0.4,0.7-1.1,1-1.9,1c-1.7,0-3-1.4-3-3.2c0-0.2,0-0.3,0.4-0.3
	L46.8,84.6L46.8,84.6z M43.4,83.8c-0.2,0-0.3-0.1-0.3-0.1c0-0.4,0.6-1.7,1.9-1.7c0.9,0,1.3,0.6,1.3,1.3c0,0.2-0.1,0.3-0.2,0.4
	c-0.1,0.1-0.4,0.1-1,0.1C45.1,83.8,43.4,83.8,43.4,83.8z"/>
<path fill="#FFFFFF" d="M49.9,86.9c0,1.5-0.1,1.7-0.7,1.8l-0.4,0.1c-0.1,0.1-0.1,0.5,0,0.6c0.7,0,1.4-0.1,2-0.1c0.7,0,1.4,0,2.6,0.1
	c0.2-0.1,0.2-0.4,0-0.6l-0.8-0.1c-0.7-0.1-0.8-0.3-0.8-1.7v-2.7c0-1,0.1-1.4,0.6-1.4c0.1,0,0.4,0,0.9,0.4c0.2,0.1,0.3,0.2,0.5,0.2
	c0.5,0,1.1-0.4,1.1-1.1c0-0.5-0.4-1-1.1-1c-0.7,0-1.3,0.6-1.9,1c-0.1,0-0.2-0.1-0.2-0.2c0-0.2,0-0.5,0-0.9c0-0.1-0.1-0.2-0.3-0.2
	c-0.6,0.4-1.6,0.8-2.5,1.1c-0.1,0.1-0.1,0.4,0,0.4l0.2,0.1c0.5,0.3,0.5,0.5,0.5,1.4L49.9,86.9L49.9,86.9z"/>
<path fill="#FFFFFF" d="M60.1,81.3c-3.2,0-4.8,2.1-4.8,4.4c0,1.1,0.4,2.2,1.1,2.8c0.7,0.7,1.7,1.1,2.7,1.1c1.2,0,2.7-0.6,3.5-2.1
	c0-0.2-0.2-0.4-0.4-0.4c-0.4,0.6-0.8,1-2.1,1c-1.8,0-2.8-1.5-2.8-3.1c0-1.8,1.2-2.9,2.3-2.9c0.8,0,1.4,0.6,1.8,1.2
	c0.1,0.2,0.2,0.2,0.4,0.2s0.5-0.3,0.5-0.9c0-0.5-0.1-0.8-0.4-1C61.2,81.3,60.6,81.3,60.1,81.3z"/>
<path fill="#FFFFFF" d="M64.2,86.9c0,1.5-0.1,1.7-0.7,1.8l-0.4,0.1c-0.1,0.1-0.1,0.5,0,0.6c0.7,0,1.4-0.1,2-0.1c0.7,0,1.4,0,2.6,0.1
	c0.2-0.1,0.2-0.4,0-0.6l-0.8-0.1c-0.7-0.1-0.8-0.3-0.8-1.7v-2.7c0-1,0.1-1.4,0.6-1.4c0.1,0,0.4,0,0.9,0.4c0.2,0.1,0.3,0.2,0.5,0.2
	c0.5,0,1.1-0.4,1.1-1.1c0-0.5-0.4-1-1.1-1s-1.3,0.6-1.9,1c-0.1,0-0.2-0.1-0.2-0.2c0-0.2,0-0.5,0-0.9c0-0.1-0.1-0.2-0.3-0.2
	c-0.6,0.4-1.6,0.8-2.5,1.1c-0.1,0.1-0.1,0.4,0,0.4l0.2,0.1c0.5,0.3,0.5,0.5,0.5,1.4L64.2,86.9L64.2,86.9z"/>
<path fill="#FFFFFF" d="M73.8,81.3c-2.3,0-4.3,1.7-4.3,4.3c0,2.6,1.9,4,4.1,4c2.3,0,4.3-1.5,4.3-4.2C78,82.7,76.1,81.3,73.8,81.3z
	 M71.9,85.2c0-2.2,0.8-3.2,1.8-3.2c1.5,0,2,1.9,2,3.6c0,1.5-0.4,3.1-1.7,3.1C72.5,88.8,71.9,87,71.9,85.2z"/>
<path fill="#FFFFFF" d="M79.5,86.9c0,1.5-0.1,1.7-0.7,1.8l-0.4,0.1c-0.1,0.1-0.1,0.5,0,0.6c0.7,0,1.4-0.1,2-0.1c0.7,0,1.4,0,2.1,0.1
	c0.2-0.1,0.2-0.4,0-0.6h-0.3c-0.7-0.1-0.7-0.3-0.7-1.8v-2.6c0-0.8,0-0.9,0.3-1.3c0.2-0.3,0.7-0.6,1.4-0.6c1.1,0,1.5,0.8,1.5,1.8V87
	c0,1.5-0.1,1.7-0.7,1.8h-0.3c-0.1,0.1-0.1,0.5,0,0.6c0.6,0,1.3-0.1,2-0.1s1.4,0,2.1,0.1c0.2-0.1,0.2-0.4,0-0.6h-0.3
	c-0.7-0.1-0.7-0.3-0.7-1.8v-3c0-0.5,0-0.8,0.2-1c0.2-0.3,0.7-0.6,1.3-0.6c1.2,0,1.6,0.8,1.6,1.8v2.7c0,1.5-0.1,1.7-0.7,1.8l-0.3,0.1
	c-0.1,0.1-0.1,0.5,0,0.6c0.7,0,1.4-0.1,2-0.1c0.7,0,1.4,0,2.2,0.1c0.1-0.1,0.2-0.4,0-0.6l-0.4-0.1C92,88.6,92,88.4,92,86.9v-3
	c0-1.5-0.7-2.6-2.4-2.6c-0.9,0-1.6,0.4-2.5,0.9c-0.2,0.1-0.4,0.2-0.4,0.2c-0.1,0-0.2-0.1-0.3-0.3c-0.3-0.4-0.9-0.8-1.8-0.8
	c-1.3,0-1.8,0.5-2.8,1c-0.1,0-0.2-0.1-0.2-0.2c0-0.2,0-0.5,0-0.9c0-0.1-0.1-0.2-0.3-0.2c-0.6,0.4-1.7,0.8-2.5,1.1
	c-0.1,0.1-0.1,0.4,0,0.4l0.2,0.1c0.5,0.3,0.5,0.5,0.5,1.4L79.5,86.9L79.5,86.9z"/>
<path fill="#FFFFFF" d="M96.1,78.2c0-0.8,0-2.1,0.1-2.8c0-0.1-0.2-0.2-0.3-0.1c-0.8,0.3-1.8,0.7-2.6,0.9c-0.1,0.1-0.1,0.4,0,0.4
	l0.3,0.2c0.4,0.3,0.4,0.4,0.4,1.7v8.9c0,0.7-0.1,1.8-0.1,1.8c0,0.1,0.1,0.1,0.2,0.1s0.1,0,0.1,0c0.1-0.1,0.3-0.3,0.5-0.3
	s1.2,0.5,2.6,0.5c2.6,0,4.7-1.6,4.7-4.4c0-2.2-1.5-3.9-3.8-3.9c-0.8,0-1.4,0.3-2.1,0.6c-0.1,0-0.2-0.1-0.2-0.4v-3.2H96.1z
	 M96.1,83.6c0-0.7,0-0.9,0.2-1s0.6-0.3,1-0.3c1.4,0,2.6,1.2,2.6,3.5c0,1.7-0.7,2.9-2,2.9c-0.6,0-1-0.3-1.3-0.7
	c-0.3-0.4-0.4-1.1-0.4-2L96.1,83.6L96.1,83.6z"/>
<path fill="#FFFFFF" d="M105.7,83.5c0-0.8,0-1.7,0.1-2.4c-0.1-0.1-0.2-0.1-0.3-0.2c-0.5,0.3-1.5,0.8-2.5,1.1c-0.1,0.1-0.1,0.4,0,0.4
	l0.2,0.1c0.5,0.3,0.5,0.5,0.5,1.4v2.9c0,1.5-0.1,1.7-0.7,1.8l-0.4,0.1c-0.1,0.1-0.1,0.5,0,0.6c0.7,0,1.4-0.1,2.1-0.1s1.4,0,2.1,0.1
	c0.1-0.1,0.2-0.4,0-0.6l-0.4-0.1c-0.7-0.1-0.7-0.3-0.7-1.8L105.7,83.5L105.7,83.5z M104.7,78.7c0.7,0,1.3-0.5,1.3-1.2
	s-0.5-1.2-1.3-1.2s-1.3,0.5-1.3,1.2C103.4,78.1,103.9,78.7,104.7,78.7z"/>
<path fill="#FFFFFF" d="M113,84.6c0.8,0,1.2-0.1,1.4-0.3c0.1-0.2,0.1-0.3,0.1-0.5c0-1.7-1.5-2.6-2.9-2.6c-2.6,0-4.1,2.1-4.1,4.4
	c0,2.2,1.5,3.9,3.8,3.9c1.2,0,2.7-0.6,3.3-2.2c0-0.2-0.2-0.4-0.4-0.3c-0.4,0.7-1.1,1-1.9,1c-1.7,0-3-1.4-3-3.2c0-0.2,0-0.3,0.4-0.3
	L113,84.6L113,84.6z M109.7,83.8c-0.2,0-0.3-0.1-0.3-0.1c0-0.4,0.6-1.7,1.9-1.7c0.9,0,1.3,0.6,1.3,1.3c0,0.2-0.1,0.3-0.2,0.4
	s-0.4,0.1-1,0.1C111.4,83.8,109.7,83.8,109.7,83.8z"/>
</svg>
