<?xml version="1.0" encoding="utf-8"?>
<!-- Generator: Adobe Illustrator 25.2.1, SVG Export Plug-In . SVG Version: 6.00 Build 0)  -->
<svg version="1.1" id="Layer_1" xmlns="http://www.w3.org/2000/svg" xmlns:xlink="http://www.w3.org/1999/xlink" x="0px" y="0px"
	 viewBox="0 0 190 165" enable-background="new 0 0 190 165" xml:space="preserve">
<path fill="#73CCF3" d="M26,67l-8,8l8,8l8-8L26,67z"/>
<path fill="#1AB5E9" d="M34,75l-8,8l8,8l8-8L34,75z"/>
<path fill="#0C6DB6" d="M26,82.9l-8,8l8,8l8-8L26,82.9z"/>
<path fill="#079BC7" d="M18,75l-8,8l8,8l8-8L18,75z"/>
<path fill="#1D2D37" d="M52.7,74.7h4.2l4.6,7.4l4.6-7.4h4.2v17.5h-3.9V80.9l-5,7.4h-0.1l-4.8-7.4v11.4h-3.8L52.7,74.7z"/>
<path fill="#1D2D37" d="M73.9,74.7h13.2v3.4h-9.5v3.5h8.3v3.4h-8.3v3.7h9.5v3.4H73.9C73.9,92.3,73.9,74.7,73.9,74.7z"/>
<path fill="#1D2D37" d="M90.1,74.7H97c5.5,0,9.2,3.8,9.2,8.7c0,4.9-3.9,8.7-9.2,8.7h-6.9V74.7z M94,78.3v10.5h3
	c3.1,0,5.3-2.2,5.3-5.3c0-3.1-2.2-5.3-5.3-5.3H94z"/>
<path fill="#1D2D37" d="M113.7,74.6h3.5l7.5,17.6h-4l-1.6-3.9h-7.4l-1.6,3.9h-3.9L113.7,74.6z M117.8,84.9l-2.3-5.7l-2.3,5.7H117.8z
	"/>
<path fill="#1D2D37" d="M126.6,74.7h3.9v13.9h8.7v3.5h-12.6V74.7z"/>
<path fill="#1D2D37" d="M141.1,74.7h3.9v13.9h8.7v3.5h-12.6V74.7z"/>
<path fill="#1D2D37" d="M155.7,74.7h3.9v17.5h-3.9V74.7z"/>
<path fill="#1D2D37" d="M168.9,74.6h3.5l7.5,17.6h-4l-1.6-3.9H167l-1.6,3.9h-4L168.9,74.6z M172.9,84.9l-2.3-5.7l-2.3,5.7H172.9z"/>
</svg>
